<svg width="72" height="72" viewBox="0 0 72 72" fill="none" xmlns="http://www.w3.org/2000/svg">
<path d="M3 9H48V48H3V9Z" stroke="#561643" stroke-width="6" stroke-linecap="round" stroke-linejoin="round"/>
<path d="M48 24H60L69 33V48H48V24Z" stroke="#561643" stroke-width="6" stroke-linecap="round" stroke-linejoin="round"/>
<path d="M16.5 63C20.6421 63 24 59.6421 24 55.5C24 51.3579 20.6421 48 16.5 48C12.3579 48 9 51.3579 9 55.5C9 59.6421 12.3579 63 16.5 63Z" stroke="#561643" stroke-width="6" stroke-linecap="round" stroke-linejoin="round"/>
<path d="M55.5 63C59.6421 63 63 59.6421 63 55.5C63 51.3579 59.6421 48 55.5 48C51.3579 48 48 51.3579 48 55.5C48 59.6421 51.3579 63 55.5 63Z" stroke="#561643" stroke-width="6" stroke-linecap="round" stroke-linejoin="round"/>
</svg>
