<svg xmlns="http://www.w3.org/2000/svg" xmlns:xlink="http://www.w3.org/1999/xlink" viewBox="0 0 394.41 143.49"><defs><linearGradient id="linear-gradient" x1="72.58" y1="314.85" x2="167.84" y2="314.85" gradientTransform="translate(-125.59 -179.62) rotate(-15.26)" gradientUnits="userSpaceOnUse"><stop offset="0" stop-color="#13547a"/><stop offset="1" stop-color="#80d0c7"/></linearGradient><linearGradient id="linear-gradient-2" x1="51.67" y1="295.82" x2="175.6" y2="295.82" xlink:href="#linear-gradient"/><linearGradient id="linear-gradient-3" x1="114.51" y1="255.37" x2="184.21" y2="255.37" xlink:href="#linear-gradient"/><linearGradient id="linear-gradient-4" x1="44.71" y1="104.59" x2="127.24" y2="104.59" gradientTransform="matrix(1, 0, 0, 1, 0, 0)" xlink:href="#linear-gradient"/></defs><title>Logo</title><g id="Layer_2" data-name="Layer 2"><g id="Layer_1-2" data-name="Layer 1"><path d="M127.19,109.24a68.1,68.1,0,0,1-87.52,28h0c-37.32-70,14-91.35,15.08-91.77a32.75,32.75,0,0,0-10,52.8C73.16,133,124.47,110.47,127.19,109.24Z" style="fill:url(#linear-gradient)"/><path d="M118,46.08h0L79.16,56l5.18-9.06a32.87,32.87,0,0,0-29.58-1.47h0c-1,.42-52.4,21.79-15.08,91.77A68.09,68.09,0,0,1,9,41.6H9C61,1.17,118,46.08,118,46.08Z" style="fill:url(#linear-gradient-2)"/><path d="M118,46.08S61,1.17,9,41.59a68.1,68.1,0,0,1,92.89-25.35l4.93-8.63Z" style="fill:url(#linear-gradient-3)"/><path d="M127.24,109.15l0,.09c-2.72,1.23-54,23.76-82.48-11a32.75,32.75,0,0,0,51.83-6.66Z" style="fill:url(#linear-gradient-4)"/><path d="M137.93,30.77a9.81,9.81,0,0,1,3.83-8,12.7,12.7,0,0,1,8.2-3.13,12.12,12.12,0,0,1,8,3.13,10,10,0,0,1,3.67,8A9.77,9.77,0,0,1,158,38.66a12.34,12.34,0,0,1-8,3.05,12.93,12.93,0,0,1-8.2-3.05A9.6,9.6,0,0,1,137.93,30.77ZM138.4,55h21.87v68.27H138.4Z" style="fill:#13547a"/><path d="M189.32,55l2,18.75-.47-2.81A31.26,31.26,0,0,1,199,60.53a46.78,46.78,0,0,1,10.24-6.64q5.07-2.34,7.73-2.34l-1.1,21.87q-7.65-.94-13.12,2.5A23.52,23.52,0,0,0,194.32,85a24.47,24.47,0,0,0-3,11.56v26.71H169.64V55Z" style="fill:#13547a"/><path d="M220.56,123.25V0h21.87V123.25Zm15.31-18.9-2.19-20.78,41.24-30.3L288.2,65Zm23.9-27.5,30.93,46.4H265.23L245.4,89.35Z" style="fill:#13547a"/><path d="M292.72,0h21.87V123.25H292.72Z" style="fill:#13547a"/><path d="M357.55,125.12q-12.49,0-21.17-4.68a32,32,0,0,1-13.2-13,39.06,39.06,0,0,1-4.53-19.06A33.66,33.66,0,0,1,324,69.82a39.07,39.07,0,0,1,14.21-13.2A40.34,40.34,0,0,1,358,51.7q14.69,0,24.13,8.52t12.26,24.6l-53.1,16.87-4.85-11.87,38.43-13-4.53,2a16.42,16.42,0,0,0-4.45-7.1q-3.21-3-9.61-3A15.85,15.85,0,0,0,347.79,71a14.71,14.71,0,0,0-5.63,6.4,22.69,22.69,0,0,0-2,9.76,22.14,22.14,0,0,0,2.34,10.7,15.73,15.73,0,0,0,6.41,6.49,18.76,18.76,0,0,0,9.06,2.18,19.64,19.64,0,0,0,7-1.25,36.84,36.84,0,0,0,6.64-3.28l9.68,16.25a55.37,55.37,0,0,1-11.79,5A42.11,42.11,0,0,1,357.55,125.12Z" style="fill:#13547a"/></g></g></svg>