<svg width="131" height="44" viewBox="0 0 131 44" fill="none" xmlns="http://www.w3.org/2000/svg">
<rect width="131" height="44" rx="4" fill="#1E96FC"/>
<path d="M31.417 21.967C31.7623 21.967 32.0633 21.925 32.32 21.841C32.5767 21.7523 32.789 21.6287 32.957 21.47C33.1297 21.3067 33.258 21.1107 33.342 20.882C33.426 20.6487 33.468 20.3897 33.468 20.105C33.468 19.8343 33.426 19.5893 33.342 19.37C33.258 19.1507 33.132 18.964 32.964 18.81C32.796 18.656 32.5837 18.5393 32.327 18.46C32.0703 18.376 31.767 18.334 31.417 18.334H30.01V21.967H31.417ZM31.417 16.878C32.0937 16.878 32.6793 16.9573 33.174 17.116C33.6687 17.2747 34.077 17.4963 34.399 17.781C34.721 18.0657 34.959 18.4063 35.113 18.803C35.2717 19.1997 35.351 19.6337 35.351 20.105C35.351 20.595 35.2693 21.0453 35.106 21.456C34.9427 21.862 34.6977 22.212 34.371 22.506C34.0443 22.8 33.6337 23.0287 33.139 23.192C32.649 23.3553 32.075 23.437 31.417 23.437H30.01V27H28.127V16.878H31.417ZM40.0972 23.934C39.5979 23.9573 39.1779 24.0017 38.8372 24.067C38.4966 24.1277 38.2236 24.207 38.0182 24.305C37.8129 24.403 37.6659 24.5173 37.5772 24.648C37.4886 24.7787 37.4442 24.921 37.4442 25.075C37.4442 25.3783 37.5329 25.5953 37.7102 25.726C37.8922 25.8567 38.1279 25.922 38.4172 25.922C38.7719 25.922 39.0776 25.859 39.3342 25.733C39.5956 25.6023 39.8499 25.4063 40.0972 25.145V23.934ZM36.1352 20.819C36.9612 20.063 37.9552 19.685 39.1172 19.685C39.5372 19.685 39.9129 19.755 40.2442 19.895C40.5756 20.0303 40.8556 20.2217 41.0842 20.469C41.3129 20.7117 41.4856 21.0033 41.6022 21.344C41.7236 21.6847 41.7842 22.058 41.7842 22.464V27H41.0002C40.8369 27 40.7109 26.9767 40.6222 26.93C40.5336 26.8787 40.4636 26.7783 40.4122 26.629L40.2582 26.111C40.0762 26.2743 39.8989 26.419 39.7262 26.545C39.5536 26.6663 39.3739 26.769 39.1872 26.853C39.0006 26.937 38.7999 27 38.5852 27.042C38.3752 27.0887 38.1419 27.112 37.8852 27.112C37.5819 27.112 37.3019 27.0723 37.0452 26.993C36.7886 26.909 36.5669 26.7853 36.3802 26.622C36.1936 26.4587 36.0489 26.2557 35.9462 26.013C35.8436 25.7703 35.7922 25.488 35.7922 25.166C35.7922 24.984 35.8226 24.8043 35.8832 24.627C35.9439 24.445 36.0419 24.2723 36.1772 24.109C36.3172 23.9457 36.4969 23.7917 36.7162 23.647C36.9356 23.5023 37.2039 23.3763 37.5212 23.269C37.8432 23.1617 38.2166 23.0753 38.6412 23.01C39.0659 22.94 39.5512 22.898 40.0972 22.884V22.464C40.0972 21.9833 39.9946 21.6287 39.7892 21.4C39.5839 21.1667 39.2876 21.05 38.9002 21.05C38.6202 21.05 38.3869 21.0827 38.2002 21.148C38.0182 21.2133 37.8572 21.288 37.7172 21.372C37.5772 21.4513 37.4489 21.5237 37.3322 21.589C37.2202 21.6543 37.0942 21.687 36.9542 21.687C36.8329 21.687 36.7302 21.6567 36.6462 21.596C36.5622 21.5307 36.4946 21.456 36.4432 21.372L36.1352 20.819ZM46.0376 23.234C46.2523 23.234 46.4389 23.206 46.5976 23.15C46.7563 23.0893 46.8869 23.0077 46.9896 22.905C47.0969 22.8023 47.1763 22.6787 47.2276 22.534C47.2836 22.3893 47.3116 22.2307 47.3116 22.058C47.3116 21.7033 47.2043 21.4233 46.9896 21.218C46.7796 21.008 46.4623 20.903 46.0376 20.903C45.6129 20.903 45.2933 21.008 45.0786 21.218C44.8686 21.4233 44.7636 21.7033 44.7636 22.058C44.7636 22.226 44.7893 22.3823 44.8406 22.527C44.8966 22.6717 44.9759 22.7977 45.0786 22.905C45.1859 23.0077 45.3189 23.0893 45.4776 23.15C45.6409 23.206 45.8276 23.234 46.0376 23.234ZM47.9906 27.322C47.9906 27.182 47.9486 27.0677 47.8646 26.979C47.7806 26.8903 47.6663 26.8227 47.5216 26.776C47.3769 26.7247 47.2066 26.6873 47.0106 26.664C46.8193 26.6407 46.6139 26.6243 46.3946 26.615C46.1799 26.601 45.9559 26.5893 45.7226 26.58C45.4939 26.5707 45.2699 26.552 45.0506 26.524C44.8593 26.6313 44.7029 26.7573 44.5816 26.902C44.4649 27.0467 44.4066 27.2147 44.4066 27.406C44.4066 27.532 44.4369 27.6487 44.4976 27.756C44.5629 27.868 44.6633 27.9637 44.7986 28.043C44.9386 28.1223 45.1183 28.183 45.3376 28.225C45.5569 28.2717 45.8253 28.295 46.1426 28.295C46.4646 28.295 46.7423 28.2693 46.9756 28.218C47.2089 28.1713 47.4003 28.1037 47.5496 28.015C47.7036 27.931 47.8156 27.8283 47.8856 27.707C47.9556 27.5903 47.9906 27.462 47.9906 27.322ZM49.7126 20.063V20.707C49.7126 20.9123 49.5889 21.0383 49.3416 21.085L48.6976 21.204C48.7956 21.4513 48.8446 21.722 48.8446 22.016C48.8446 22.3707 48.7723 22.6927 48.6276 22.982C48.4876 23.2667 48.2916 23.5093 48.0396 23.71C47.7876 23.9107 47.4889 24.067 47.1436 24.179C46.8029 24.2863 46.4343 24.34 46.0376 24.34C45.8976 24.34 45.7623 24.333 45.6316 24.319C45.5009 24.305 45.3726 24.2863 45.2466 24.263C45.0226 24.3983 44.9106 24.55 44.9106 24.718C44.9106 24.8627 44.9759 24.97 45.1066 25.04C45.2419 25.1053 45.4193 25.152 45.6386 25.18C45.8579 25.208 46.1076 25.2267 46.3876 25.236C46.6676 25.2407 46.9546 25.2547 47.2486 25.278C47.5426 25.3013 47.8296 25.3433 48.1096 25.404C48.3896 25.46 48.6393 25.551 48.8586 25.677C49.0779 25.803 49.2529 25.9757 49.3836 26.195C49.5189 26.4097 49.5866 26.6873 49.5866 27.028C49.5866 27.3453 49.5073 27.6533 49.3486 27.952C49.1946 28.2507 48.9683 28.5167 48.6696 28.75C48.3756 28.9833 48.0116 29.17 47.5776 29.31C47.1483 29.4547 46.6583 29.527 46.1076 29.527C45.5663 29.527 45.0949 29.4733 44.6936 29.366C44.2923 29.2633 43.9586 29.1233 43.6926 28.946C43.4266 28.7733 43.2283 28.5727 43.0976 28.344C42.9669 28.1153 42.9016 27.8773 42.9016 27.63C42.9016 27.294 43.0019 27.014 43.2026 26.79C43.4079 26.5613 43.6879 26.3793 44.0426 26.244C43.8513 26.146 43.6996 26.0153 43.5876 25.852C43.4756 25.6887 43.4196 25.474 43.4196 25.208C43.4196 25.1007 43.4383 24.991 43.4756 24.879C43.5176 24.7623 43.5759 24.648 43.6506 24.536C43.7299 24.424 43.8279 24.319 43.9446 24.221C44.0613 24.1183 44.1989 24.0273 44.3576 23.948C43.9936 23.752 43.7066 23.4907 43.4966 23.164C43.2913 22.8373 43.1886 22.4547 43.1886 22.016C43.1886 21.6613 43.2586 21.3417 43.3986 21.057C43.5433 20.7677 43.7416 20.5227 43.9936 20.322C44.2503 20.1167 44.5513 19.9603 44.8966 19.853C45.2466 19.7457 45.6269 19.692 46.0376 19.692C46.3456 19.692 46.6349 19.7247 46.9056 19.79C47.1763 19.8507 47.4236 19.9417 47.6476 20.063H49.7126ZM54.6031 23.934C54.1037 23.9573 53.6837 24.0017 53.3431 24.067C53.0024 24.1277 52.7294 24.207 52.5241 24.305C52.3187 24.403 52.1717 24.5173 52.0831 24.648C51.9944 24.7787 51.9501 24.921 51.9501 25.075C51.9501 25.3783 52.0387 25.5953 52.2161 25.726C52.3981 25.8567 52.6337 25.922 52.9231 25.922C53.2777 25.922 53.5834 25.859 53.8401 25.733C54.1014 25.6023 54.3557 25.4063 54.6031 25.145V23.934ZM50.6411 20.819C51.4671 20.063 52.4611 19.685 53.6231 19.685C54.0431 19.685 54.4187 19.755 54.7501 19.895C55.0814 20.0303 55.3614 20.2217 55.5901 20.469C55.8187 20.7117 55.9914 21.0033 56.1081 21.344C56.2294 21.6847 56.2901 22.058 56.2901 22.464V27H55.5061C55.3427 27 55.2167 26.9767 55.1281 26.93C55.0394 26.8787 54.9694 26.7783 54.9181 26.629L54.7641 26.111C54.5821 26.2743 54.4047 26.419 54.2321 26.545C54.0594 26.6663 53.8797 26.769 53.6931 26.853C53.5064 26.937 53.3057 27 53.0911 27.042C52.8811 27.0887 52.6477 27.112 52.3911 27.112C52.0877 27.112 51.8077 27.0723 51.5511 26.993C51.2944 26.909 51.0727 26.7853 50.8861 26.622C50.6994 26.4587 50.5547 26.2557 50.4521 26.013C50.3494 25.7703 50.2981 25.488 50.2981 25.166C50.2981 24.984 50.3284 24.8043 50.3891 24.627C50.4497 24.445 50.5477 24.2723 50.6831 24.109C50.8231 23.9457 51.0027 23.7917 51.2221 23.647C51.4414 23.5023 51.7097 23.3763 52.0271 23.269C52.3491 23.1617 52.7224 23.0753 53.1471 23.01C53.5717 22.94 54.0571 22.898 54.6031 22.884V22.464C54.6031 21.9833 54.5004 21.6287 54.2951 21.4C54.0897 21.1667 53.7934 21.05 53.4061 21.05C53.1261 21.05 52.8927 21.0827 52.7061 21.148C52.5241 21.2133 52.3631 21.288 52.2231 21.372C52.0831 21.4513 51.9547 21.5237 51.8381 21.589C51.7261 21.6543 51.6001 21.687 51.4601 21.687C51.3387 21.687 51.2361 21.6567 51.1521 21.596C51.0681 21.5307 51.0004 21.456 50.9491 21.372L50.6411 20.819ZM59.5495 21.064C59.7735 20.6347 60.0395 20.2987 60.3475 20.056C60.6555 19.8087 61.0195 19.685 61.4395 19.685C61.7708 19.685 62.0368 19.7573 62.2375 19.902L62.1255 21.197C62.1021 21.281 62.0671 21.3417 62.0205 21.379C61.9785 21.4117 61.9201 21.428 61.8455 21.428C61.7755 21.428 61.6705 21.4163 61.5305 21.393C61.3951 21.3697 61.2621 21.358 61.1315 21.358C60.9401 21.358 60.7698 21.386 60.6205 21.442C60.4711 21.498 60.3358 21.5797 60.2145 21.687C60.0978 21.7897 59.9928 21.9157 59.8995 22.065C59.8108 22.2143 59.7268 22.3847 59.6475 22.576V27H57.9185V19.818H58.9335C59.1108 19.818 59.2345 19.8507 59.3045 19.916C59.3745 19.9767 59.4211 20.0887 59.4445 20.252L59.5495 21.064ZM71.4008 23.178L70.1688 19.811C70.1081 19.6617 70.0451 19.4843 69.9798 19.279C69.9144 19.0737 69.8491 18.852 69.7838 18.614C69.7231 18.852 69.6601 19.076 69.5948 19.286C69.5294 19.4913 69.4664 19.671 69.4058 19.825L68.1808 23.178H71.4008ZM74.7258 27H73.2698C73.1064 27 72.9734 26.9603 72.8708 26.881C72.7681 26.797 72.6911 26.6943 72.6398 26.573L71.8838 24.508H67.6908L66.9348 26.573C66.8974 26.6803 66.8251 26.7783 66.7178 26.867C66.6104 26.9557 66.4774 27 66.3188 27H64.8488L68.8318 16.878H70.7498L74.7258 27ZM78.1255 23.234C78.3402 23.234 78.5268 23.206 78.6855 23.15C78.8442 23.0893 78.9748 23.0077 79.0775 22.905C79.1848 22.8023 79.2642 22.6787 79.3155 22.534C79.3715 22.3893 79.3995 22.2307 79.3995 22.058C79.3995 21.7033 79.2922 21.4233 79.0775 21.218C78.8675 21.008 78.5502 20.903 78.1255 20.903C77.7008 20.903 77.3812 21.008 77.1665 21.218C76.9565 21.4233 76.8515 21.7033 76.8515 22.058C76.8515 22.226 76.8772 22.3823 76.9285 22.527C76.9845 22.6717 77.0638 22.7977 77.1665 22.905C77.2738 23.0077 77.4068 23.0893 77.5655 23.15C77.7288 23.206 77.9155 23.234 78.1255 23.234ZM80.0785 27.322C80.0785 27.182 80.0365 27.0677 79.9525 26.979C79.8685 26.8903 79.7542 26.8227 79.6095 26.776C79.4648 26.7247 79.2945 26.6873 79.0985 26.664C78.9072 26.6407 78.7018 26.6243 78.4825 26.615C78.2678 26.601 78.0438 26.5893 77.8105 26.58C77.5818 26.5707 77.3578 26.552 77.1385 26.524C76.9472 26.6313 76.7908 26.7573 76.6695 26.902C76.5528 27.0467 76.4945 27.2147 76.4945 27.406C76.4945 27.532 76.5248 27.6487 76.5855 27.756C76.6508 27.868 76.7512 27.9637 76.8865 28.043C77.0265 28.1223 77.2062 28.183 77.4255 28.225C77.6448 28.2717 77.9132 28.295 78.2305 28.295C78.5525 28.295 78.8302 28.2693 79.0635 28.218C79.2968 28.1713 79.4882 28.1037 79.6375 28.015C79.7915 27.931 79.9035 27.8283 79.9735 27.707C80.0435 27.5903 80.0785 27.462 80.0785 27.322ZM81.8005 20.063V20.707C81.8005 20.9123 81.6768 21.0383 81.4295 21.085L80.7855 21.204C80.8835 21.4513 80.9325 21.722 80.9325 22.016C80.9325 22.3707 80.8602 22.6927 80.7155 22.982C80.5755 23.2667 80.3795 23.5093 80.1275 23.71C79.8755 23.9107 79.5768 24.067 79.2315 24.179C78.8908 24.2863 78.5222 24.34 78.1255 24.34C77.9855 24.34 77.8502 24.333 77.7195 24.319C77.5888 24.305 77.4605 24.2863 77.3345 24.263C77.1105 24.3983 76.9985 24.55 76.9985 24.718C76.9985 24.8627 77.0638 24.97 77.1945 25.04C77.3298 25.1053 77.5072 25.152 77.7265 25.18C77.9458 25.208 78.1955 25.2267 78.4755 25.236C78.7555 25.2407 79.0425 25.2547 79.3365 25.278C79.6305 25.3013 79.9175 25.3433 80.1975 25.404C80.4775 25.46 80.7272 25.551 80.9465 25.677C81.1658 25.803 81.3408 25.9757 81.4715 26.195C81.6068 26.4097 81.6745 26.6873 81.6745 27.028C81.6745 27.3453 81.5952 27.6533 81.4365 27.952C81.2825 28.2507 81.0562 28.5167 80.7575 28.75C80.4635 28.9833 80.0995 29.17 79.6655 29.31C79.2362 29.4547 78.7462 29.527 78.1955 29.527C77.6542 29.527 77.1828 29.4733 76.7815 29.366C76.3802 29.2633 76.0465 29.1233 75.7805 28.946C75.5145 28.7733 75.3162 28.5727 75.1855 28.344C75.0548 28.1153 74.9895 27.8773 74.9895 27.63C74.9895 27.294 75.0898 27.014 75.2905 26.79C75.4958 26.5613 75.7758 26.3793 76.1305 26.244C75.9392 26.146 75.7875 26.0153 75.6755 25.852C75.5635 25.6887 75.5075 25.474 75.5075 25.208C75.5075 25.1007 75.5262 24.991 75.5635 24.879C75.6055 24.7623 75.6638 24.648 75.7385 24.536C75.8178 24.424 75.9158 24.319 76.0325 24.221C76.1492 24.1183 76.2868 24.0273 76.4455 23.948C76.0815 23.752 75.7945 23.4907 75.5845 23.164C75.3792 22.8373 75.2765 22.4547 75.2765 22.016C75.2765 21.6613 75.3465 21.3417 75.4865 21.057C75.6312 20.7677 75.8295 20.5227 76.0815 20.322C76.3382 20.1167 76.6392 19.9603 76.9845 19.853C77.3345 19.7457 77.7148 19.692 78.1255 19.692C78.4335 19.692 78.7228 19.7247 78.9935 19.79C79.2642 19.8507 79.5115 19.9417 79.7355 20.063H81.8005ZM85.9519 19.706C86.4839 19.706 86.9669 19.7923 87.4009 19.965C87.8396 20.1377 88.2129 20.3827 88.5209 20.7C88.8336 21.0173 89.0739 21.4047 89.2419 21.862C89.4099 22.3193 89.4939 22.8303 89.4939 23.395C89.4939 23.9643 89.4099 24.4777 89.2419 24.935C89.0739 25.3923 88.8336 25.782 88.5209 26.104C88.2129 26.426 87.8396 26.6733 87.4009 26.846C86.9669 27.0187 86.4839 27.105 85.9519 27.105C85.4153 27.105 84.9276 27.0187 84.4889 26.846C84.0503 26.6733 83.6746 26.426 83.3619 26.104C83.0539 25.782 82.8136 25.3923 82.6409 24.935C82.4729 24.4777 82.3889 23.9643 82.3889 23.395C82.3889 22.8303 82.4729 22.3193 82.6409 21.862C82.8136 21.4047 83.0539 21.0173 83.3619 20.7C83.6746 20.3827 84.0503 20.1377 84.4889 19.965C84.9276 19.7923 85.4153 19.706 85.9519 19.706ZM85.9519 25.775C86.5493 25.775 86.9903 25.5743 87.2749 25.173C87.5643 24.7717 87.7089 24.1837 87.7089 23.409C87.7089 22.6343 87.5643 22.044 87.2749 21.638C86.9903 21.232 86.5493 21.029 85.9519 21.029C85.3453 21.029 84.8949 21.2343 84.6009 21.645C84.3116 22.051 84.1669 22.639 84.1669 23.409C84.1669 24.179 84.3116 24.767 84.6009 25.173C84.8949 25.5743 85.3453 25.775 85.9519 25.775ZM92.444 21.064C92.668 20.6347 92.934 20.2987 93.242 20.056C93.55 19.8087 93.914 19.685 94.334 19.685C94.6653 19.685 94.9313 19.7573 95.132 19.902L95.02 21.197C94.9967 21.281 94.9617 21.3417 94.915 21.379C94.873 21.4117 94.8147 21.428 94.74 21.428C94.67 21.428 94.565 21.4163 94.425 21.393C94.2897 21.3697 94.1567 21.358 94.026 21.358C93.8347 21.358 93.6643 21.386 93.515 21.442C93.3657 21.498 93.2303 21.5797 93.109 21.687C92.9923 21.7897 92.8873 21.9157 92.794 22.065C92.7053 22.2143 92.6213 22.3847 92.542 22.576V27H90.813V19.818H91.828C92.0053 19.818 92.129 19.8507 92.199 19.916C92.269 19.9767 92.3157 20.0887 92.339 20.252L92.444 21.064ZM99.7339 23.934C99.2346 23.9573 98.8146 24.0017 98.4739 24.067C98.1333 24.1277 97.8603 24.207 97.6549 24.305C97.4496 24.403 97.3026 24.5173 97.2139 24.648C97.1253 24.7787 97.0809 24.921 97.0809 25.075C97.0809 25.3783 97.1696 25.5953 97.3469 25.726C97.5289 25.8567 97.7646 25.922 98.0539 25.922C98.4086 25.922 98.7143 25.859 98.9709 25.733C99.2323 25.6023 99.4866 25.4063 99.7339 25.145V23.934ZM95.7719 20.819C96.5979 20.063 97.5919 19.685 98.7539 19.685C99.1739 19.685 99.5496 19.755 99.8809 19.895C100.212 20.0303 100.492 20.2217 100.721 20.469C100.95 20.7117 101.122 21.0033 101.239 21.344C101.36 21.6847 101.421 22.058 101.421 22.464V27H100.637C100.474 27 100.348 26.9767 100.259 26.93C100.17 26.8787 100.1 26.7783 100.049 26.629L99.8949 26.111C99.7129 26.2743 99.5356 26.419 99.3629 26.545C99.1903 26.6663 99.0106 26.769 98.8239 26.853C98.6373 26.937 98.4366 27 98.2219 27.042C98.0119 27.0887 97.7786 27.112 97.5219 27.112C97.2186 27.112 96.9386 27.0723 96.6819 26.993C96.4253 26.909 96.2036 26.7853 96.0169 26.622C95.8303 26.4587 95.6856 26.2557 95.5829 26.013C95.4803 25.7703 95.4289 25.488 95.4289 25.166C95.4289 24.984 95.4593 24.8043 95.5199 24.627C95.5806 24.445 95.6786 24.2723 95.8139 24.109C95.9539 23.9457 96.1336 23.7917 96.3529 23.647C96.5723 23.5023 96.8406 23.3763 97.1579 23.269C97.4799 23.1617 97.8533 23.0753 98.2779 23.01C98.7026 22.94 99.1879 22.898 99.7339 22.884V22.464C99.7339 21.9833 99.6313 21.6287 99.4259 21.4C99.2206 21.1667 98.9243 21.05 98.5369 21.05C98.2569 21.05 98.0236 21.0827 97.8369 21.148C97.6549 21.2133 97.4939 21.288 97.3539 21.372C97.2139 21.4513 97.0856 21.5237 96.9689 21.589C96.8569 21.6543 96.7309 21.687 96.5909 21.687C96.4696 21.687 96.3669 21.6567 96.2829 21.596C96.1989 21.5307 96.1313 21.456 96.0799 21.372L95.7719 20.819Z" fill="white"/>
</svg>
