<svg width="532" height="118" viewBox="0 0 532 118" fill="none" xmlns="http://www.w3.org/2000/svg">
<circle cx="36" cy="38" r="36" fill="#4DA167"/>
<path d="M19.2 38L33.6 50L52.8 26" stroke="white" stroke-width="4.8"/>
<path d="M18.7676 92.967C19.1129 92.967 19.4139 92.925 19.6706 92.841C19.9273 92.7523 20.1396 92.6287 20.3076 92.47C20.4803 92.3067 20.6086 92.1107 20.6926 91.882C20.7766 91.6487 20.8186 91.3897 20.8186 91.105C20.8186 90.8343 20.7766 90.5893 20.6926 90.37C20.6086 90.1507 20.4826 89.964 20.3146 89.81C20.1466 89.656 19.9343 89.5393 19.6776 89.46C19.4209 89.376 19.1176 89.334 18.7676 89.334H17.3606V92.967H18.7676ZM18.7676 87.878C19.4443 87.878 20.0299 87.9573 20.5246 88.116C21.0193 88.2747 21.4276 88.4963 21.7496 88.781C22.0716 89.0657 22.3096 89.4063 22.4636 89.803C22.6223 90.1997 22.7016 90.6337 22.7016 91.105C22.7016 91.595 22.6199 92.0453 22.4566 92.456C22.2933 92.862 22.0483 93.212 21.7216 93.506C21.3949 93.8 20.9843 94.0287 20.4896 94.192C19.9996 94.3553 19.4256 94.437 18.7676 94.437H17.3606V98H15.4776V87.878H18.7676ZM28.1714 93.583C28.1714 93.359 28.1388 93.149 28.0734 92.953C28.0128 92.7523 27.9194 92.5773 27.7934 92.428C27.6674 92.2787 27.5064 92.162 27.3104 92.078C27.1191 91.9893 26.8951 91.945 26.6384 91.945C26.1391 91.945 25.7448 92.0873 25.4554 92.372C25.1708 92.6567 24.9888 93.0603 24.9094 93.583H28.1714ZM24.8744 94.626C24.9024 94.9947 24.9678 95.3143 25.0704 95.585C25.1731 95.851 25.3084 96.0727 25.4764 96.25C25.6444 96.4227 25.8428 96.5533 26.0714 96.642C26.3048 96.726 26.5614 96.768 26.8414 96.768C27.1214 96.768 27.3618 96.7353 27.5624 96.67C27.7678 96.6047 27.9451 96.5323 28.0944 96.453C28.2484 96.3737 28.3814 96.3013 28.4934 96.236C28.6101 96.1707 28.7221 96.138 28.8294 96.138C28.9741 96.138 29.0814 96.1917 29.1514 96.299L29.6484 96.929C29.4571 97.153 29.2424 97.342 29.0044 97.496C28.7664 97.6453 28.5168 97.7667 28.2554 97.86C27.9988 97.9487 27.7351 98.0117 27.4644 98.049C27.1984 98.0863 26.9394 98.105 26.6874 98.105C26.1881 98.105 25.7238 98.0233 25.2944 97.86C24.8651 97.692 24.4918 97.447 24.1744 97.125C23.8571 96.7983 23.6074 96.397 23.4254 95.921C23.2434 95.4403 23.1524 94.885 23.1524 94.255C23.1524 93.765 23.2318 93.3053 23.3904 92.876C23.5491 92.442 23.7754 92.0663 24.0694 91.749C24.3681 91.427 24.7298 91.1727 25.1544 90.986C25.5838 90.7993 26.0668 90.706 26.6034 90.706C27.0561 90.706 27.4738 90.7783 27.8564 90.923C28.2391 91.0677 28.5681 91.28 28.8434 91.56C29.1188 91.8353 29.3334 92.176 29.4874 92.582C29.6461 92.9833 29.7254 93.443 29.7254 93.961C29.7254 94.2223 29.6974 94.3997 29.6414 94.493C29.5854 94.5817 29.4781 94.626 29.3194 94.626H24.8744ZM35.5309 92.652C35.3349 92.414 35.1203 92.246 34.8869 92.148C34.6583 92.05 34.4109 92.001 34.1449 92.001C33.8836 92.001 33.6479 92.05 33.4379 92.148C33.2279 92.246 33.0483 92.3953 32.8989 92.596C32.7496 92.792 32.6353 93.044 32.5559 93.352C32.4766 93.6553 32.4369 94.0147 32.4369 94.43C32.4369 94.85 32.4696 95.207 32.5349 95.501C32.6049 95.7903 32.7029 96.0283 32.8289 96.215C32.9549 96.397 33.1089 96.53 33.2909 96.614C33.4729 96.6933 33.6759 96.733 33.8999 96.733C34.2593 96.733 34.5649 96.6583 34.8169 96.509C35.0689 96.3597 35.3069 96.1473 35.5309 95.872V92.652ZM37.2599 87.598V98H36.2029C35.9743 98 35.8296 97.895 35.7689 97.685L35.6219 96.992C35.3326 97.3233 34.9989 97.5917 34.6209 97.797C34.2476 98.0023 33.8113 98.105 33.3119 98.105C32.9199 98.105 32.5606 98.0233 32.2339 97.86C31.9073 97.6967 31.6249 97.461 31.3869 97.153C31.1536 96.8403 30.9716 96.4553 30.8409 95.998C30.7149 95.5407 30.6519 95.018 30.6519 94.43C30.6519 93.898 30.7243 93.4033 30.8689 92.946C31.0136 92.4887 31.2213 92.092 31.4919 91.756C31.7626 91.42 32.0869 91.1587 32.4649 90.972C32.8429 90.7807 33.2676 90.685 33.7389 90.685C34.1403 90.685 34.4833 90.748 34.7679 90.874C35.0526 91 35.3069 91.1703 35.5309 91.385V87.598H37.2599ZM40.7583 90.818V98H39.0223V90.818H40.7583ZM40.9963 88.725C40.9963 88.8743 40.966 89.0143 40.9053 89.145C40.8446 89.2757 40.763 89.39 40.6603 89.488C40.5623 89.586 40.4456 89.6653 40.3103 89.726C40.175 89.782 40.0303 89.81 39.8763 89.81C39.727 89.81 39.5846 89.782 39.4493 89.726C39.3186 89.6653 39.2043 89.586 39.1063 89.488C39.0083 89.39 38.929 89.2757 38.8683 89.145C38.8123 89.0143 38.7843 88.8743 38.7843 88.725C38.7843 88.571 38.8123 88.4263 38.8683 88.291C38.929 88.1557 39.0083 88.039 39.1063 87.941C39.2043 87.843 39.3186 87.766 39.4493 87.71C39.5846 87.6493 39.727 87.619 39.8763 87.619C40.0303 87.619 40.175 87.6493 40.3103 87.71C40.4456 87.766 40.5623 87.843 40.6603 87.941C40.763 88.039 40.8446 88.1557 40.9053 88.291C40.966 88.4263 40.9963 88.571 40.9963 88.725ZM47.029 92.652C46.833 92.414 46.6183 92.246 46.385 92.148C46.1563 92.05 45.909 92.001 45.643 92.001C45.3817 92.001 45.146 92.05 44.936 92.148C44.726 92.246 44.5463 92.3953 44.397 92.596C44.2477 92.792 44.1333 93.044 44.054 93.352C43.9747 93.6553 43.935 94.0147 43.935 94.43C43.935 94.85 43.9677 95.207 44.033 95.501C44.103 95.7903 44.201 96.0283 44.327 96.215C44.453 96.397 44.607 96.53 44.789 96.614C44.971 96.6933 45.174 96.733 45.398 96.733C45.7573 96.733 46.063 96.6583 46.315 96.509C46.567 96.3597 46.805 96.1473 47.029 95.872V92.652ZM48.758 87.598V98H47.701C47.4723 98 47.3277 97.895 47.267 97.685L47.12 96.992C46.8307 97.3233 46.497 97.5917 46.119 97.797C45.7457 98.0023 45.3093 98.105 44.81 98.105C44.418 98.105 44.0587 98.0233 43.732 97.86C43.4053 97.6967 43.123 97.461 42.885 97.153C42.6517 96.8403 42.4697 96.4553 42.339 95.998C42.213 95.5407 42.15 95.018 42.15 94.43C42.15 93.898 42.2223 93.4033 42.367 92.946C42.5117 92.4887 42.7193 92.092 42.99 91.756C43.2607 91.42 43.585 91.1587 43.963 90.972C44.341 90.7807 44.7657 90.685 45.237 90.685C45.6383 90.685 45.9813 90.748 46.266 90.874C46.5507 91 46.805 91.1703 47.029 91.385V87.598H48.758ZM53.6424 90.706C54.1744 90.706 54.6574 90.7923 55.0914 90.965C55.53 91.1377 55.9034 91.3827 56.2114 91.7C56.524 92.0173 56.7644 92.4047 56.9324 92.862C57.1004 93.3193 57.1844 93.8303 57.1844 94.395C57.1844 94.9643 57.1004 95.4777 56.9324 95.935C56.7644 96.3923 56.524 96.782 56.2114 97.104C55.9034 97.426 55.53 97.6733 55.0914 97.846C54.6574 98.0187 54.1744 98.105 53.6424 98.105C53.1057 98.105 52.618 98.0187 52.1794 97.846C51.7407 97.6733 51.365 97.426 51.0524 97.104C50.7444 96.782 50.504 96.3923 50.3314 95.935C50.1634 95.4777 50.0794 94.9643 50.0794 94.395C50.0794 93.8303 50.1634 93.3193 50.3314 92.862C50.504 92.4047 50.7444 92.0173 51.0524 91.7C51.365 91.3827 51.7407 91.1377 52.1794 90.965C52.618 90.7923 53.1057 90.706 53.6424 90.706ZM53.6424 96.775C54.2397 96.775 54.6807 96.5743 54.9654 96.173C55.2547 95.7717 55.3994 95.1837 55.3994 94.409C55.3994 93.6343 55.2547 93.044 54.9654 92.638C54.6807 92.232 54.2397 92.029 53.6424 92.029C53.0357 92.029 52.5854 92.2343 52.2914 92.645C52.002 93.051 51.8574 93.639 51.8574 94.409C51.8574 95.179 52.002 95.767 52.2914 96.173C52.5854 96.5743 53.0357 96.775 53.6424 96.775ZM11.3862 109.694C11.7409 109.694 12.0489 109.65 12.3102 109.561C12.5762 109.472 12.7932 109.351 12.9612 109.197C13.1339 109.038 13.2622 108.852 13.3462 108.637C13.4302 108.422 13.4722 108.187 13.4722 107.93C13.4722 107.417 13.3019 107.022 12.9612 106.747C12.6252 106.472 12.1095 106.334 11.4142 106.334H10.2102V109.694H11.3862ZM16.2302 115H14.5292C14.2072 115 13.9739 114.874 13.8292 114.622L11.7012 111.381C11.6219 111.26 11.5332 111.173 11.4352 111.122C11.3419 111.071 11.2019 111.045 11.0152 111.045H10.2102V115H8.3272V104.878H11.4142C12.1002 104.878 12.6882 104.95 13.1782 105.095C13.6729 105.235 14.0765 105.433 14.3892 105.69C14.7065 105.947 14.9399 106.255 15.0892 106.614C15.2385 106.969 15.3132 107.361 15.3132 107.79C15.3132 108.131 15.2619 108.453 15.1592 108.756C15.0612 109.059 14.9165 109.335 14.7252 109.582C14.5385 109.829 14.3052 110.046 14.0252 110.233C13.7499 110.42 13.4349 110.567 13.0802 110.674C13.2015 110.744 13.3135 110.828 13.4162 110.926C13.5189 111.019 13.6122 111.131 13.6962 111.262L16.2302 115ZM21.2124 110.583C21.2124 110.359 21.1798 110.149 21.1144 109.953C21.0538 109.752 20.9604 109.577 20.8344 109.428C20.7084 109.279 20.5474 109.162 20.3514 109.078C20.1601 108.989 19.9361 108.945 19.6794 108.945C19.1801 108.945 18.7858 109.087 18.4964 109.372C18.2118 109.657 18.0298 110.06 17.9504 110.583H21.2124ZM17.9154 111.626C17.9434 111.995 18.0088 112.314 18.1114 112.585C18.2141 112.851 18.3494 113.073 18.5174 113.25C18.6854 113.423 18.8838 113.553 19.1124 113.642C19.3458 113.726 19.6024 113.768 19.8824 113.768C20.1624 113.768 20.4028 113.735 20.6034 113.67C20.8088 113.605 20.9861 113.532 21.1354 113.453C21.2894 113.374 21.4224 113.301 21.5344 113.236C21.6511 113.171 21.7631 113.138 21.8704 113.138C22.0151 113.138 22.1224 113.192 22.1924 113.299L22.6894 113.929C22.4981 114.153 22.2834 114.342 22.0454 114.496C21.8074 114.645 21.5578 114.767 21.2964 114.86C21.0398 114.949 20.7761 115.012 20.5054 115.049C20.2394 115.086 19.9804 115.105 19.7284 115.105C19.2291 115.105 18.7648 115.023 18.3354 114.86C17.9061 114.692 17.5328 114.447 17.2154 114.125C16.8981 113.798 16.6484 113.397 16.4664 112.921C16.2844 112.44 16.1934 111.885 16.1934 111.255C16.1934 110.765 16.2728 110.305 16.4314 109.876C16.5901 109.442 16.8164 109.066 17.1104 108.749C17.4091 108.427 17.7708 108.173 18.1954 107.986C18.6248 107.799 19.1078 107.706 19.6444 107.706C20.0971 107.706 20.5148 107.778 20.8974 107.923C21.2801 108.068 21.6091 108.28 21.8844 108.56C22.1598 108.835 22.3744 109.176 22.5284 109.582C22.6871 109.983 22.7664 110.443 22.7664 110.961C22.7664 111.222 22.7384 111.4 22.6824 111.493C22.6264 111.582 22.5191 111.626 22.3604 111.626H17.9154ZM29.209 109.337C29.1576 109.402 29.1063 109.454 29.055 109.491C29.0083 109.528 28.9383 109.547 28.845 109.547C28.7563 109.547 28.67 109.521 28.586 109.47C28.502 109.414 28.4016 109.353 28.285 109.288C28.1683 109.218 28.0283 109.157 27.865 109.106C27.7063 109.05 27.508 109.022 27.27 109.022C26.9666 109.022 26.7006 109.078 26.472 109.19C26.2433 109.297 26.052 109.454 25.898 109.659C25.7486 109.864 25.6366 110.114 25.562 110.408C25.4873 110.697 25.45 111.026 25.45 111.395C25.45 111.778 25.4896 112.118 25.569 112.417C25.653 112.716 25.772 112.968 25.926 113.173C26.08 113.374 26.2666 113.528 26.486 113.635C26.7053 113.738 26.9526 113.789 27.228 113.789C27.5033 113.789 27.725 113.756 27.893 113.691C28.0656 113.621 28.2103 113.546 28.327 113.467C28.4436 113.383 28.544 113.308 28.628 113.243C28.7166 113.173 28.8146 113.138 28.922 113.138C29.062 113.138 29.167 113.192 29.237 113.299L29.734 113.929C29.5426 114.153 29.335 114.342 29.111 114.496C28.887 114.645 28.6536 114.767 28.411 114.86C28.173 114.949 27.9256 115.012 27.669 115.049C27.417 115.086 27.165 115.105 26.913 115.105C26.4696 115.105 26.052 115.023 25.66 114.86C25.268 114.692 24.925 114.449 24.631 114.132C24.337 113.815 24.1036 113.427 23.931 112.97C23.763 112.508 23.679 111.983 23.679 111.395C23.679 110.868 23.7536 110.38 23.903 109.932C24.057 109.479 24.281 109.09 24.575 108.763C24.869 108.432 25.233 108.173 25.667 107.986C26.101 107.799 26.6003 107.706 27.165 107.706C27.7016 107.706 28.1706 107.792 28.572 107.965C28.978 108.138 29.342 108.385 29.664 108.707L29.209 109.337ZM35.3218 110.583C35.3218 110.359 35.2892 110.149 35.2238 109.953C35.1632 109.752 35.0698 109.577 34.9438 109.428C34.8178 109.279 34.6568 109.162 34.4608 109.078C34.2695 108.989 34.0455 108.945 33.7888 108.945C33.2895 108.945 32.8952 109.087 32.6058 109.372C32.3212 109.657 32.1392 110.06 32.0598 110.583H35.3218ZM32.0248 111.626C32.0528 111.995 32.1182 112.314 32.2208 112.585C32.3235 112.851 32.4588 113.073 32.6268 113.25C32.7948 113.423 32.9932 113.553 33.2218 113.642C33.4552 113.726 33.7118 113.768 33.9918 113.768C34.2718 113.768 34.5122 113.735 34.7128 113.67C34.9182 113.605 35.0955 113.532 35.2448 113.453C35.3988 113.374 35.5318 113.301 35.6438 113.236C35.7605 113.171 35.8725 113.138 35.9798 113.138C36.1245 113.138 36.2318 113.192 36.3018 113.299L36.7988 113.929C36.6075 114.153 36.3928 114.342 36.1548 114.496C35.9168 114.645 35.6672 114.767 35.4058 114.86C35.1492 114.949 34.8855 115.012 34.6148 115.049C34.3488 115.086 34.0898 115.105 33.8378 115.105C33.3385 115.105 32.8742 115.023 32.4448 114.86C32.0155 114.692 31.6422 114.447 31.3248 114.125C31.0075 113.798 30.7578 113.397 30.5758 112.921C30.3938 112.44 30.3028 111.885 30.3028 111.255C30.3028 110.765 30.3822 110.305 30.5408 109.876C30.6995 109.442 30.9258 109.066 31.2198 108.749C31.5185 108.427 31.8802 108.173 32.3048 107.986C32.7342 107.799 33.2172 107.706 33.7538 107.706C34.2065 107.706 34.6242 107.778 35.0068 107.923C35.3895 108.068 35.7185 108.28 35.9938 108.56C36.2692 108.835 36.4838 109.176 36.6378 109.582C36.7965 109.983 36.8758 110.443 36.8758 110.961C36.8758 111.222 36.8478 111.4 36.7918 111.493C36.7358 111.582 36.6285 111.626 36.4698 111.626H32.0248ZM39.9023 113.138C40.0983 113.376 40.3107 113.544 40.5393 113.642C40.7727 113.74 41.0177 113.789 41.2743 113.789C41.5403 113.789 41.7783 113.742 41.9883 113.649C42.203 113.551 42.385 113.402 42.5343 113.201C42.6837 112.996 42.798 112.737 42.8773 112.424C42.9567 112.107 42.9963 111.729 42.9963 111.29C42.9963 110.501 42.8657 109.932 42.6043 109.582C42.343 109.227 41.9673 109.05 41.4773 109.05C41.146 109.05 40.8567 109.127 40.6093 109.281C40.362 109.43 40.1263 109.643 39.9023 109.918V113.138ZM39.9023 108.7C40.1917 108.397 40.5113 108.156 40.8613 107.979C41.216 107.797 41.6197 107.706 42.0723 107.706C42.4877 107.706 42.861 107.788 43.1923 107.951C43.5283 108.114 43.813 108.35 44.0463 108.658C44.2843 108.961 44.4663 109.33 44.5923 109.764C44.7183 110.198 44.7813 110.686 44.7813 111.227C44.7813 111.81 44.709 112.34 44.5643 112.816C44.4197 113.292 44.212 113.7 43.9413 114.041C43.6753 114.377 43.3533 114.638 42.9753 114.825C42.5973 115.012 42.1773 115.105 41.7153 115.105C41.4913 115.105 41.2883 115.082 41.1063 115.035C40.9243 114.993 40.7563 114.932 40.6023 114.853C40.4483 114.774 40.306 114.678 40.1753 114.566C40.0493 114.449 39.928 114.321 39.8113 114.181L39.7343 114.664C39.7063 114.785 39.6573 114.872 39.5873 114.923C39.522 114.974 39.431 115 39.3143 115H38.1733V104.598H39.9023V108.7ZM47.9087 107.818V115H46.1727V107.818H47.9087ZM48.1467 105.725C48.1467 105.874 48.1164 106.014 48.0557 106.145C47.995 106.276 47.9134 106.39 47.8107 106.488C47.7127 106.586 47.596 106.665 47.4607 106.726C47.3254 106.782 47.1807 106.81 47.0267 106.81C46.8774 106.81 46.735 106.782 46.5997 106.726C46.469 106.665 46.3547 106.586 46.2567 106.488C46.1587 106.39 46.0794 106.276 46.0187 106.145C45.9627 106.014 45.9347 105.874 45.9347 105.725C45.9347 105.571 45.9627 105.426 46.0187 105.291C46.0794 105.156 46.1587 105.039 46.2567 104.941C46.3547 104.843 46.469 104.766 46.5997 104.71C46.735 104.649 46.8774 104.619 47.0267 104.619C47.1807 104.619 47.3254 104.649 47.4607 104.71C47.596 104.766 47.7127 104.843 47.8107 104.941C47.9134 105.039 47.995 105.156 48.0557 105.291C48.1164 105.426 48.1467 105.571 48.1467 105.725ZM54.1794 109.652C53.9834 109.414 53.7687 109.246 53.5354 109.148C53.3067 109.05 53.0594 109.001 52.7934 109.001C52.532 109.001 52.2964 109.05 52.0864 109.148C51.8764 109.246 51.6967 109.395 51.5474 109.596C51.398 109.792 51.2837 110.044 51.2044 110.352C51.125 110.655 51.0854 111.015 51.0854 111.43C51.0854 111.85 51.118 112.207 51.1834 112.501C51.2534 112.79 51.3514 113.028 51.4774 113.215C51.6034 113.397 51.7574 113.53 51.9394 113.614C52.1214 113.693 52.3244 113.733 52.5484 113.733C52.9077 113.733 53.2134 113.658 53.4654 113.509C53.7174 113.36 53.9554 113.147 54.1794 112.872V109.652ZM55.9084 104.598V115H54.8514C54.6227 115 54.478 114.895 54.4174 114.685L54.2704 113.992C53.981 114.323 53.6474 114.592 53.2694 114.797C52.896 115.002 52.4597 115.105 51.9604 115.105C51.5684 115.105 51.209 115.023 50.8824 114.86C50.5557 114.697 50.2734 114.461 50.0354 114.153C49.802 113.84 49.62 113.455 49.4894 112.998C49.3634 112.541 49.3004 112.018 49.3004 111.43C49.3004 110.898 49.3727 110.403 49.5174 109.946C49.662 109.489 49.8697 109.092 50.1404 108.756C50.411 108.42 50.7354 108.159 51.1134 107.972C51.4914 107.781 51.916 107.685 52.3874 107.685C52.7887 107.685 53.1317 107.748 53.4164 107.874C53.701 108 53.9554 108.17 54.1794 108.385V104.598H55.9084ZM60.7927 107.706C61.3247 107.706 61.8077 107.792 62.2417 107.965C62.6804 108.138 63.0537 108.383 63.3617 108.7C63.6744 109.017 63.9147 109.405 64.0827 109.862C64.2507 110.319 64.3347 110.83 64.3347 111.395C64.3347 111.964 64.2507 112.478 64.0827 112.935C63.9147 113.392 63.6744 113.782 63.3617 114.104C63.0537 114.426 62.6804 114.673 62.2417 114.846C61.8077 115.019 61.3247 115.105 60.7927 115.105C60.2561 115.105 59.7684 115.019 59.3297 114.846C58.8911 114.673 58.5154 114.426 58.2027 114.104C57.8947 113.782 57.6544 113.392 57.4817 112.935C57.3137 112.478 57.2297 111.964 57.2297 111.395C57.2297 110.83 57.3137 110.319 57.4817 109.862C57.6544 109.405 57.8947 109.017 58.2027 108.7C58.5154 108.383 58.8911 108.138 59.3297 107.965C59.7684 107.792 60.2561 107.706 60.7927 107.706ZM60.7927 113.775C61.3901 113.775 61.8311 113.574 62.1157 113.173C62.4051 112.772 62.5497 112.184 62.5497 111.409C62.5497 110.634 62.4051 110.044 62.1157 109.638C61.8311 109.232 61.3901 109.029 60.7927 109.029C60.1861 109.029 59.7357 109.234 59.4417 109.645C59.1524 110.051 59.0077 110.639 59.0077 111.409C59.0077 112.179 59.1524 112.767 59.4417 113.173C59.7357 113.574 60.1861 113.775 60.7927 113.775Z" fill="#4DA167"/>
<circle cx="190" cy="38" r="36" fill="#4DA167"/>
<path d="M197.5 44C197.102 44 196.721 44.158 196.439 44.4393C196.158 44.7206 196 45.1022 196 45.5C196 45.8978 196.158 46.2794 196.439 46.5607C196.721 46.842 197.102 47 197.5 47H203.5C203.898 47 204.279 46.842 204.561 46.5607C204.842 46.2794 205 45.8978 205 45.5C205 45.1022 204.842 44.7206 204.561 44.4393C204.279 44.158 203.898 44 203.5 44H197.5Z" fill="white"/>
<path d="M169 29C169 27.4087 169.632 25.8826 170.757 24.7574C171.883 23.6321 173.409 23 175 23H205C206.591 23 208.117 23.6321 209.243 24.7574C210.368 25.8826 211 27.4087 211 29V47C211 48.5913 210.368 50.1174 209.243 51.2426C208.117 52.3679 206.591 53 205 53H175C173.409 53 171.883 52.3679 170.757 51.2426C169.632 50.1174 169 48.5913 169 47V29ZM208 29C208 28.2044 207.684 27.4413 207.121 26.8787C206.559 26.3161 205.796 26 205 26H175C174.204 26 173.441 26.3161 172.879 26.8787C172.316 27.4413 172 28.2044 172 29V32H208V29ZM172 47C172 47.7956 172.316 48.5587 172.879 49.1213C173.441 49.6839 174.204 50 175 50H205C205.796 50 206.559 49.6839 207.121 49.1213C207.684 48.5587 208 47.7956 208 47V35H172V47Z" fill="white"/>
<path d="M159.28 92.967C159.626 92.967 159.927 92.925 160.183 92.841C160.44 92.7523 160.652 92.6287 160.82 92.47C160.993 92.3067 161.121 92.1107 161.205 91.882C161.289 91.6487 161.331 91.3897 161.331 91.105C161.331 90.8343 161.289 90.5893 161.205 90.37C161.121 90.1507 160.995 89.964 160.827 89.81C160.659 89.656 160.447 89.5393 160.19 89.46C159.934 89.376 159.63 89.334 159.28 89.334H157.873V92.967H159.28ZM159.28 87.878C159.957 87.878 160.543 87.9573 161.037 88.116C161.532 88.2747 161.94 88.4963 162.262 88.781C162.584 89.0657 162.822 89.4063 162.976 89.803C163.135 90.1997 163.214 90.6337 163.214 91.105C163.214 91.595 163.133 92.0453 162.969 92.456C162.806 92.862 162.561 93.212 162.234 93.506C161.908 93.8 161.497 94.0287 161.002 94.192C160.512 94.3553 159.938 94.437 159.28 94.437H157.873V98H155.99V87.878H159.28ZM167.961 94.934C167.461 94.9573 167.041 95.0017 166.701 95.067C166.36 95.1277 166.087 95.207 165.882 95.305C165.676 95.403 165.529 95.5173 165.441 95.648C165.352 95.7787 165.308 95.921 165.308 96.075C165.308 96.3783 165.396 96.5953 165.574 96.726C165.756 96.8567 165.991 96.922 166.281 96.922C166.635 96.922 166.941 96.859 167.198 96.733C167.459 96.6023 167.713 96.4063 167.961 96.145V94.934ZM163.999 91.819C164.825 91.063 165.819 90.685 166.981 90.685C167.401 90.685 167.776 90.755 168.108 90.895C168.439 91.0303 168.719 91.2217 168.948 91.469C169.176 91.7117 169.349 92.0033 169.466 92.344C169.587 92.6847 169.648 93.058 169.648 93.464V98H168.864C168.7 98 168.574 97.9767 168.486 97.93C168.397 97.8787 168.327 97.7783 168.276 97.629L168.122 97.111C167.94 97.2743 167.762 97.419 167.59 97.545C167.417 97.6663 167.237 97.769 167.051 97.853C166.864 97.937 166.663 98 166.449 98.042C166.239 98.0887 166.005 98.112 165.749 98.112C165.445 98.112 165.165 98.0723 164.909 97.993C164.652 97.909 164.43 97.7853 164.244 97.622C164.057 97.4587 163.912 97.2557 163.81 97.013C163.707 96.7703 163.656 96.488 163.656 96.166C163.656 95.984 163.686 95.8043 163.747 95.627C163.807 95.445 163.905 95.2723 164.041 95.109C164.181 94.9457 164.36 94.7917 164.58 94.647C164.799 94.5023 165.067 94.3763 165.385 94.269C165.707 94.1617 166.08 94.0753 166.505 94.01C166.929 93.94 167.415 93.898 167.961 93.884V93.464C167.961 92.9833 167.858 92.6287 167.653 92.4C167.447 92.1667 167.151 92.05 166.764 92.05C166.484 92.05 166.25 92.0827 166.064 92.148C165.882 92.2133 165.721 92.288 165.581 92.372C165.441 92.4513 165.312 92.5237 165.196 92.589C165.084 92.6543 164.958 92.687 164.818 92.687C164.696 92.687 164.594 92.6567 164.51 92.596C164.426 92.5307 164.358 92.456 164.307 92.372L163.999 91.819ZM173.901 94.234C174.116 94.234 174.302 94.206 174.461 94.15C174.62 94.0893 174.75 94.0077 174.853 93.905C174.96 93.8023 175.04 93.6787 175.091 93.534C175.147 93.3893 175.175 93.2307 175.175 93.058C175.175 92.7033 175.068 92.4233 174.853 92.218C174.643 92.008 174.326 91.903 173.901 91.903C173.476 91.903 173.157 92.008 172.942 92.218C172.732 92.4233 172.627 92.7033 172.627 93.058C172.627 93.226 172.653 93.3823 172.704 93.527C172.76 93.6717 172.839 93.7977 172.942 93.905C173.049 94.0077 173.182 94.0893 173.341 94.15C173.504 94.206 173.691 94.234 173.901 94.234ZM175.854 98.322C175.854 98.182 175.812 98.0677 175.728 97.979C175.644 97.8903 175.53 97.8227 175.385 97.776C175.24 97.7247 175.07 97.6873 174.874 97.664C174.683 97.6407 174.477 97.6243 174.258 97.615C174.043 97.601 173.819 97.5893 173.586 97.58C173.357 97.5707 173.133 97.552 172.914 97.524C172.723 97.6313 172.566 97.7573 172.445 97.902C172.328 98.0467 172.27 98.2147 172.27 98.406C172.27 98.532 172.3 98.6487 172.361 98.756C172.426 98.868 172.527 98.9637 172.662 99.043C172.802 99.1223 172.982 99.183 173.201 99.225C173.42 99.2717 173.689 99.295 174.006 99.295C174.328 99.295 174.606 99.2693 174.839 99.218C175.072 99.1713 175.264 99.1037 175.413 99.015C175.567 98.931 175.679 98.8283 175.749 98.707C175.819 98.5903 175.854 98.462 175.854 98.322ZM177.576 91.063V91.707C177.576 91.9123 177.452 92.0383 177.205 92.085L176.561 92.204C176.659 92.4513 176.708 92.722 176.708 93.016C176.708 93.3707 176.636 93.6927 176.491 93.982C176.351 94.2667 176.155 94.5093 175.903 94.71C175.651 94.9107 175.352 95.067 175.007 95.179C174.666 95.2863 174.298 95.34 173.901 95.34C173.761 95.34 173.626 95.333 173.495 95.319C173.364 95.305 173.236 95.2863 173.11 95.263C172.886 95.3983 172.774 95.55 172.774 95.718C172.774 95.8627 172.839 95.97 172.97 96.04C173.105 96.1053 173.283 96.152 173.502 96.18C173.721 96.208 173.971 96.2267 174.251 96.236C174.531 96.2407 174.818 96.2547 175.112 96.278C175.406 96.3013 175.693 96.3433 175.973 96.404C176.253 96.46 176.503 96.551 176.722 96.677C176.941 96.803 177.116 96.9757 177.247 97.195C177.382 97.4097 177.45 97.6873 177.45 98.028C177.45 98.3453 177.371 98.6533 177.212 98.952C177.058 99.2507 176.832 99.5167 176.533 99.75C176.239 99.9833 175.875 100.17 175.441 100.31C175.012 100.455 174.522 100.527 173.971 100.527C173.43 100.527 172.958 100.473 172.557 100.366C172.156 100.263 171.822 100.123 171.556 99.946C171.29 99.7733 171.092 99.5727 170.961 99.344C170.83 99.1153 170.765 98.8773 170.765 98.63C170.765 98.294 170.865 98.014 171.066 97.79C171.271 97.5613 171.551 97.3793 171.906 97.244C171.715 97.146 171.563 97.0153 171.451 96.852C171.339 96.6887 171.283 96.474 171.283 96.208C171.283 96.1007 171.302 95.991 171.339 95.879C171.381 95.7623 171.439 95.648 171.514 95.536C171.593 95.424 171.691 95.319 171.808 95.221C171.925 95.1183 172.062 95.0273 172.221 94.948C171.857 94.752 171.57 94.4907 171.36 94.164C171.155 93.8373 171.052 93.4547 171.052 93.016C171.052 92.6613 171.122 92.3417 171.262 92.057C171.407 91.7677 171.605 91.5227 171.857 91.322C172.114 91.1167 172.415 90.9603 172.76 90.853C173.11 90.7457 173.49 90.692 173.901 90.692C174.209 90.692 174.498 90.7247 174.769 90.79C175.04 90.8507 175.287 90.9417 175.511 91.063H177.576ZM182.466 94.934C181.967 94.9573 181.547 95.0017 181.206 95.067C180.866 95.1277 180.593 95.207 180.387 95.305C180.182 95.403 180.035 95.5173 179.946 95.648C179.858 95.7787 179.813 95.921 179.813 96.075C179.813 96.3783 179.902 96.5953 180.079 96.726C180.261 96.8567 180.497 96.922 180.786 96.922C181.141 96.922 181.447 96.859 181.703 96.733C181.965 96.6023 182.219 96.4063 182.466 96.145V94.934ZM178.504 91.819C179.33 91.063 180.324 90.685 181.486 90.685C181.906 90.685 182.282 90.755 182.613 90.895C182.945 91.0303 183.225 91.2217 183.453 91.469C183.682 91.7117 183.855 92.0033 183.971 92.344C184.093 92.6847 184.153 93.058 184.153 93.464V98H183.369C183.206 98 183.08 97.9767 182.991 97.93C182.903 97.8787 182.833 97.7783 182.781 97.629L182.627 97.111C182.445 97.2743 182.268 97.419 182.095 97.545C181.923 97.6663 181.743 97.769 181.556 97.853C181.37 97.937 181.169 98 180.954 98.042C180.744 98.0887 180.511 98.112 180.254 98.112C179.951 98.112 179.671 98.0723 179.414 97.993C179.158 97.909 178.936 97.7853 178.749 97.622C178.563 97.4587 178.418 97.2557 178.315 97.013C178.213 96.7703 178.161 96.488 178.161 96.166C178.161 95.984 178.192 95.8043 178.252 95.627C178.313 95.445 178.411 95.2723 178.546 95.109C178.686 94.9457 178.866 94.7917 179.085 94.647C179.305 94.5023 179.573 94.3763 179.89 94.269C180.212 94.1617 180.586 94.0753 181.01 94.01C181.435 93.94 181.92 93.898 182.466 93.884V93.464C182.466 92.9833 182.364 92.6287 182.158 92.4C181.953 92.1667 181.657 92.05 181.269 92.05C180.989 92.05 180.756 92.0827 180.569 92.148C180.387 92.2133 180.226 92.288 180.086 92.372C179.946 92.4513 179.818 92.5237 179.701 92.589C179.589 92.6543 179.463 92.687 179.323 92.687C179.202 92.687 179.099 92.6567 179.015 92.596C178.931 92.5307 178.864 92.456 178.812 92.372L178.504 91.819ZM185.782 98V90.818H186.839C187.063 90.818 187.21 90.923 187.28 91.133L187.392 91.665C187.518 91.525 187.648 91.3967 187.784 91.28C187.924 91.1633 188.071 91.063 188.225 90.979C188.383 90.895 188.551 90.8297 188.729 90.783C188.911 90.7317 189.109 90.706 189.324 90.706C189.776 90.706 190.147 90.8297 190.437 91.077C190.731 91.3197 190.95 91.644 191.095 92.05C191.207 91.812 191.347 91.609 191.515 91.441C191.683 91.2683 191.867 91.1283 192.068 91.021C192.268 90.9137 192.481 90.8343 192.705 90.783C192.933 90.7317 193.162 90.706 193.391 90.706C193.787 90.706 194.14 90.7667 194.448 90.888C194.756 91.0093 195.015 91.1867 195.225 91.42C195.435 91.6533 195.593 91.938 195.701 92.274C195.813 92.61 195.869 92.995 195.869 93.429V98H194.14V93.429C194.14 92.9717 194.039 92.6287 193.839 92.4C193.638 92.1667 193.344 92.05 192.957 92.05C192.779 92.05 192.614 92.0803 192.46 92.141C192.31 92.2017 192.177 92.2903 192.061 92.407C191.949 92.519 191.86 92.6613 191.795 92.834C191.729 93.0067 191.697 93.205 191.697 93.429V98H189.961V93.429C189.961 92.9483 189.863 92.5983 189.667 92.379C189.475 92.1597 189.193 92.05 188.82 92.05C188.568 92.05 188.332 92.113 188.113 92.239C187.898 92.3603 187.697 92.5283 187.511 92.743V98H185.782ZM202.139 93.583C202.139 93.359 202.107 93.149 202.041 92.953C201.981 92.7523 201.887 92.5773 201.761 92.428C201.635 92.2787 201.474 92.162 201.278 92.078C201.087 91.9893 200.863 91.945 200.606 91.945C200.107 91.945 199.713 92.0873 199.423 92.372C199.139 92.6567 198.957 93.0603 198.877 93.583H202.139ZM198.842 94.626C198.87 94.9947 198.936 95.3143 199.038 95.585C199.141 95.851 199.276 96.0727 199.444 96.25C199.612 96.4227 199.811 96.5533 200.039 96.642C200.273 96.726 200.529 96.768 200.809 96.768C201.089 96.768 201.33 96.7353 201.53 96.67C201.736 96.6047 201.913 96.5323 202.062 96.453C202.216 96.3737 202.349 96.3013 202.461 96.236C202.578 96.1707 202.69 96.138 202.797 96.138C202.942 96.138 203.049 96.1917 203.119 96.299L203.616 96.929C203.425 97.153 203.21 97.342 202.972 97.496C202.734 97.6453 202.485 97.7667 202.223 97.86C201.967 97.9487 201.703 98.0117 201.432 98.049C201.166 98.0863 200.907 98.105 200.655 98.105C200.156 98.105 199.692 98.0233 199.262 97.86C198.833 97.692 198.46 97.447 198.142 97.125C197.825 96.7983 197.575 96.397 197.393 95.921C197.211 95.4403 197.12 94.885 197.12 94.255C197.12 93.765 197.2 93.3053 197.358 92.876C197.517 92.442 197.743 92.0663 198.037 91.749C198.336 91.427 198.698 91.1727 199.122 90.986C199.552 90.7993 200.035 90.706 200.571 90.706C201.024 90.706 201.442 90.7783 201.824 90.923C202.207 91.0677 202.536 91.28 202.811 91.56C203.087 91.8353 203.301 92.176 203.455 92.582C203.614 92.9833 203.693 93.443 203.693 93.961C203.693 94.2223 203.665 94.3997 203.609 94.493C203.553 94.5817 203.446 94.626 203.287 94.626H198.842ZM206.608 91.7C206.752 91.5553 206.904 91.4223 207.063 91.301C207.226 91.175 207.396 91.07 207.574 90.986C207.756 90.8973 207.949 90.8297 208.155 90.783C208.36 90.7317 208.584 90.706 208.827 90.706C209.219 90.706 209.566 90.7737 209.87 90.909C210.173 91.0397 210.425 91.2263 210.626 91.469C210.831 91.707 210.985 91.994 211.088 92.33C211.195 92.6613 211.249 93.0277 211.249 93.429V98H209.52V93.429C209.52 92.9903 209.419 92.652 209.219 92.414C209.018 92.1713 208.712 92.05 208.302 92.05C208.003 92.05 207.723 92.1177 207.462 92.253C207.2 92.3883 206.953 92.5727 206.72 92.806V98H204.991V90.818H206.048C206.272 90.818 206.419 90.923 206.489 91.133L206.608 91.7ZM215.191 98.112C214.566 98.112 214.085 97.937 213.749 97.587C213.418 97.2323 213.252 96.7447 213.252 96.124V92.113H212.517C212.424 92.113 212.345 92.0827 212.279 92.022C212.214 91.9613 212.181 91.8703 212.181 91.749V91.063L213.336 90.874L213.7 88.914C213.724 88.8207 213.768 88.7483 213.833 88.697C213.899 88.6457 213.983 88.62 214.085 88.62H214.981V90.881H216.899V92.113H214.981V96.005C214.981 96.229 215.035 96.404 215.142 96.53C215.254 96.656 215.406 96.719 215.597 96.719C215.705 96.719 215.793 96.7073 215.863 96.684C215.938 96.656 216.001 96.628 216.052 96.6C216.108 96.572 216.157 96.5463 216.199 96.523C216.241 96.495 216.283 96.481 216.325 96.481C216.377 96.481 216.419 96.495 216.451 96.523C216.484 96.5463 216.519 96.5837 216.556 96.635L217.074 97.475C216.822 97.685 216.533 97.8437 216.206 97.951C215.88 98.0583 215.541 98.112 215.191 98.112ZM221.13 90.706C221.662 90.706 222.145 90.7923 222.579 90.965C223.017 91.1377 223.391 91.3827 223.699 91.7C224.011 92.0173 224.252 92.4047 224.42 92.862C224.588 93.3193 224.672 93.8303 224.672 94.395C224.672 94.9643 224.588 95.4777 224.42 95.935C224.252 96.3923 224.011 96.782 223.699 97.104C223.391 97.426 223.017 97.6733 222.579 97.846C222.145 98.0187 221.662 98.105 221.13 98.105C220.593 98.105 220.105 98.0187 219.667 97.846C219.228 97.6733 218.852 97.426 218.54 97.104C218.232 96.782 217.991 96.3923 217.819 95.935C217.651 95.4777 217.567 94.9643 217.567 94.395C217.567 93.8303 217.651 93.3193 217.819 92.862C217.991 92.4047 218.232 92.0173 218.54 91.7C218.852 91.3827 219.228 91.1377 219.667 90.965C220.105 90.7923 220.593 90.706 221.13 90.706ZM221.13 96.775C221.727 96.775 222.168 96.5743 222.453 96.173C222.742 95.7717 222.887 95.1837 222.887 94.409C222.887 93.6343 222.742 93.044 222.453 92.638C222.168 92.232 221.727 92.029 221.13 92.029C220.523 92.029 220.073 92.2343 219.779 92.645C219.489 93.051 219.345 93.639 219.345 94.409C219.345 95.179 219.489 95.767 219.779 96.173C220.073 96.5743 220.523 96.775 221.13 96.775ZM161.39 112.613C161.492 112.613 161.583 112.653 161.663 112.732L162.405 113.537C161.994 114.046 161.488 114.435 160.886 114.706C160.288 114.977 159.57 115.112 158.73 115.112C157.978 115.112 157.302 114.984 156.7 114.727C156.102 114.47 155.591 114.113 155.167 113.656C154.742 113.199 154.415 112.653 154.187 112.018C153.963 111.383 153.851 110.69 153.851 109.939C153.851 109.178 153.972 108.483 154.215 107.853C154.457 107.218 154.798 106.672 155.237 106.215C155.68 105.758 156.207 105.403 156.819 105.151C157.43 104.894 158.107 104.766 158.849 104.766C159.586 104.766 160.239 104.887 160.809 105.13C161.383 105.373 161.87 105.69 162.272 106.082L161.642 106.957C161.604 107.013 161.555 107.062 161.495 107.104C161.439 107.146 161.359 107.167 161.257 107.167C161.187 107.167 161.114 107.148 161.04 107.111C160.965 107.069 160.883 107.02 160.795 106.964C160.706 106.903 160.603 106.838 160.487 106.768C160.37 106.698 160.235 106.635 160.081 106.579C159.927 106.518 159.747 106.469 159.542 106.432C159.341 106.39 159.108 106.369 158.842 106.369C158.389 106.369 157.974 106.451 157.596 106.614C157.222 106.773 156.9 107.006 156.63 107.314C156.359 107.617 156.149 107.991 156 108.434C155.85 108.873 155.776 109.374 155.776 109.939C155.776 110.508 155.855 111.015 156.014 111.458C156.177 111.901 156.396 112.275 156.672 112.578C156.947 112.881 157.271 113.115 157.645 113.278C158.018 113.437 158.419 113.516 158.849 113.516C159.105 113.516 159.336 113.502 159.542 113.474C159.752 113.446 159.943 113.402 160.116 113.341C160.293 113.28 160.459 113.203 160.613 113.11C160.771 113.012 160.928 112.893 161.082 112.753C161.128 112.711 161.177 112.678 161.229 112.655C161.28 112.627 161.334 112.613 161.39 112.613ZM166.449 107.706C166.981 107.706 167.464 107.792 167.898 107.965C168.337 108.138 168.71 108.383 169.018 108.7C169.331 109.017 169.571 109.405 169.739 109.862C169.907 110.319 169.991 110.83 169.991 111.395C169.991 111.964 169.907 112.478 169.739 112.935C169.571 113.392 169.331 113.782 169.018 114.104C168.71 114.426 168.337 114.673 167.898 114.846C167.464 115.019 166.981 115.105 166.449 115.105C165.912 115.105 165.425 115.019 164.986 114.846C164.547 114.673 164.172 114.426 163.859 114.104C163.551 113.782 163.311 113.392 163.138 112.935C162.97 112.478 162.886 111.964 162.886 111.395C162.886 110.83 162.97 110.319 163.138 109.862C163.311 109.405 163.551 109.017 163.859 108.7C164.172 108.383 164.547 108.138 164.986 107.965C165.425 107.792 165.912 107.706 166.449 107.706ZM166.449 113.775C167.046 113.775 167.487 113.574 167.772 113.173C168.061 112.772 168.206 112.184 168.206 111.409C168.206 110.634 168.061 110.044 167.772 109.638C167.487 109.232 167.046 109.029 166.449 109.029C165.842 109.029 165.392 109.234 165.098 109.645C164.809 110.051 164.664 110.639 164.664 111.409C164.664 112.179 164.809 112.767 165.098 113.173C165.392 113.574 165.842 113.775 166.449 113.775ZM172.927 108.7C173.072 108.555 173.223 108.422 173.382 108.301C173.545 108.175 173.716 108.07 173.893 107.986C174.075 107.897 174.269 107.83 174.474 107.783C174.679 107.732 174.903 107.706 175.146 107.706C175.538 107.706 175.886 107.774 176.189 107.909C176.492 108.04 176.744 108.226 176.945 108.469C177.15 108.707 177.304 108.994 177.407 109.33C177.514 109.661 177.568 110.028 177.568 110.429V115H175.839V110.429C175.839 109.99 175.739 109.652 175.538 109.414C175.337 109.171 175.032 109.05 174.621 109.05C174.322 109.05 174.042 109.118 173.781 109.253C173.52 109.388 173.272 109.573 173.039 109.806V115H171.31V107.818H172.367C172.591 107.818 172.738 107.923 172.808 108.133L172.927 108.7ZM179.6 115V109.12L178.977 109.022C178.842 108.994 178.732 108.947 178.648 108.882C178.569 108.812 178.529 108.714 178.529 108.588V107.881H179.6V107.65C179.6 107.211 179.673 106.805 179.817 106.432C179.962 106.054 180.181 105.727 180.475 105.452C180.769 105.177 181.14 104.962 181.588 104.808C182.041 104.649 182.573 104.57 183.184 104.57C183.38 104.57 183.579 104.582 183.779 104.605C183.985 104.624 184.162 104.656 184.311 104.703L184.255 105.599C184.246 105.706 184.188 105.772 184.08 105.795C183.973 105.814 183.84 105.823 183.681 105.823C183.229 105.823 182.848 105.863 182.54 105.942C182.237 106.021 181.99 106.14 181.798 106.299C181.612 106.453 181.476 106.649 181.392 106.887C181.313 107.12 181.273 107.393 181.273 107.706V107.881H185.725V115H183.996V109.113H181.329V115H179.6ZM189.129 109.064C189.353 108.635 189.619 108.299 189.927 108.056C190.235 107.809 190.599 107.685 191.019 107.685C191.35 107.685 191.616 107.757 191.817 107.902L191.705 109.197C191.681 109.281 191.646 109.342 191.6 109.379C191.558 109.412 191.499 109.428 191.425 109.428C191.355 109.428 191.25 109.416 191.11 109.393C190.974 109.37 190.841 109.358 190.711 109.358C190.519 109.358 190.349 109.386 190.2 109.442C190.05 109.498 189.915 109.58 189.794 109.687C189.677 109.79 189.572 109.916 189.479 110.065C189.39 110.214 189.306 110.385 189.227 110.576V115H187.498V107.818H188.513C188.69 107.818 188.814 107.851 188.884 107.916C188.954 107.977 189 108.089 189.024 108.252L189.129 109.064ZM192.72 115V107.818H193.777C194.001 107.818 194.148 107.923 194.218 108.133L194.33 108.665C194.456 108.525 194.587 108.397 194.722 108.28C194.862 108.163 195.009 108.063 195.163 107.979C195.322 107.895 195.49 107.83 195.667 107.783C195.849 107.732 196.048 107.706 196.262 107.706C196.715 107.706 197.086 107.83 197.375 108.077C197.669 108.32 197.889 108.644 198.033 109.05C198.145 108.812 198.285 108.609 198.453 108.441C198.621 108.268 198.806 108.128 199.006 108.021C199.207 107.914 199.419 107.834 199.643 107.783C199.872 107.732 200.101 107.706 200.329 107.706C200.726 107.706 201.078 107.767 201.386 107.888C201.694 108.009 201.953 108.187 202.163 108.42C202.373 108.653 202.532 108.938 202.639 109.274C202.751 109.61 202.807 109.995 202.807 110.429V115H201.078V110.429C201.078 109.972 200.978 109.629 200.777 109.4C200.577 109.167 200.283 109.05 199.895 109.05C199.718 109.05 199.552 109.08 199.398 109.141C199.249 109.202 199.116 109.29 198.999 109.407C198.887 109.519 198.799 109.661 198.733 109.834C198.668 110.007 198.635 110.205 198.635 110.429V115H196.899V110.429C196.899 109.948 196.801 109.598 196.605 109.379C196.414 109.16 196.132 109.05 195.758 109.05C195.506 109.05 195.271 109.113 195.051 109.239C194.837 109.36 194.636 109.528 194.449 109.743V115H192.72ZM208.245 111.934C207.745 111.957 207.325 112.002 206.985 112.067C206.644 112.128 206.371 112.207 206.166 112.305C205.96 112.403 205.813 112.517 205.725 112.648C205.636 112.779 205.592 112.921 205.592 113.075C205.592 113.378 205.68 113.595 205.858 113.726C206.04 113.857 206.275 113.922 206.565 113.922C206.919 113.922 207.225 113.859 207.482 113.733C207.743 113.602 207.997 113.406 208.245 113.145V111.934ZM204.283 108.819C205.109 108.063 206.103 107.685 207.265 107.685C207.685 107.685 208.06 107.755 208.392 107.895C208.723 108.03 209.003 108.222 209.232 108.469C209.46 108.712 209.633 109.003 209.75 109.344C209.871 109.685 209.932 110.058 209.932 110.464V115H209.148C208.984 115 208.858 114.977 208.77 114.93C208.681 114.879 208.611 114.778 208.56 114.629L208.406 114.111C208.224 114.274 208.046 114.419 207.874 114.545C207.701 114.666 207.521 114.769 207.335 114.853C207.148 114.937 206.947 115 206.733 115.042C206.523 115.089 206.289 115.112 206.033 115.112C205.729 115.112 205.449 115.072 205.193 114.993C204.936 114.909 204.714 114.785 204.528 114.622C204.341 114.459 204.196 114.256 204.094 114.013C203.991 113.77 203.94 113.488 203.94 113.166C203.94 112.984 203.97 112.804 204.031 112.627C204.091 112.445 204.189 112.272 204.325 112.109C204.465 111.946 204.644 111.792 204.864 111.647C205.083 111.502 205.351 111.376 205.669 111.269C205.991 111.162 206.364 111.075 206.789 111.01C207.213 110.94 207.699 110.898 208.245 110.884V110.464C208.245 109.983 208.142 109.629 207.937 109.4C207.731 109.167 207.435 109.05 207.048 109.05C206.768 109.05 206.534 109.083 206.348 109.148C206.166 109.213 206.005 109.288 205.865 109.372C205.725 109.451 205.596 109.524 205.48 109.589C205.368 109.654 205.242 109.687 205.102 109.687C204.98 109.687 204.878 109.657 204.794 109.596C204.71 109.531 204.642 109.456 204.591 109.372L204.283 108.819ZM216.068 109.652C215.872 109.414 215.657 109.246 215.424 109.148C215.195 109.05 214.948 109.001 214.682 109.001C214.421 109.001 214.185 109.05 213.975 109.148C213.765 109.246 213.585 109.395 213.436 109.596C213.287 109.792 213.172 110.044 213.093 110.352C213.014 110.655 212.974 111.015 212.974 111.43C212.974 111.85 213.007 112.207 213.072 112.501C213.142 112.79 213.24 113.028 213.366 113.215C213.492 113.397 213.646 113.53 213.828 113.614C214.01 113.693 214.213 113.733 214.437 113.733C214.796 113.733 215.102 113.658 215.354 113.509C215.606 113.36 215.844 113.147 216.068 112.872V109.652ZM217.797 104.598V115H216.74C216.511 115 216.367 114.895 216.306 114.685L216.159 113.992C215.87 114.323 215.536 114.592 215.158 114.797C214.785 115.002 214.348 115.105 213.849 115.105C213.457 115.105 213.098 115.023 212.771 114.86C212.444 114.697 212.162 114.461 211.924 114.153C211.691 113.84 211.509 113.455 211.378 112.998C211.252 112.541 211.189 112.018 211.189 111.43C211.189 110.898 211.261 110.403 211.406 109.946C211.551 109.489 211.758 109.092 212.029 108.756C212.3 108.42 212.624 108.159 213.002 107.972C213.38 107.781 213.805 107.685 214.276 107.685C214.677 107.685 215.02 107.748 215.305 107.874C215.59 108 215.844 108.17 216.068 108.385V104.598H217.797ZM222.681 107.706C223.213 107.706 223.696 107.792 224.13 107.965C224.569 108.138 224.942 108.383 225.25 108.7C225.563 109.017 225.803 109.405 225.971 109.862C226.139 110.319 226.223 110.83 226.223 111.395C226.223 111.964 226.139 112.478 225.971 112.935C225.803 113.392 225.563 113.782 225.25 114.104C224.942 114.426 224.569 114.673 224.13 114.846C223.696 115.019 223.213 115.105 222.681 115.105C222.145 115.105 221.657 115.019 221.218 114.846C220.78 114.673 220.404 114.426 220.091 114.104C219.783 113.782 219.543 113.392 219.37 112.935C219.202 112.478 219.118 111.964 219.118 111.395C219.118 110.83 219.202 110.319 219.37 109.862C219.543 109.405 219.783 109.017 220.091 108.7C220.404 108.383 220.78 108.138 221.218 107.965C221.657 107.792 222.145 107.706 222.681 107.706ZM222.681 113.775C223.279 113.775 223.72 113.574 224.004 113.173C224.294 112.772 224.438 112.184 224.438 111.409C224.438 110.634 224.294 110.044 224.004 109.638C223.72 109.232 223.279 109.029 222.681 109.029C222.075 109.029 221.624 109.234 221.33 109.645C221.041 110.051 220.896 110.639 220.896 111.409C220.896 112.179 221.041 112.767 221.33 113.173C221.624 113.574 222.075 113.775 222.681 113.775Z" fill="#4DA167"/>
<circle cx="344" cy="36" r="36" fill="#4DA167"/>
<path d="M326 36H344V39H326V36Z" fill="white"/>
<path d="M323 28.5H338V31.5H323V28.5Z" fill="white"/>
<path d="M364.879 36.909L360.379 26.409C360.263 26.1391 360.071 25.9091 359.826 25.7475C359.581 25.5859 359.294 25.4998 359 25.5H354.5V22.5C354.5 22.1022 354.342 21.7206 354.061 21.4393C353.779 21.158 353.398 21 353 21H329V24H351.5V42.834C350.817 43.2309 350.218 43.7592 349.74 44.3884C349.262 45.0176 348.913 45.7352 348.713 46.5H339.287C338.922 45.086 338.054 43.8537 336.845 43.0341C335.636 42.2145 334.17 41.8638 332.722 42.0478C331.273 42.2318 329.941 42.9379 328.976 44.0337C328.01 45.1294 327.478 46.5396 327.478 48C327.478 49.4604 328.01 50.8706 328.976 51.9663C329.941 53.0621 331.273 53.7682 332.722 53.9522C334.17 54.1362 335.636 53.7855 336.845 52.9659C338.054 52.1463 338.922 50.914 339.287 49.5H348.713C349.039 50.7874 349.786 51.9292 350.834 52.7448C351.882 53.5604 353.172 54.0032 354.5 54.0032C355.828 54.0032 357.118 53.5604 358.166 52.7448C359.214 51.9292 359.961 50.7874 360.287 49.5H363.5C363.898 49.5 364.279 49.342 364.561 49.0607C364.842 48.7794 365 48.3978 365 48V37.5C365 37.2968 364.959 37.0957 364.879 36.909V36.909ZM333.5 51C332.907 51 332.327 50.8241 331.833 50.4944C331.34 50.1648 330.955 49.6962 330.728 49.1481C330.501 48.5999 330.442 47.9967 330.558 47.4147C330.673 46.8328 330.959 46.2982 331.379 45.8787C331.798 45.4591 332.333 45.1734 332.915 45.0576C333.497 44.9419 334.1 45.0013 334.648 45.2284C335.196 45.4554 335.665 45.8399 335.994 46.3333C336.324 46.8266 336.5 47.4067 336.5 48C336.499 48.7954 336.183 49.558 335.62 50.1204C335.058 50.6829 334.295 50.9992 333.5 51V51ZM354.5 28.5H358.01L361.226 36H354.5V28.5ZM354.5 51C353.907 51 353.327 50.8241 352.833 50.4944C352.34 50.1648 351.955 49.6962 351.728 49.1481C351.501 48.5999 351.442 47.9967 351.558 47.4147C351.673 46.8328 351.959 46.2982 352.379 45.8787C352.798 45.4591 353.333 45.1734 353.915 45.0576C354.497 44.9419 355.1 45.0013 355.648 45.2284C356.196 45.4554 356.665 45.8399 356.994 46.3333C357.324 46.8266 357.5 47.4067 357.5 48C357.499 48.7954 357.183 49.558 356.62 50.1204C356.058 50.6829 355.295 50.9992 354.5 51ZM362 46.5H360.287C359.957 45.2151 359.209 44.0763 358.162 43.2619C357.115 42.4475 355.827 42.0037 354.5 42V39H362V46.5Z" fill="white"/>
<path d="M326.768 92.967C327.113 92.967 327.414 92.925 327.671 92.841C327.927 92.7523 328.14 92.6287 328.308 92.47C328.48 92.3067 328.609 92.1107 328.693 91.882C328.777 91.6487 328.819 91.3897 328.819 91.105C328.819 90.8343 328.777 90.5893 328.693 90.37C328.609 90.1507 328.483 89.964 328.315 89.81C328.147 89.656 327.934 89.5393 327.678 89.46C327.421 89.376 327.118 89.334 326.768 89.334H325.361V92.967H326.768ZM326.768 87.878C327.444 87.878 328.03 87.9573 328.525 88.116C329.019 88.2747 329.428 88.4963 329.75 88.781C330.072 89.0657 330.31 89.4063 330.464 89.803C330.622 90.1997 330.702 90.6337 330.702 91.105C330.702 91.595 330.62 92.0453 330.457 92.456C330.293 92.862 330.048 93.212 329.722 93.506C329.395 93.8 328.984 94.0287 328.49 94.192C328 94.3553 327.426 94.437 326.768 94.437H325.361V98H323.478V87.878H326.768ZM336.171 93.583C336.171 93.359 336.139 93.149 336.073 92.953C336.013 92.7523 335.919 92.5773 335.793 92.428C335.667 92.2787 335.506 92.162 335.31 92.078C335.119 91.9893 334.895 91.945 334.638 91.945C334.139 91.945 333.745 92.0873 333.455 92.372C333.171 92.6567 332.989 93.0603 332.909 93.583H336.171ZM332.874 94.626C332.902 94.9947 332.968 95.3143 333.07 95.585C333.173 95.851 333.308 96.0727 333.476 96.25C333.644 96.4227 333.843 96.5533 334.071 96.642C334.305 96.726 334.561 96.768 334.841 96.768C335.121 96.768 335.362 96.7353 335.562 96.67C335.768 96.6047 335.945 96.5323 336.094 96.453C336.248 96.3737 336.381 96.3013 336.493 96.236C336.61 96.1707 336.722 96.138 336.829 96.138C336.974 96.138 337.081 96.1917 337.151 96.299L337.648 96.929C337.457 97.153 337.242 97.342 337.004 97.496C336.766 97.6453 336.517 97.7667 336.255 97.86C335.999 97.9487 335.735 98.0117 335.464 98.049C335.198 98.0863 334.939 98.105 334.687 98.105C334.188 98.105 333.724 98.0233 333.294 97.86C332.865 97.692 332.492 97.447 332.174 97.125C331.857 96.7983 331.607 96.397 331.425 95.921C331.243 95.4403 331.152 94.885 331.152 94.255C331.152 93.765 331.232 93.3053 331.39 92.876C331.549 92.442 331.775 92.0663 332.069 91.749C332.368 91.427 332.73 91.1727 333.154 90.986C333.584 90.7993 334.067 90.706 334.603 90.706C335.056 90.706 335.474 90.7783 335.856 90.923C336.239 91.0677 336.568 91.28 336.843 91.56C337.119 91.8353 337.333 92.176 337.487 92.582C337.646 92.9833 337.725 93.443 337.725 93.961C337.725 94.2223 337.697 94.3997 337.641 94.493C337.585 94.5817 337.478 94.626 337.319 94.626H332.874ZM343.531 92.652C343.335 92.414 343.12 92.246 342.887 92.148C342.658 92.05 342.411 92.001 342.145 92.001C341.884 92.001 341.648 92.05 341.438 92.148C341.228 92.246 341.048 92.3953 340.899 92.596C340.75 92.792 340.635 93.044 340.556 93.352C340.477 93.6553 340.437 94.0147 340.437 94.43C340.437 94.85 340.47 95.207 340.535 95.501C340.605 95.7903 340.703 96.0283 340.829 96.215C340.955 96.397 341.109 96.53 341.291 96.614C341.473 96.6933 341.676 96.733 341.9 96.733C342.259 96.733 342.565 96.6583 342.817 96.509C343.069 96.3597 343.307 96.1473 343.531 95.872V92.652ZM345.26 87.598V98H344.203C343.974 98 343.83 97.895 343.769 97.685L343.622 96.992C343.333 97.3233 342.999 97.5917 342.621 97.797C342.248 98.0023 341.811 98.105 341.312 98.105C340.92 98.105 340.561 98.0233 340.234 97.86C339.907 97.6967 339.625 97.461 339.387 97.153C339.154 96.8403 338.972 96.4553 338.841 95.998C338.715 95.5407 338.652 95.018 338.652 94.43C338.652 93.898 338.724 93.4033 338.869 92.946C339.014 92.4887 339.221 92.092 339.492 91.756C339.763 91.42 340.087 91.1587 340.465 90.972C340.843 90.7807 341.268 90.685 341.739 90.685C342.14 90.685 342.483 90.748 342.768 90.874C343.053 91 343.307 91.1703 343.531 91.385V87.598H345.26ZM348.758 90.818V98H347.022V90.818H348.758ZM348.996 88.725C348.996 88.8743 348.966 89.0143 348.905 89.145C348.845 89.2757 348.763 89.39 348.66 89.488C348.562 89.586 348.446 89.6653 348.31 89.726C348.175 89.782 348.03 89.81 347.876 89.81C347.727 89.81 347.585 89.782 347.449 89.726C347.319 89.6653 347.204 89.586 347.106 89.488C347.008 89.39 346.929 89.2757 346.868 89.145C346.812 89.0143 346.784 88.8743 346.784 88.725C346.784 88.571 346.812 88.4263 346.868 88.291C346.929 88.1557 347.008 88.039 347.106 87.941C347.204 87.843 347.319 87.766 347.449 87.71C347.585 87.6493 347.727 87.619 347.876 87.619C348.03 87.619 348.175 87.6493 348.31 87.71C348.446 87.766 348.562 87.843 348.66 87.941C348.763 88.039 348.845 88.1557 348.905 88.291C348.966 88.4263 348.996 88.571 348.996 88.725ZM355.029 92.652C354.833 92.414 354.618 92.246 354.385 92.148C354.156 92.05 353.909 92.001 353.643 92.001C353.382 92.001 353.146 92.05 352.936 92.148C352.726 92.246 352.546 92.3953 352.397 92.596C352.248 92.792 352.133 93.044 352.054 93.352C351.975 93.6553 351.935 94.0147 351.935 94.43C351.935 94.85 351.968 95.207 352.033 95.501C352.103 95.7903 352.201 96.0283 352.327 96.215C352.453 96.397 352.607 96.53 352.789 96.614C352.971 96.6933 353.174 96.733 353.398 96.733C353.757 96.733 354.063 96.6583 354.315 96.509C354.567 96.3597 354.805 96.1473 355.029 95.872V92.652ZM356.758 87.598V98H355.701C355.472 98 355.328 97.895 355.267 97.685L355.12 96.992C354.831 97.3233 354.497 97.5917 354.119 97.797C353.746 98.0023 353.309 98.105 352.81 98.105C352.418 98.105 352.059 98.0233 351.732 97.86C351.405 97.6967 351.123 97.461 350.885 97.153C350.652 96.8403 350.47 96.4553 350.339 95.998C350.213 95.5407 350.15 95.018 350.15 94.43C350.15 93.898 350.222 93.4033 350.367 92.946C350.512 92.4887 350.719 92.092 350.99 91.756C351.261 91.42 351.585 91.1587 351.963 90.972C352.341 90.7807 352.766 90.685 353.237 90.685C353.638 90.685 353.981 90.748 354.266 90.874C354.551 91 354.805 91.1703 355.029 91.385V87.598H356.758ZM361.642 90.706C362.174 90.706 362.657 90.7923 363.091 90.965C363.53 91.1377 363.903 91.3827 364.211 91.7C364.524 92.0173 364.764 92.4047 364.932 92.862C365.1 93.3193 365.184 93.8303 365.184 94.395C365.184 94.9643 365.1 95.4777 364.932 95.935C364.764 96.3923 364.524 96.782 364.211 97.104C363.903 97.426 363.53 97.6733 363.091 97.846C362.657 98.0187 362.174 98.105 361.642 98.105C361.106 98.105 360.618 98.0187 360.179 97.846C359.741 97.6733 359.365 97.426 359.052 97.104C358.744 96.782 358.504 96.3923 358.331 95.935C358.163 95.4777 358.079 94.9643 358.079 94.395C358.079 93.8303 358.163 93.3193 358.331 92.862C358.504 92.4047 358.744 92.0173 359.052 91.7C359.365 91.3827 359.741 91.1377 360.179 90.965C360.618 90.7923 361.106 90.706 361.642 90.706ZM361.642 96.775C362.24 96.775 362.681 96.5743 362.965 96.173C363.255 95.7717 363.399 95.1837 363.399 94.409C363.399 93.6343 363.255 93.044 362.965 92.638C362.681 92.232 362.24 92.029 361.642 92.029C361.036 92.029 360.585 92.2343 360.291 92.645C360.002 93.051 359.857 93.639 359.857 94.409C359.857 95.179 360.002 95.767 360.291 96.173C360.585 96.5743 361.036 96.775 361.642 96.775ZM322.175 106.376V109.183H325.717V110.632H322.175V113.495H326.669V115H320.285V104.878H326.669V106.376H322.175ZM329.532 108.7C329.676 108.555 329.828 108.422 329.987 108.301C330.15 108.175 330.32 108.07 330.498 107.986C330.68 107.897 330.873 107.83 331.079 107.783C331.284 107.732 331.508 107.706 331.751 107.706C332.143 107.706 332.49 107.774 332.794 107.909C333.097 108.04 333.349 108.226 333.55 108.469C333.755 108.707 333.909 108.994 334.012 109.33C334.119 109.661 334.173 110.028 334.173 110.429V115H332.444V110.429C332.444 109.99 332.343 109.652 332.143 109.414C331.942 109.171 331.636 109.05 331.226 109.05C330.927 109.05 330.647 109.118 330.386 109.253C330.124 109.388 329.877 109.573 329.644 109.806V115H327.915V107.818H328.972C329.196 107.818 329.343 107.923 329.413 108.133L329.532 108.7ZM342.128 107.818L339.279 115H337.711L334.862 107.818H336.29C336.42 107.818 336.528 107.848 336.612 107.909C336.7 107.97 336.759 108.047 336.787 108.14L338.173 111.976C338.247 112.2 338.313 112.419 338.369 112.634C338.425 112.849 338.474 113.063 338.516 113.278C338.562 113.063 338.614 112.849 338.67 112.634C338.726 112.419 338.793 112.2 338.873 111.976L340.287 108.14C340.319 108.047 340.378 107.97 340.462 107.909C340.546 107.848 340.646 107.818 340.763 107.818H342.128ZM344.841 107.818V115H343.105V107.818H344.841ZM345.079 105.725C345.079 105.874 345.049 106.014 344.988 106.145C344.928 106.276 344.846 106.39 344.743 106.488C344.645 106.586 344.529 106.665 344.393 106.726C344.258 106.782 344.113 106.81 343.959 106.81C343.81 106.81 343.668 106.782 343.532 106.726C343.402 106.665 343.287 106.586 343.189 106.488C343.091 106.39 343.012 106.276 342.951 106.145C342.895 106.014 342.867 105.874 342.867 105.725C342.867 105.571 342.895 105.426 342.951 105.291C343.012 105.156 343.091 105.039 343.189 104.941C343.287 104.843 343.402 104.766 343.532 104.71C343.668 104.649 343.81 104.619 343.959 104.619C344.113 104.619 344.258 104.649 344.393 104.71C344.529 104.766 344.645 104.843 344.743 104.941C344.846 105.039 344.928 105.156 344.988 105.291C345.049 105.426 345.079 105.571 345.079 105.725ZM350.398 111.934C349.899 111.957 349.479 112.002 349.138 112.067C348.797 112.128 348.524 112.207 348.319 112.305C348.114 112.403 347.967 112.517 347.878 112.648C347.789 112.779 347.745 112.921 347.745 113.075C347.745 113.378 347.834 113.595 348.011 113.726C348.193 113.857 348.429 113.922 348.718 113.922C349.073 113.922 349.378 113.859 349.635 113.733C349.896 113.602 350.151 113.406 350.398 113.145V111.934ZM346.436 108.819C347.262 108.063 348.256 107.685 349.418 107.685C349.838 107.685 350.214 107.755 350.545 107.895C350.876 108.03 351.156 108.222 351.385 108.469C351.614 108.712 351.786 109.003 351.903 109.344C352.024 109.685 352.085 110.058 352.085 110.464V115H351.301C351.138 115 351.012 114.977 350.923 114.93C350.834 114.879 350.764 114.778 350.713 114.629L350.559 114.111C350.377 114.274 350.2 114.419 350.027 114.545C349.854 114.666 349.675 114.769 349.488 114.853C349.301 114.937 349.101 115 348.886 115.042C348.676 115.089 348.443 115.112 348.186 115.112C347.883 115.112 347.603 115.072 347.346 114.993C347.089 114.909 346.868 114.785 346.681 114.622C346.494 114.459 346.35 114.256 346.247 114.013C346.144 113.77 346.093 113.488 346.093 113.166C346.093 112.984 346.123 112.804 346.184 112.627C346.245 112.445 346.343 112.272 346.478 112.109C346.618 111.946 346.798 111.792 347.017 111.647C347.236 111.502 347.505 111.376 347.822 111.269C348.144 111.162 348.517 111.075 348.942 111.01C349.367 110.94 349.852 110.898 350.398 110.884V110.464C350.398 109.983 350.295 109.629 350.09 109.4C349.885 109.167 349.588 109.05 349.201 109.05C348.921 109.05 348.688 109.083 348.501 109.148C348.319 109.213 348.158 109.288 348.018 109.372C347.878 109.451 347.75 109.524 347.633 109.589C347.521 109.654 347.395 109.687 347.255 109.687C347.134 109.687 347.031 109.657 346.947 109.596C346.863 109.531 346.795 109.456 346.744 109.372L346.436 108.819ZM358.221 109.652C358.025 109.414 357.811 109.246 357.577 109.148C357.349 109.05 357.101 109.001 356.835 109.001C356.574 109.001 356.338 109.05 356.128 109.148C355.918 109.246 355.739 109.395 355.589 109.596C355.44 109.792 355.326 110.044 355.246 110.352C355.167 110.655 355.127 111.015 355.127 111.43C355.127 111.85 355.16 112.207 355.225 112.501C355.295 112.79 355.393 113.028 355.519 113.215C355.645 113.397 355.799 113.53 355.981 113.614C356.163 113.693 356.366 113.733 356.59 113.733C356.95 113.733 357.255 113.658 357.507 113.509C357.759 113.36 357.997 113.147 358.221 112.872V109.652ZM359.95 104.598V115H358.893C358.665 115 358.52 114.895 358.459 114.685L358.312 113.992C358.023 114.323 357.689 114.592 357.311 114.797C356.938 115.002 356.502 115.105 356.002 115.105C355.61 115.105 355.251 115.023 354.924 114.86C354.598 114.697 354.315 114.461 354.077 114.153C353.844 113.84 353.662 113.455 353.531 112.998C353.405 112.541 353.342 112.018 353.342 111.43C353.342 110.898 353.415 110.403 353.559 109.946C353.704 109.489 353.912 109.092 354.182 108.756C354.453 108.42 354.777 108.159 355.155 107.972C355.533 107.781 355.958 107.685 356.429 107.685C356.831 107.685 357.174 107.748 357.458 107.874C357.743 108 357.997 108.17 358.221 108.385V104.598H359.95ZM364.835 107.706C365.367 107.706 365.85 107.792 366.284 107.965C366.722 108.138 367.096 108.383 367.404 108.7C367.716 109.017 367.957 109.405 368.125 109.862C368.293 110.319 368.377 110.83 368.377 111.395C368.377 111.964 368.293 112.478 368.125 112.935C367.957 113.392 367.716 113.782 367.404 114.104C367.096 114.426 366.722 114.673 366.284 114.846C365.85 115.019 365.367 115.105 364.835 115.105C364.298 115.105 363.81 115.019 363.372 114.846C362.933 114.673 362.557 114.426 362.245 114.104C361.937 113.782 361.696 113.392 361.524 112.935C361.356 112.478 361.272 111.964 361.272 111.395C361.272 110.83 361.356 110.319 361.524 109.862C361.696 109.405 361.937 109.017 362.245 108.7C362.557 108.383 362.933 108.138 363.372 107.965C363.81 107.792 364.298 107.706 364.835 107.706ZM364.835 113.775C365.432 113.775 365.873 113.574 366.158 113.173C366.447 112.772 366.592 112.184 366.592 111.409C366.592 110.634 366.447 110.044 366.158 109.638C365.873 109.232 365.432 109.029 364.835 109.029C364.228 109.029 363.778 109.234 363.484 109.645C363.194 110.051 363.05 110.639 363.05 111.409C363.05 112.179 363.194 112.767 363.484 113.173C363.778 113.574 364.228 113.775 364.835 113.775Z" fill="#4DA167"/>
<circle cx="496" cy="38" r="36" fill="#C6C6C6"/>
<path d="M479.5 20V56H482.5V44H512.5V20H479.5ZM482.5 23H487V27.5H491.5V23H496V27.5H500.5V23H505V27.5H509.5V32H505V36.5H509.5V41H505V36.5H500.5V41H496V36.5H491.5V41H487V36.5H482.5V32H487V27.5H482.5V23ZM487 32V36.5H491.5V32H487ZM491.5 32H496V27.5H491.5V32ZM496 32V36.5H500.5V32H496ZM500.5 32H505V27.5H500.5V32Z" fill="white"/>
<path d="M475.557 89.376V92.183H479.099V93.632H475.557V96.495H480.051V98H473.667V87.878H480.051V89.376H475.557ZM482.913 91.7C483.058 91.5553 483.21 91.4223 483.368 91.301C483.532 91.175 483.702 91.07 483.879 90.986C484.061 90.8973 484.255 90.8297 484.46 90.783C484.666 90.7317 484.89 90.706 485.132 90.706C485.524 90.706 485.872 90.7737 486.175 90.909C486.479 91.0397 486.731 91.2263 486.931 91.469C487.137 91.707 487.291 91.994 487.393 92.33C487.501 92.6613 487.554 93.0277 487.554 93.429V98H485.825V93.429C485.825 92.9903 485.725 92.652 485.524 92.414C485.324 92.1713 485.018 92.05 484.607 92.05C484.309 92.05 484.029 92.1177 483.767 92.253C483.506 92.3883 483.259 92.5727 483.025 92.806V98H481.296V90.818H482.353C482.577 90.818 482.724 90.923 482.794 91.133L482.913 91.7ZM491.497 98.112C490.872 98.112 490.391 97.937 490.055 97.587C489.724 97.2323 489.558 96.7447 489.558 96.124V92.113H488.823C488.73 92.113 488.65 92.0827 488.585 92.022C488.52 91.9613 488.487 91.8703 488.487 91.749V91.063L489.642 90.874L490.006 88.914C490.029 88.8207 490.074 88.7483 490.139 88.697C490.204 88.6457 490.288 88.62 490.391 88.62H491.287V90.881H493.205V92.113H491.287V96.005C491.287 96.229 491.341 96.404 491.448 96.53C491.56 96.656 491.712 96.719 491.903 96.719C492.01 96.719 492.099 96.7073 492.169 96.684C492.244 96.656 492.307 96.628 492.358 96.6C492.414 96.572 492.463 96.5463 492.505 96.523C492.547 96.495 492.589 96.481 492.631 96.481C492.682 96.481 492.724 96.495 492.757 96.523C492.79 96.5463 492.825 96.5837 492.862 96.635L493.38 97.475C493.128 97.685 492.839 97.8437 492.512 97.951C492.185 98.0583 491.847 98.112 491.497 98.112ZM495.943 92.064C496.167 91.6347 496.433 91.2987 496.741 91.056C497.049 90.8087 497.413 90.685 497.833 90.685C498.164 90.685 498.43 90.7573 498.631 90.902L498.519 92.197C498.496 92.281 498.461 92.3417 498.414 92.379C498.372 92.4117 498.314 92.428 498.239 92.428C498.169 92.428 498.064 92.4163 497.924 92.393C497.789 92.3697 497.656 92.358 497.525 92.358C497.334 92.358 497.163 92.386 497.014 92.442C496.865 92.498 496.729 92.5797 496.608 92.687C496.491 92.7897 496.386 92.9157 496.293 93.065C496.204 93.2143 496.12 93.3847 496.041 93.576V98H494.312V90.818H495.327C495.504 90.818 495.628 90.8507 495.698 90.916C495.768 90.9767 495.815 91.0887 495.838 91.252L495.943 92.064ZM503.957 93.583C503.957 93.359 503.924 93.149 503.859 92.953C503.798 92.7523 503.705 92.5773 503.579 92.428C503.453 92.2787 503.292 92.162 503.096 92.078C502.904 91.9893 502.68 91.945 502.424 91.945C501.924 91.945 501.53 92.0873 501.241 92.372C500.956 92.6567 500.774 93.0603 500.695 93.583H503.957ZM500.66 94.626C500.688 94.9947 500.753 95.3143 500.856 95.585C500.958 95.851 501.094 96.0727 501.262 96.25C501.43 96.4227 501.628 96.5533 501.857 96.642C502.09 96.726 502.347 96.768 502.627 96.768C502.907 96.768 503.147 96.7353 503.348 96.67C503.553 96.6047 503.73 96.5323 503.88 96.453C504.034 96.3737 504.167 96.3013 504.279 96.236C504.395 96.1707 504.507 96.138 504.615 96.138C504.759 96.138 504.867 96.1917 504.937 96.299L505.434 96.929C505.242 97.153 505.028 97.342 504.79 97.496C504.552 97.6453 504.302 97.7667 504.041 97.86C503.784 97.9487 503.52 98.0117 503.25 98.049C502.984 98.0863 502.725 98.105 502.473 98.105C501.973 98.105 501.509 98.0233 501.08 97.86C500.65 97.692 500.277 97.447 499.96 97.125C499.642 96.7983 499.393 96.397 499.211 95.921C499.029 95.4403 498.938 94.885 498.938 94.255C498.938 93.765 499.017 93.3053 499.176 92.876C499.334 92.442 499.561 92.0663 499.855 91.749C500.153 91.427 500.515 91.1727 500.94 90.986C501.369 90.7993 501.852 90.706 502.389 90.706C502.841 90.706 503.259 90.7783 503.642 90.923C504.024 91.0677 504.353 91.28 504.629 91.56C504.904 91.8353 505.119 92.176 505.273 92.582C505.431 92.9833 505.511 93.443 505.511 93.961C505.511 94.2223 505.483 94.3997 505.427 94.493C505.371 94.5817 505.263 94.626 505.105 94.626H500.66ZM509.433 94.234C509.648 94.234 509.834 94.206 509.993 94.15C510.152 94.0893 510.282 94.0077 510.385 93.905C510.492 93.8023 510.572 93.6787 510.623 93.534C510.679 93.3893 510.707 93.2307 510.707 93.058C510.707 92.7033 510.6 92.4233 510.385 92.218C510.175 92.008 509.858 91.903 509.433 91.903C509.008 91.903 508.689 92.008 508.474 92.218C508.264 92.4233 508.159 92.7033 508.159 93.058C508.159 93.226 508.185 93.3823 508.236 93.527C508.292 93.6717 508.371 93.7977 508.474 93.905C508.581 94.0077 508.714 94.0893 508.873 94.15C509.036 94.206 509.223 94.234 509.433 94.234ZM511.386 98.322C511.386 98.182 511.344 98.0677 511.26 97.979C511.176 97.8903 511.062 97.8227 510.917 97.776C510.772 97.7247 510.602 97.6873 510.406 97.664C510.215 97.6407 510.009 97.6243 509.79 97.615C509.575 97.601 509.351 97.5893 509.118 97.58C508.889 97.5707 508.665 97.552 508.446 97.524C508.255 97.6313 508.098 97.7573 507.977 97.902C507.86 98.0467 507.802 98.2147 507.802 98.406C507.802 98.532 507.832 98.6487 507.893 98.756C507.958 98.868 508.059 98.9637 508.194 99.043C508.334 99.1223 508.514 99.183 508.733 99.225C508.952 99.2717 509.221 99.295 509.538 99.295C509.86 99.295 510.138 99.2693 510.371 99.218C510.604 99.1713 510.796 99.1037 510.945 99.015C511.099 98.931 511.211 98.8283 511.281 98.707C511.351 98.5903 511.386 98.462 511.386 98.322ZM513.108 91.063V91.707C513.108 91.9123 512.984 92.0383 512.737 92.085L512.093 92.204C512.191 92.4513 512.24 92.722 512.24 93.016C512.24 93.3707 512.168 93.6927 512.023 93.982C511.883 94.2667 511.687 94.5093 511.435 94.71C511.183 94.9107 510.884 95.067 510.539 95.179C510.198 95.2863 509.83 95.34 509.433 95.34C509.293 95.34 509.158 95.333 509.027 95.319C508.896 95.305 508.768 95.2863 508.642 95.263C508.418 95.3983 508.306 95.55 508.306 95.718C508.306 95.8627 508.371 95.97 508.502 96.04C508.637 96.1053 508.815 96.152 509.034 96.18C509.253 96.208 509.503 96.2267 509.783 96.236C510.063 96.2407 510.35 96.2547 510.644 96.278C510.938 96.3013 511.225 96.3433 511.505 96.404C511.785 96.46 512.035 96.551 512.254 96.677C512.473 96.803 512.648 96.9757 512.779 97.195C512.914 97.4097 512.982 97.6873 512.982 98.028C512.982 98.3453 512.903 98.6533 512.744 98.952C512.59 99.2507 512.364 99.5167 512.065 99.75C511.771 99.9833 511.407 100.17 510.973 100.31C510.544 100.455 510.054 100.527 509.503 100.527C508.962 100.527 508.49 100.473 508.089 100.366C507.688 100.263 507.354 100.123 507.088 99.946C506.822 99.7733 506.624 99.5727 506.493 99.344C506.362 99.1153 506.297 98.8773 506.297 98.63C506.297 98.294 506.397 98.014 506.598 97.79C506.803 97.5613 507.083 97.3793 507.438 97.244C507.247 97.146 507.095 97.0153 506.983 96.852C506.871 96.6887 506.815 96.474 506.815 96.208C506.815 96.1007 506.834 95.991 506.871 95.879C506.913 95.7623 506.971 95.648 507.046 95.536C507.125 95.424 507.223 95.319 507.34 95.221C507.457 95.1183 507.594 95.0273 507.753 94.948C507.389 94.752 507.102 94.4907 506.892 94.164C506.687 93.8373 506.584 93.4547 506.584 93.016C506.584 92.6613 506.654 92.3417 506.794 92.057C506.939 91.7677 507.137 91.5227 507.389 91.322C507.646 91.1167 507.947 90.9603 508.292 90.853C508.642 90.7457 509.022 90.692 509.433 90.692C509.741 90.692 510.03 90.7247 510.301 90.79C510.572 90.8507 510.819 90.9417 511.043 91.063H513.108ZM517.999 94.934C517.499 94.9573 517.079 95.0017 516.739 95.067C516.398 95.1277 516.125 95.207 515.92 95.305C515.714 95.403 515.567 95.5173 515.479 95.648C515.39 95.7787 515.346 95.921 515.346 96.075C515.346 96.3783 515.434 96.5953 515.612 96.726C515.794 96.8567 516.029 96.922 516.319 96.922C516.673 96.922 516.979 96.859 517.236 96.733C517.497 96.6023 517.751 96.4063 517.999 96.145V94.934ZM514.037 91.819C514.863 91.063 515.857 90.685 517.019 90.685C517.439 90.685 517.814 90.755 518.146 90.895C518.477 91.0303 518.757 91.2217 518.986 91.469C519.214 91.7117 519.387 92.0033 519.504 92.344C519.625 92.6847 519.686 93.058 519.686 93.464V98H518.902C518.738 98 518.612 97.9767 518.524 97.93C518.435 97.8787 518.365 97.7783 518.314 97.629L518.16 97.111C517.978 97.2743 517.8 97.419 517.628 97.545C517.455 97.6663 517.275 97.769 517.089 97.853C516.902 97.937 516.701 98 516.487 98.042C516.277 98.0887 516.043 98.112 515.787 98.112C515.483 98.112 515.203 98.0723 514.947 97.993C514.69 97.909 514.468 97.7853 514.282 97.622C514.095 97.4587 513.95 97.2557 513.848 97.013C513.745 96.7703 513.694 96.488 513.694 96.166C513.694 95.984 513.724 95.8043 513.785 95.627C513.845 95.445 513.943 95.2723 514.079 95.109C514.219 94.9457 514.398 94.7917 514.618 94.647C514.837 94.5023 515.105 94.3763 515.423 94.269C515.745 94.1617 516.118 94.0753 516.543 94.01C516.967 93.94 517.453 93.898 517.999 93.884V93.464C517.999 92.9833 517.896 92.6287 517.691 92.4C517.485 92.1667 517.189 92.05 516.802 92.05C516.522 92.05 516.288 92.0827 516.102 92.148C515.92 92.2133 515.759 92.288 515.619 92.372C515.479 92.4513 515.35 92.5237 515.234 92.589C515.122 92.6543 514.996 92.687 514.856 92.687C514.734 92.687 514.632 92.6567 514.548 92.596C514.464 92.5307 514.396 92.456 514.345 92.372L514.037 91.819ZM471.312 109.694C471.667 109.694 471.975 109.65 472.236 109.561C472.502 109.472 472.719 109.351 472.887 109.197C473.06 109.038 473.188 108.852 473.272 108.637C473.356 108.422 473.398 108.187 473.398 107.93C473.398 107.417 473.228 107.022 472.887 106.747C472.551 106.472 472.035 106.334 471.34 106.334H470.136V109.694H471.312ZM476.156 115H474.455C474.133 115 473.9 114.874 473.755 114.622L471.627 111.381C471.548 111.26 471.459 111.173 471.361 111.122C471.268 111.071 471.128 111.045 470.941 111.045H470.136V115H468.253V104.878H471.34C472.026 104.878 472.614 104.95 473.104 105.095C473.599 105.235 474.002 105.433 474.315 105.69C474.632 105.947 474.866 106.255 475.015 106.614C475.164 106.969 475.239 107.361 475.239 107.79C475.239 108.131 475.188 108.453 475.085 108.756C474.987 109.059 474.842 109.335 474.651 109.582C474.464 109.829 474.231 110.046 473.951 110.233C473.676 110.42 473.361 110.567 473.006 110.674C473.127 110.744 473.239 110.828 473.342 110.926C473.445 111.019 473.538 111.131 473.622 111.262L476.156 115ZM481.138 110.583C481.138 110.359 481.106 110.149 481.04 109.953C480.98 109.752 480.886 109.577 480.76 109.428C480.634 109.279 480.473 109.162 480.277 109.078C480.086 108.989 479.862 108.945 479.605 108.945C479.106 108.945 478.712 109.087 478.422 109.372C478.138 109.657 477.956 110.06 477.876 110.583H481.138ZM477.841 111.626C477.869 111.995 477.935 112.314 478.037 112.585C478.14 112.851 478.275 113.073 478.443 113.25C478.611 113.423 478.81 113.553 479.038 113.642C479.272 113.726 479.528 113.768 479.808 113.768C480.088 113.768 480.329 113.735 480.529 113.67C480.735 113.605 480.912 113.532 481.061 113.453C481.215 113.374 481.348 113.301 481.46 113.236C481.577 113.171 481.689 113.138 481.796 113.138C481.941 113.138 482.048 113.192 482.118 113.299L482.615 113.929C482.424 114.153 482.209 114.342 481.971 114.496C481.733 114.645 481.484 114.767 481.222 114.86C480.966 114.949 480.702 115.012 480.431 115.049C480.165 115.086 479.906 115.105 479.654 115.105C479.155 115.105 478.691 115.023 478.261 114.86C477.832 114.692 477.459 114.447 477.141 114.125C476.824 113.798 476.574 113.397 476.392 112.921C476.21 112.44 476.119 111.885 476.119 111.255C476.119 110.765 476.199 110.305 476.357 109.876C476.516 109.442 476.742 109.066 477.036 108.749C477.335 108.427 477.697 108.173 478.121 107.986C478.551 107.799 479.034 107.706 479.57 107.706C480.023 107.706 480.441 107.778 480.823 107.923C481.206 108.068 481.535 108.28 481.81 108.56C482.086 108.835 482.3 109.176 482.454 109.582C482.613 109.983 482.692 110.443 482.692 110.961C482.692 111.222 482.664 111.4 482.608 111.493C482.552 111.582 482.445 111.626 482.286 111.626H477.841ZM487.784 111.934C487.284 111.957 486.864 112.002 486.524 112.067C486.183 112.128 485.91 112.207 485.705 112.305C485.499 112.403 485.352 112.517 485.264 112.648C485.175 112.779 485.131 112.921 485.131 113.075C485.131 113.378 485.219 113.595 485.397 113.726C485.579 113.857 485.814 113.922 486.104 113.922C486.458 113.922 486.764 113.859 487.021 113.733C487.282 113.602 487.536 113.406 487.784 113.145V111.934ZM483.822 108.819C484.648 108.063 485.642 107.685 486.804 107.685C487.224 107.685 487.599 107.755 487.931 107.895C488.262 108.03 488.542 108.222 488.771 108.469C488.999 108.712 489.172 109.003 489.289 109.344C489.41 109.685 489.471 110.058 489.471 110.464V115H488.687C488.523 115 488.397 114.977 488.309 114.93C488.22 114.879 488.15 114.778 488.099 114.629L487.945 114.111C487.763 114.274 487.585 114.419 487.413 114.545C487.24 114.666 487.06 114.769 486.874 114.853C486.687 114.937 486.486 115 486.272 115.042C486.062 115.089 485.828 115.112 485.572 115.112C485.268 115.112 484.988 115.072 484.732 114.993C484.475 114.909 484.253 114.785 484.067 114.622C483.88 114.459 483.735 114.256 483.633 114.013C483.53 113.77 483.479 113.488 483.479 113.166C483.479 112.984 483.509 112.804 483.57 112.627C483.63 112.445 483.728 112.272 483.864 112.109C484.004 111.946 484.183 111.792 484.403 111.647C484.622 111.502 484.89 111.376 485.208 111.269C485.53 111.162 485.903 111.075 486.328 111.01C486.752 110.94 487.238 110.898 487.784 110.884V110.464C487.784 109.983 487.681 109.629 487.476 109.4C487.27 109.167 486.974 109.05 486.587 109.05C486.307 109.05 486.073 109.083 485.887 109.148C485.705 109.213 485.544 109.288 485.404 109.372C485.264 109.451 485.135 109.524 485.019 109.589C484.907 109.654 484.781 109.687 484.641 109.687C484.519 109.687 484.417 109.657 484.333 109.596C484.249 109.531 484.181 109.456 484.13 109.372L483.822 108.819ZM492.849 104.598V115H491.12V104.598H492.849ZM496.364 107.818V115H494.628V107.818H496.364ZM496.602 105.725C496.602 105.874 496.571 106.014 496.511 106.145C496.45 106.276 496.368 106.39 496.266 106.488C496.168 106.586 496.051 106.665 495.916 106.726C495.78 106.782 495.636 106.81 495.482 106.81C495.332 106.81 495.19 106.782 495.055 106.726C494.924 106.665 494.81 106.586 494.712 106.488C494.614 106.39 494.534 106.276 494.474 106.145C494.418 106.014 494.39 105.874 494.39 105.725C494.39 105.571 494.418 105.426 494.474 105.291C494.534 105.156 494.614 105.039 494.712 104.941C494.81 104.843 494.924 104.766 495.055 104.71C495.19 104.649 495.332 104.619 495.482 104.619C495.636 104.619 495.78 104.649 495.916 104.71C496.051 104.766 496.168 104.843 496.266 104.941C496.368 105.039 496.45 105.156 496.511 105.291C496.571 105.426 496.602 105.571 496.602 105.725ZM503.285 108.532C503.285 108.653 503.264 108.772 503.222 108.889C503.18 109.006 503.124 109.101 503.054 109.176L499.645 113.67H503.18V115H497.636V114.279C497.636 114.2 497.655 114.106 497.692 113.999C497.73 113.887 497.786 113.782 497.86 113.684L501.304 109.141H497.839V107.818H503.285V108.532ZM508.36 111.934C507.861 111.957 507.441 112.002 507.1 112.067C506.759 112.128 506.486 112.207 506.281 112.305C506.076 112.403 505.929 112.517 505.84 112.648C505.751 112.779 505.707 112.921 505.707 113.075C505.707 113.378 505.796 113.595 505.973 113.726C506.155 113.857 506.391 113.922 506.68 113.922C507.035 113.922 507.34 113.859 507.597 113.733C507.858 113.602 508.113 113.406 508.36 113.145V111.934ZM504.398 108.819C505.224 108.063 506.218 107.685 507.38 107.685C507.8 107.685 508.176 107.755 508.507 107.895C508.838 108.03 509.118 108.222 509.347 108.469C509.576 108.712 509.748 109.003 509.865 109.344C509.986 109.685 510.047 110.058 510.047 110.464V115H509.263C509.1 115 508.974 114.977 508.885 114.93C508.796 114.879 508.726 114.778 508.675 114.629L508.521 114.111C508.339 114.274 508.162 114.419 507.989 114.545C507.816 114.666 507.637 114.769 507.45 114.853C507.263 114.937 507.063 115 506.848 115.042C506.638 115.089 506.405 115.112 506.148 115.112C505.845 115.112 505.565 115.072 505.308 114.993C505.051 114.909 504.83 114.785 504.643 114.622C504.456 114.459 504.312 114.256 504.209 114.013C504.106 113.77 504.055 113.488 504.055 113.166C504.055 112.984 504.085 112.804 504.146 112.627C504.207 112.445 504.305 112.272 504.44 112.109C504.58 111.946 504.76 111.792 504.979 111.647C505.198 111.502 505.467 111.376 505.784 111.269C506.106 111.162 506.479 111.075 506.904 111.01C507.329 110.94 507.814 110.898 508.36 110.884V110.464C508.36 109.983 508.257 109.629 508.052 109.4C507.847 109.167 507.55 109.05 507.163 109.05C506.883 109.05 506.65 109.083 506.463 109.148C506.281 109.213 506.12 109.288 505.98 109.372C505.84 109.451 505.712 109.524 505.595 109.589C505.483 109.654 505.357 109.687 505.217 109.687C505.096 109.687 504.993 109.657 504.909 109.596C504.825 109.531 504.757 109.456 504.706 109.372L504.398 108.819ZM516.183 109.652C515.987 109.414 515.773 109.246 515.539 109.148C515.311 109.05 515.063 109.001 514.797 109.001C514.536 109.001 514.3 109.05 514.09 109.148C513.88 109.246 513.701 109.395 513.551 109.596C513.402 109.792 513.288 110.044 513.208 110.352C513.129 110.655 513.089 111.015 513.089 111.43C513.089 111.85 513.122 112.207 513.187 112.501C513.257 112.79 513.355 113.028 513.481 113.215C513.607 113.397 513.761 113.53 513.943 113.614C514.125 113.693 514.328 113.733 514.552 113.733C514.912 113.733 515.217 113.658 515.469 113.509C515.721 113.36 515.959 113.147 516.183 112.872V109.652ZM517.912 104.598V115H516.855C516.627 115 516.482 114.895 516.421 114.685L516.274 113.992C515.985 114.323 515.651 114.592 515.273 114.797C514.9 115.002 514.464 115.105 513.964 115.105C513.572 115.105 513.213 115.023 512.886 114.86C512.56 114.697 512.277 114.461 512.039 114.153C511.806 113.84 511.624 113.455 511.493 112.998C511.367 112.541 511.304 112.018 511.304 111.43C511.304 110.898 511.377 110.403 511.521 109.946C511.666 109.489 511.874 109.092 512.144 108.756C512.415 108.42 512.739 108.159 513.117 107.972C513.495 107.781 513.92 107.685 514.391 107.685C514.793 107.685 515.136 107.748 515.42 107.874C515.705 108 515.959 108.17 516.183 108.385V104.598H517.912ZM523.413 111.934C522.913 111.957 522.493 112.002 522.153 112.067C521.812 112.128 521.539 112.207 521.334 112.305C521.128 112.403 520.981 112.517 520.893 112.648C520.804 112.779 520.76 112.921 520.76 113.075C520.76 113.378 520.848 113.595 521.026 113.726C521.208 113.857 521.443 113.922 521.733 113.922C522.087 113.922 522.393 113.859 522.65 113.733C522.911 113.602 523.165 113.406 523.413 113.145V111.934ZM519.451 108.819C520.277 108.063 521.271 107.685 522.433 107.685C522.853 107.685 523.228 107.755 523.56 107.895C523.891 108.03 524.171 108.222 524.4 108.469C524.628 108.712 524.801 109.003 524.918 109.344C525.039 109.685 525.1 110.058 525.1 110.464V115H524.316C524.152 115 524.026 114.977 523.938 114.93C523.849 114.879 523.779 114.778 523.728 114.629L523.574 114.111C523.392 114.274 523.214 114.419 523.042 114.545C522.869 114.666 522.689 114.769 522.503 114.853C522.316 114.937 522.115 115 521.901 115.042C521.691 115.089 521.457 115.112 521.201 115.112C520.897 115.112 520.617 115.072 520.361 114.993C520.104 114.909 519.882 114.785 519.696 114.622C519.509 114.459 519.364 114.256 519.262 114.013C519.159 113.77 519.108 113.488 519.108 113.166C519.108 112.984 519.138 112.804 519.199 112.627C519.259 112.445 519.357 112.272 519.493 112.109C519.633 111.946 519.812 111.792 520.032 111.647C520.251 111.502 520.519 111.376 520.837 111.269C521.159 111.162 521.532 111.075 521.957 111.01C522.381 110.94 522.867 110.898 523.413 110.884V110.464C523.413 109.983 523.31 109.629 523.105 109.4C522.899 109.167 522.603 109.05 522.216 109.05C521.936 109.05 521.702 109.083 521.516 109.148C521.334 109.213 521.173 109.288 521.033 109.372C520.893 109.451 520.764 109.524 520.648 109.589C520.536 109.654 520.41 109.687 520.27 109.687C520.148 109.687 520.046 109.657 519.962 109.596C519.878 109.531 519.81 109.456 519.759 109.372L519.451 108.819Z" fill="#C6C6C6"/>
<line x1="71" y1="39.5" x2="155" y2="39.5" stroke="#4DA167" stroke-width="7"/>
<line x1="225" y1="39.5" x2="309" y2="39.5" stroke="#4DA167" stroke-width="7"/>
<line x1="378" y1="39.5" x2="419.5" y2="39.5" stroke="#4DA167" stroke-width="7"/>
<line x1="420" y1="39.5" x2="461.5" y2="39.5" stroke="#C6C6C6" stroke-width="7"/>
</svg>
