<svg width="180" height="44" viewBox="0 0 180 44" fill="none" xmlns="http://www.w3.org/2000/svg">
<rect x="1" y="1" width="178" height="42" rx="3" stroke="#1E96FC" stroke-width="2"/>
<path d="M33.475 24.178L32.243 20.811C32.1823 20.6617 32.1193 20.4843 32.054 20.279C31.9887 20.0737 31.9233 19.852 31.858 19.614C31.7973 19.852 31.7343 20.076 31.669 20.286C31.6037 20.4913 31.5407 20.671 31.48 20.825L30.255 24.178H33.475ZM36.8 28H35.344C35.1807 28 35.0477 27.9603 34.945 27.881C34.8423 27.797 34.7653 27.6943 34.714 27.573L33.958 25.508H29.765L29.009 27.573C28.9717 27.6803 28.8993 27.7783 28.792 27.867C28.6847 27.9557 28.5517 28 28.393 28H26.923L30.906 17.878H32.824L36.8 28ZM42.5283 22.337C42.477 22.4023 42.4256 22.4537 42.3743 22.491C42.3276 22.5283 42.2576 22.547 42.1643 22.547C42.0756 22.547 41.9893 22.5213 41.9053 22.47C41.8213 22.414 41.721 22.3533 41.6043 22.288C41.4876 22.218 41.3476 22.1573 41.1843 22.106C41.0256 22.05 40.8273 22.022 40.5893 22.022C40.286 22.022 40.02 22.078 39.7913 22.19C39.5626 22.2973 39.3713 22.4537 39.2173 22.659C39.068 22.8643 38.956 23.114 38.8813 23.408C38.8066 23.6973 38.7693 24.0263 38.7693 24.395C38.7693 24.7777 38.809 25.1183 38.8883 25.417C38.9723 25.7157 39.0913 25.9677 39.2453 26.173C39.3993 26.3737 39.586 26.5277 39.8053 26.635C40.0246 26.7377 40.272 26.789 40.5473 26.789C40.8226 26.789 41.0443 26.7563 41.2123 26.691C41.385 26.621 41.5296 26.5463 41.6463 26.467C41.763 26.383 41.8633 26.3083 41.9473 26.243C42.036 26.173 42.134 26.138 42.2413 26.138C42.3813 26.138 42.4863 26.1917 42.5563 26.299L43.0533 26.929C42.862 27.153 42.6543 27.342 42.4303 27.496C42.2063 27.6453 41.973 27.7667 41.7303 27.86C41.4923 27.9487 41.245 28.0117 40.9883 28.049C40.7363 28.0863 40.4843 28.105 40.2323 28.105C39.789 28.105 39.3713 28.0233 38.9793 27.86C38.5873 27.692 38.2443 27.4493 37.9503 27.132C37.6563 26.8147 37.423 26.4273 37.2503 25.97C37.0823 25.508 36.9983 24.983 36.9983 24.395C36.9983 23.8677 37.073 23.38 37.2223 22.932C37.3763 22.4793 37.6003 22.0897 37.8943 21.763C38.1883 21.4317 38.5523 21.1727 38.9863 20.986C39.4203 20.7993 39.9196 20.706 40.4843 20.706C41.021 20.706 41.49 20.7923 41.8913 20.965C42.2973 21.1377 42.6613 21.385 42.9833 21.707L42.5283 22.337ZM47.1922 20.706C47.7242 20.706 48.2072 20.7923 48.6412 20.965C49.0798 21.1377 49.4532 21.3827 49.7612 21.7C50.0738 22.0173 50.3142 22.4047 50.4822 22.862C50.6502 23.3193 50.7342 23.8303 50.7342 24.395C50.7342 24.9643 50.6502 25.4777 50.4822 25.935C50.3142 26.3923 50.0738 26.782 49.7612 27.104C49.4532 27.426 49.0798 27.6733 48.6412 27.846C48.2072 28.0187 47.7242 28.105 47.1922 28.105C46.6555 28.105 46.1678 28.0187 45.7292 27.846C45.2905 27.6733 44.9148 27.426 44.6022 27.104C44.2942 26.782 44.0538 26.3923 43.8812 25.935C43.7132 25.4777 43.6292 24.9643 43.6292 24.395C43.6292 23.8303 43.7132 23.3193 43.8812 22.862C44.0538 22.4047 44.2942 22.0173 44.6022 21.7C44.9148 21.3827 45.2905 21.1377 45.7292 20.965C46.1678 20.7923 46.6555 20.706 47.1922 20.706ZM47.1922 26.775C47.7895 26.775 48.2305 26.5743 48.5152 26.173C48.8045 25.7717 48.9492 25.1837 48.9492 24.409C48.9492 23.6343 48.8045 23.044 48.5152 22.638C48.2305 22.232 47.7895 22.029 47.1922 22.029C46.5855 22.029 46.1352 22.2343 45.8412 22.645C45.5518 23.051 45.4072 23.639 45.4072 24.409C45.4072 25.179 45.5518 25.767 45.8412 26.173C46.1352 26.5743 46.5855 26.775 47.1922 26.775ZM52.0532 28V20.818H53.1102C53.3342 20.818 53.4812 20.923 53.5512 21.133L53.6632 21.665C53.7892 21.525 53.9199 21.3967 54.0552 21.28C54.1952 21.1633 54.3422 21.063 54.4962 20.979C54.6549 20.895 54.8229 20.8297 55.0002 20.783C55.1822 20.7317 55.3806 20.706 55.5952 20.706C56.0479 20.706 56.4189 20.8297 56.7082 21.077C57.0022 21.3197 57.2216 21.644 57.3662 22.05C57.4782 21.812 57.6182 21.609 57.7862 21.441C57.9542 21.2683 58.1386 21.1283 58.3392 21.021C58.5399 20.9137 58.7522 20.8343 58.9762 20.783C59.2049 20.7317 59.4336 20.706 59.6622 20.706C60.0589 20.706 60.4112 20.7667 60.7192 20.888C61.0272 21.0093 61.2862 21.1867 61.4962 21.42C61.7062 21.6533 61.8649 21.938 61.9722 22.274C62.0842 22.61 62.1402 22.995 62.1402 23.429V28H60.4112V23.429C60.4112 22.9717 60.3109 22.6287 60.1102 22.4C59.9096 22.1667 59.6156 22.05 59.2282 22.05C59.0509 22.05 58.8852 22.0803 58.7312 22.141C58.5819 22.2017 58.4489 22.2903 58.3322 22.407C58.2202 22.519 58.1316 22.6613 58.0662 22.834C58.0009 23.0067 57.9682 23.205 57.9682 23.429V28H56.2322V23.429C56.2322 22.9483 56.1342 22.5983 55.9382 22.379C55.7469 22.1597 55.4646 22.05 55.0912 22.05C54.8392 22.05 54.6036 22.113 54.3842 22.239C54.1696 22.3603 53.9689 22.5283 53.7822 22.743V28H52.0532ZM65.5127 26.138C65.7087 26.376 65.921 26.544 66.1497 26.642C66.383 26.74 66.635 26.789 66.9057 26.789C67.167 26.789 67.4027 26.74 67.6127 26.642C67.8227 26.544 68 26.3947 68.1447 26.194C68.294 25.9933 68.4084 25.7413 68.4877 25.438C68.567 25.13 68.6067 24.7683 68.6067 24.353C68.6067 23.933 68.5717 23.5783 68.5017 23.289C68.4364 22.995 68.3407 22.757 68.2147 22.575C68.0887 22.393 67.9347 22.26 67.7527 22.176C67.5754 22.092 67.3724 22.05 67.1437 22.05C66.7844 22.05 66.4787 22.127 66.2267 22.281C65.9747 22.4303 65.7367 22.6427 65.5127 22.918V26.138ZM65.4217 21.798C65.7157 21.4667 66.0494 21.1983 66.4227 20.993C66.796 20.7877 67.2347 20.685 67.7387 20.685C68.1307 20.685 68.4877 20.7667 68.8097 20.93C69.1364 21.0933 69.4164 21.3313 69.6497 21.644C69.8877 21.952 70.0697 22.3347 70.1957 22.792C70.3264 23.2447 70.3917 23.765 70.3917 24.353C70.3917 24.8897 70.3194 25.3867 70.1747 25.844C70.03 26.3013 69.8224 26.698 69.5517 27.034C69.2857 27.37 68.9614 27.6337 68.5787 27.825C68.2007 28.0117 67.776 28.105 67.3047 28.105C66.9034 28.105 66.5604 28.0443 66.2757 27.923C65.991 27.797 65.7367 27.6243 65.5127 27.405V30.345H63.7837V20.818H64.8407C65.0647 20.818 65.2117 20.923 65.2817 21.133L65.4217 21.798ZM75.5347 24.934C75.0354 24.9573 74.6154 25.0017 74.2747 25.067C73.9341 25.1277 73.6611 25.207 73.4557 25.305C73.2504 25.403 73.1034 25.5173 73.0147 25.648C72.9261 25.7787 72.8817 25.921 72.8817 26.075C72.8817 26.3783 72.9704 26.5953 73.1477 26.726C73.3297 26.8567 73.5654 26.922 73.8547 26.922C74.2094 26.922 74.5151 26.859 74.7717 26.733C75.0331 26.6023 75.2874 26.4063 75.5347 26.145V24.934ZM71.5727 21.819C72.3987 21.063 73.3927 20.685 74.5547 20.685C74.9747 20.685 75.3504 20.755 75.6817 20.895C76.0131 21.0303 76.2931 21.2217 76.5217 21.469C76.7504 21.7117 76.9231 22.0033 77.0397 22.344C77.1611 22.6847 77.2217 23.058 77.2217 23.464V28H76.4377C76.2744 28 76.1484 27.9767 76.0597 27.93C75.9711 27.8787 75.9011 27.7783 75.8497 27.629L75.6957 27.111C75.5137 27.2743 75.3364 27.419 75.1637 27.545C74.9911 27.6663 74.8114 27.769 74.6247 27.853C74.4381 27.937 74.2374 28 74.0227 28.042C73.8127 28.0887 73.5794 28.112 73.3227 28.112C73.0194 28.112 72.7394 28.0723 72.4827 27.993C72.2261 27.909 72.0044 27.7853 71.8177 27.622C71.6311 27.4587 71.4864 27.2557 71.3837 27.013C71.2811 26.7703 71.2297 26.488 71.2297 26.166C71.2297 25.984 71.2601 25.8043 71.3207 25.627C71.3814 25.445 71.4794 25.2723 71.6147 25.109C71.7547 24.9457 71.9344 24.7917 72.1537 24.647C72.3731 24.5023 72.6414 24.3763 72.9587 24.269C73.2807 24.1617 73.6541 24.0753 74.0787 24.01C74.5034 23.94 74.9887 23.898 75.5347 23.884V23.464C75.5347 22.9833 75.4321 22.6287 75.2267 22.4C75.0214 22.1667 74.7251 22.05 74.3377 22.05C74.0577 22.05 73.8244 22.0827 73.6377 22.148C73.4557 22.2133 73.2947 22.288 73.1547 22.372C73.0147 22.4513 72.8864 22.5237 72.7697 22.589C72.6577 22.6543 72.5317 22.687 72.3917 22.687C72.2704 22.687 72.1677 22.6567 72.0837 22.596C71.9997 22.5307 71.9321 22.456 71.8807 22.372L71.5727 21.819ZM80.4671 21.7C80.6118 21.5553 80.7634 21.4223 80.9221 21.301C81.0854 21.175 81.2558 21.07 81.4331 20.986C81.6151 20.8973 81.8088 20.8297 82.0141 20.783C82.2194 20.7317 82.4434 20.706 82.6861 20.706C83.0781 20.706 83.4258 20.7737 83.7291 20.909C84.0324 21.0397 84.2844 21.2263 84.4851 21.469C84.6904 21.707 84.8444 21.994 84.9471 22.33C85.0544 22.6613 85.1081 23.0277 85.1081 23.429V28H83.3791V23.429C83.3791 22.9903 83.2788 22.652 83.0781 22.414C82.8774 22.1713 82.5718 22.05 82.1611 22.05C81.8624 22.05 81.5824 22.1177 81.3211 22.253C81.0598 22.3883 80.8124 22.5727 80.5791 22.806V28H78.8501V20.818H79.9071C80.1311 20.818 80.2781 20.923 80.3481 21.133L80.4671 21.7ZM88.4814 21.588C88.7614 21.3267 89.0694 21.1143 89.4054 20.951C89.7414 20.7877 90.1358 20.706 90.5884 20.706C90.9804 20.706 91.3281 20.7737 91.6314 20.909C91.9348 21.0397 92.1868 21.2263 92.3874 21.469C92.5928 21.707 92.7468 21.994 92.8494 22.33C92.9568 22.6613 93.0104 23.0277 93.0104 23.429V28H91.2814V23.429C91.2814 22.9903 91.1811 22.652 90.9804 22.414C90.7798 22.1713 90.4741 22.05 90.0634 22.05C89.7648 22.05 89.4848 22.1177 89.2234 22.253C88.9621 22.3883 88.7148 22.5727 88.4814 22.806V28H86.7524V17.598H88.4814V21.588ZM98.4488 24.934C97.9494 24.9573 97.5294 25.0017 97.1888 25.067C96.8481 25.1277 96.5751 25.207 96.3698 25.305C96.1644 25.403 96.0174 25.5173 95.9288 25.648C95.8401 25.7787 95.7958 25.921 95.7958 26.075C95.7958 26.3783 95.8844 26.5953 96.0618 26.726C96.2438 26.8567 96.4794 26.922 96.7688 26.922C97.1234 26.922 97.4291 26.859 97.6858 26.733C97.9471 26.6023 98.2014 26.4063 98.4488 26.145V24.934ZM94.4868 21.819C95.3128 21.063 96.3068 20.685 97.4688 20.685C97.8888 20.685 98.2644 20.755 98.5958 20.895C98.9271 21.0303 99.2071 21.2217 99.4358 21.469C99.6644 21.7117 99.8371 22.0033 99.9538 22.344C100.075 22.6847 100.136 23.058 100.136 23.464V28H99.3518C99.1884 28 99.0624 27.9767 98.9738 27.93C98.8851 27.8787 98.8151 27.7783 98.7638 27.629L98.6098 27.111C98.4278 27.2743 98.2504 27.419 98.0778 27.545C97.9051 27.6663 97.7254 27.769 97.5388 27.853C97.3521 27.937 97.1514 28 96.9368 28.042C96.7268 28.0887 96.4934 28.112 96.2368 28.112C95.9334 28.112 95.6534 28.0723 95.3968 27.993C95.1401 27.909 94.9184 27.7853 94.7318 27.622C94.5451 27.4587 94.4004 27.2557 94.2978 27.013C94.1951 26.7703 94.1438 26.488 94.1438 26.166C94.1438 25.984 94.1741 25.8043 94.2348 25.627C94.2954 25.445 94.3934 25.2723 94.5288 25.109C94.6688 24.9457 94.8484 24.7917 95.0678 24.647C95.2871 24.5023 95.5554 24.3763 95.8728 24.269C96.1948 24.1617 96.5681 24.0753 96.9928 24.01C97.4174 23.94 97.9028 23.898 98.4488 23.884V23.464C98.4488 22.9833 98.3461 22.6287 98.1408 22.4C97.9354 22.1667 97.6391 22.05 97.2518 22.05C96.9718 22.05 96.7384 22.0827 96.5518 22.148C96.3698 22.2133 96.2088 22.288 96.0688 22.372C95.9288 22.4513 95.8004 22.5237 95.6838 22.589C95.5718 22.6543 95.4458 22.687 95.3058 22.687C95.1844 22.687 95.0818 22.6567 94.9978 22.596C94.9138 22.5307 94.8461 22.456 94.7948 22.372L94.4868 21.819ZM103.395 22.064C103.619 21.6347 103.885 21.2987 104.193 21.056C104.501 20.8087 104.865 20.685 105.285 20.685C105.616 20.685 105.882 20.7573 106.083 20.902L105.971 22.197C105.948 22.281 105.913 22.3417 105.866 22.379C105.824 22.4117 105.766 22.428 105.691 22.428C105.621 22.428 105.516 22.4163 105.376 22.393C105.241 22.3697 105.108 22.358 104.977 22.358C104.786 22.358 104.615 22.386 104.466 22.442C104.317 22.498 104.181 22.5797 104.06 22.687C103.943 22.7897 103.838 22.9157 103.745 23.065C103.656 23.2143 103.572 23.3847 103.493 23.576V28H101.764V20.818H102.779C102.956 20.818 103.08 20.8507 103.15 20.916C103.22 20.9767 103.267 21.0887 103.29 21.252L103.395 22.064ZM113.653 22.967C113.999 22.967 114.3 22.925 114.556 22.841C114.813 22.7523 115.025 22.6287 115.193 22.47C115.366 22.3067 115.494 22.1107 115.578 21.882C115.662 21.6487 115.704 21.3897 115.704 21.105C115.704 20.8343 115.662 20.5893 115.578 20.37C115.494 20.1507 115.368 19.964 115.2 19.81C115.032 19.656 114.82 19.5393 114.563 19.46C114.307 19.376 114.003 19.334 113.653 19.334H112.246V22.967H113.653ZM113.653 17.878C114.33 17.878 114.916 17.9573 115.41 18.116C115.905 18.2747 116.313 18.4963 116.635 18.781C116.957 19.0657 117.195 19.4063 117.349 19.803C117.508 20.1997 117.587 20.6337 117.587 21.105C117.587 21.595 117.506 22.0453 117.342 22.456C117.179 22.862 116.934 23.212 116.607 23.506C116.281 23.8 115.87 24.0287 115.375 24.192C114.885 24.3553 114.311 24.437 113.653 24.437H112.246V28H110.363V17.878H113.653ZM123.057 23.583C123.057 23.359 123.025 23.149 122.959 22.953C122.899 22.7523 122.805 22.5773 122.679 22.428C122.553 22.2787 122.392 22.162 122.196 22.078C122.005 21.9893 121.781 21.945 121.524 21.945C121.025 21.945 120.631 22.0873 120.341 22.372C120.057 22.6567 119.875 23.0603 119.795 23.583H123.057ZM119.76 24.626C119.788 24.9947 119.854 25.3143 119.956 25.585C120.059 25.851 120.194 26.0727 120.362 26.25C120.53 26.4227 120.729 26.5533 120.957 26.642C121.191 26.726 121.447 26.768 121.727 26.768C122.007 26.768 122.248 26.7353 122.448 26.67C122.654 26.6047 122.831 26.5323 122.98 26.453C123.134 26.3737 123.267 26.3013 123.379 26.236C123.496 26.1707 123.608 26.138 123.715 26.138C123.86 26.138 123.967 26.1917 124.037 26.299L124.534 26.929C124.343 27.153 124.128 27.342 123.89 27.496C123.652 27.6453 123.403 27.7667 123.141 27.86C122.885 27.9487 122.621 28.0117 122.35 28.049C122.084 28.0863 121.825 28.105 121.573 28.105C121.074 28.105 120.61 28.0233 120.18 27.86C119.751 27.692 119.378 27.447 119.06 27.125C118.743 26.7983 118.493 26.397 118.311 25.921C118.129 25.4403 118.038 24.885 118.038 24.255C118.038 23.765 118.118 23.3053 118.276 22.876C118.435 22.442 118.661 22.0663 118.955 21.749C119.254 21.427 119.616 21.1727 120.04 20.986C120.47 20.7993 120.953 20.706 121.489 20.706C121.942 20.706 122.36 20.7783 122.742 20.923C123.125 21.0677 123.454 21.28 123.729 21.56C124.005 21.8353 124.219 22.176 124.373 22.582C124.532 22.9833 124.611 23.443 124.611 23.961C124.611 24.2223 124.583 24.3997 124.527 24.493C124.471 24.5817 124.364 24.626 124.205 24.626H119.76ZM130.417 22.652C130.221 22.414 130.006 22.246 129.773 22.148C129.544 22.05 129.297 22.001 129.031 22.001C128.769 22.001 128.534 22.05 128.324 22.148C128.114 22.246 127.934 22.3953 127.785 22.596C127.635 22.792 127.521 23.044 127.442 23.352C127.362 23.6553 127.323 24.0147 127.323 24.43C127.323 24.85 127.355 25.207 127.421 25.501C127.491 25.7903 127.589 26.0283 127.715 26.215C127.841 26.397 127.995 26.53 128.177 26.614C128.359 26.6933 128.562 26.733 128.786 26.733C129.145 26.733 129.451 26.6583 129.703 26.509C129.955 26.3597 130.193 26.1473 130.417 25.872V22.652ZM132.146 17.598V28H131.089C130.86 28 130.715 27.895 130.655 27.685L130.508 26.992C130.218 27.3233 129.885 27.5917 129.507 27.797C129.133 28.0023 128.697 28.105 128.198 28.105C127.806 28.105 127.446 28.0233 127.12 27.86C126.793 27.6967 126.511 27.461 126.273 27.153C126.039 26.8403 125.857 26.4553 125.727 25.998C125.601 25.5407 125.538 25.018 125.538 24.43C125.538 23.898 125.61 23.4033 125.755 22.946C125.899 22.4887 126.107 22.092 126.378 21.756C126.648 21.42 126.973 21.1587 127.351 20.972C127.729 20.7807 128.153 20.685 128.625 20.685C129.026 20.685 129.369 20.748 129.654 20.874C129.938 21 130.193 21.1703 130.417 21.385V17.598H132.146ZM135.644 20.818V28H133.908V20.818H135.644ZM135.882 18.725C135.882 18.8743 135.852 19.0143 135.791 19.145C135.73 19.2757 135.649 19.39 135.546 19.488C135.448 19.586 135.331 19.6653 135.196 19.726C135.061 19.782 134.916 19.81 134.762 19.81C134.613 19.81 134.47 19.782 134.335 19.726C134.204 19.6653 134.09 19.586 133.992 19.488C133.894 19.39 133.815 19.2757 133.754 19.145C133.698 19.0143 133.67 18.8743 133.67 18.725C133.67 18.571 133.698 18.4263 133.754 18.291C133.815 18.1557 133.894 18.039 133.992 17.941C134.09 17.843 134.204 17.766 134.335 17.71C134.47 17.6493 134.613 17.619 134.762 17.619C134.916 17.619 135.061 17.6493 135.196 17.71C135.331 17.766 135.448 17.843 135.546 17.941C135.649 18.039 135.73 18.1557 135.791 18.291C135.852 18.4263 135.882 18.571 135.882 18.725ZM141.915 22.652C141.719 22.414 141.504 22.246 141.271 22.148C141.042 22.05 140.795 22.001 140.529 22.001C140.267 22.001 140.032 22.05 139.822 22.148C139.612 22.246 139.432 22.3953 139.283 22.596C139.133 22.792 139.019 23.044 138.94 23.352C138.86 23.6553 138.821 24.0147 138.821 24.43C138.821 24.85 138.853 25.207 138.919 25.501C138.989 25.7903 139.087 26.0283 139.213 26.215C139.339 26.397 139.493 26.53 139.675 26.614C139.857 26.6933 140.06 26.733 140.284 26.733C140.643 26.733 140.949 26.6583 141.201 26.509C141.453 26.3597 141.691 26.1473 141.915 25.872V22.652ZM143.644 17.598V28H142.587C142.358 28 142.213 27.895 142.153 27.685L142.006 26.992C141.716 27.3233 141.383 27.5917 141.005 27.797C140.631 28.0023 140.195 28.105 139.696 28.105C139.304 28.105 138.944 28.0233 138.618 27.86C138.291 27.6967 138.009 27.461 137.771 27.153C137.537 26.8403 137.355 26.4553 137.225 25.998C137.099 25.5407 137.036 25.018 137.036 24.43C137.036 23.898 137.108 23.4033 137.253 22.946C137.397 22.4887 137.605 22.092 137.876 21.756C138.146 21.42 138.471 21.1587 138.849 20.972C139.227 20.7807 139.651 20.685 140.123 20.685C140.524 20.685 140.867 20.748 141.152 20.874C141.436 21 141.691 21.1703 141.915 21.385V17.598H143.644ZM148.528 20.706C149.06 20.706 149.543 20.7923 149.977 20.965C150.416 21.1377 150.789 21.3827 151.097 21.7C151.41 22.0173 151.65 22.4047 151.818 22.862C151.986 23.3193 152.07 23.8303 152.07 24.395C152.07 24.9643 151.986 25.4777 151.818 25.935C151.65 26.3923 151.41 26.782 151.097 27.104C150.789 27.426 150.416 27.6733 149.977 27.846C149.543 28.0187 149.06 28.105 148.528 28.105C147.991 28.105 147.504 28.0187 147.065 27.846C146.626 27.6733 146.251 27.426 145.938 27.104C145.63 26.782 145.39 26.3923 145.217 25.935C145.049 25.4777 144.965 24.9643 144.965 24.395C144.965 23.8303 145.049 23.3193 145.217 22.862C145.39 22.4047 145.63 22.0173 145.938 21.7C146.251 21.3827 146.626 21.1377 147.065 20.965C147.504 20.7923 147.991 20.706 148.528 20.706ZM148.528 26.775C149.125 26.775 149.566 26.5743 149.851 26.173C150.14 25.7717 150.285 25.1837 150.285 24.409C150.285 23.6343 150.14 23.044 149.851 22.638C149.566 22.232 149.125 22.029 148.528 22.029C147.921 22.029 147.471 22.2343 147.177 22.645C146.888 23.051 146.743 23.639 146.743 24.409C146.743 25.179 146.888 25.767 147.177 26.173C147.471 26.5743 147.921 26.775 148.528 26.775Z" fill="#1E96FC"/>
</svg>
