<svg width="409" height="412" viewBox="0 0 409 412" fill="none" xmlns="http://www.w3.org/2000/svg">
<path d="M353.312 69.875H319.562C318.812 32.9375 287.875 0.125 245.312 0.125C202.938 0.125 171.812 32.9375 171.062 69.875H137.5C100.938 69.875 82.1875 88.25 82.1875 124.625V204.125C85.9375 203.75 89.875 203.375 93.625 203.375C97.5625 203.375 101.5 203.75 105.438 204.125V125.75C105.438 104.188 116.875 92.9375 137.875 92.9375H352.75C373.562 92.9375 385.375 104.188 385.375 125.75V319.625C385.375 341.375 373.562 352.438 356.5 352.438H202.938C200.688 360.688 197.5 368.562 193.375 375.688H357.062C389.875 375.688 408.625 356.938 408.625 320.938V124.625C408.625 88.4375 389.875 69.875 353.312 69.875ZM245.312 22.25C275.5 22.25 295.75 44.75 296.5 69.875H194.312C195.062 44.75 215.312 22.25 245.312 22.25ZM93.8125 411.5C144.438 411.5 187 369.312 187 318.125C187 267.125 145 224.938 93.8125 224.938C42.8125 224.938 0.625 267.125 0.625 318.125C0.625 369.5 42.8125 411.5 93.8125 411.5ZM44.5 328.25C39.0625 328.25 34.5625 323.562 34.5625 318.125C34.5625 312.875 39.0625 308.188 44.5 308.188H142.938C148.375 308.188 152.875 312.875 152.875 318.125C152.875 323.562 148.375 328.25 142.938 328.25H44.5Z" fill="#561643"/>
</svg>
