<svg width="327" height="376" viewBox="0 0 327 376" fill="none" xmlns="http://www.w3.org/2000/svg">
<path d="M55.5 375.688H275.062C307.875 375.688 326.625 356.938 326.625 320.938V124.625C326.625 88.4375 307.875 69.875 271.312 69.875H237.562C236.812 32.9375 205.875 0.125 163.312 0.125C120.938 0.125 89.8125 32.9375 89.0625 69.875H55.5C18.9375 69.875 0.1875 88.25 0.1875 124.625V320.938C0.1875 357.125 18.9375 375.688 55.5 375.688ZM163.312 22.25C193.5 22.25 213.75 44.75 214.5 69.875H112.312C113.062 44.75 133.312 22.25 163.312 22.25Z" fill="#561643"/>
</svg>
