<svg width="22" height="25" viewBox="0 0 22 25" fill="none" xmlns="http://www.w3.org/2000/svg">
<path d="M4.25 24.168H17.9727C20.0234 24.168 21.1953 22.9961 21.1953 20.7461V8.47656C21.1953 6.21484 20.0234 5.05469 17.7383 5.05469H15.6289C15.582 2.74609 13.6484 0.695312 10.9883 0.695312C8.33984 0.695312 6.39453 2.74609 6.34766 5.05469H4.25C1.96484 5.05469 0.792969 6.20312 0.792969 8.47656V20.7461C0.792969 23.0078 1.96484 24.168 4.25 24.168ZM10.9883 2.07812C12.875 2.07812 14.1406 3.48438 14.1875 5.05469H7.80078C7.84766 3.48438 9.11328 2.07812 10.9883 2.07812ZM4.27344 22.7148C2.96094 22.7148 2.24609 22.0234 2.24609 20.6641V8.54688C2.24609 7.19922 2.96094 6.49609 4.27344 6.49609H17.7031C19.0039 6.49609 19.7422 7.19922 19.7422 8.54688V20.6641C19.7422 22.0234 19.0039 22.7148 17.9375 22.7148H4.27344Z" fill="#561643"/>
</svg>
