<svg width="512" height="512" viewBox="0 0 512 512" fill="none" xmlns="http://www.w3.org/2000/svg">
<path d="M152 152H136V168H152V152Z" fill="#561643"/>
<path d="M232 152H216V168H232V152Z" fill="#561643"/>
<path d="M216 200H200C200 204.243 198.314 208.313 195.314 211.314C192.313 214.314 188.243 216 184 216C179.757 216 175.687 214.314 172.686 211.314C169.686 208.313 168 204.243 168 200H152C152 208.487 155.371 216.626 161.373 222.627C167.374 228.629 175.513 232 184 232C192.487 232 200.626 228.629 206.627 222.627C212.629 216.626 216 208.487 216 200Z" fill="#561643"/>
<path d="M144 192C152.487 192 160.626 188.629 166.627 182.627C172.629 176.626 176 168.487 176 160C176 157.878 176.843 155.843 178.343 154.343C179.843 152.843 181.878 152 184 152C186.122 152 188.157 152.843 189.657 154.343C191.157 155.843 192 157.878 192 160C191.939 167.688 194.621 175.145 199.564 181.033C204.507 186.921 211.388 190.854 218.97 192.125C226.552 193.395 234.339 191.921 240.932 187.966C247.525 184.012 252.492 177.836 254.94 170.548C257.389 163.261 257.159 155.339 254.291 148.206C251.424 141.072 246.107 135.195 239.296 131.63C232.485 128.065 224.625 127.045 217.13 128.753C209.634 130.462 202.993 134.787 198.4 140.952C194.271 137.742 189.19 136 183.96 136C178.73 136 173.649 137.742 169.52 140.952C166.26 136.579 161.935 133.113 156.956 130.884C151.978 128.656 146.512 127.739 141.078 128.221C135.645 128.703 130.426 130.568 125.918 133.638C121.409 136.708 117.762 140.882 115.323 145.761C112.884 150.639 111.734 156.061 111.984 161.51C112.233 166.959 113.874 172.253 116.749 176.889C119.623 181.524 123.637 185.346 128.407 187.992C133.178 190.637 138.545 192.017 144 192V192ZM224 144C227.165 144 230.258 144.938 232.889 146.696C235.52 148.455 237.571 150.953 238.782 153.877C239.993 156.801 240.31 160.018 239.693 163.121C239.075 166.225 237.551 169.076 235.314 171.314C233.076 173.551 230.225 175.075 227.121 175.693C224.018 176.31 220.801 175.993 217.877 174.782C214.953 173.571 212.455 171.52 210.696 168.889C208.938 166.258 208 163.164 208 160C208 155.757 209.686 151.687 212.686 148.686C215.687 145.686 219.757 144 224 144V144ZM144 144C147.164 144 150.258 144.938 152.889 146.696C155.52 148.455 157.571 150.953 158.782 153.877C159.993 156.801 160.31 160.018 159.693 163.121C159.075 166.225 157.551 169.076 155.314 171.314C153.076 173.551 150.225 175.075 147.121 175.693C144.018 176.31 140.801 175.993 137.877 174.782C134.953 173.571 132.455 171.52 130.696 168.889C128.938 166.258 128 163.164 128 160C128 155.757 129.686 151.687 132.686 148.686C135.687 145.686 139.757 144 144 144V144Z" fill="#561643"/>
<path d="M480 224H320C315.757 224 311.687 225.686 308.686 228.686C305.686 231.687 304 235.757 304 240V316.472C299.572 314.231 294.967 312.358 290.232 310.872L224 290.12V262.288C238.433 254.923 250.552 243.716 259.022 229.902C267.491 216.088 271.982 200.204 272 184V176C278.365 176 284.47 173.471 288.971 168.971C293.471 164.47 296 158.365 296 152C296 145.635 293.471 139.53 288.971 135.029C284.47 130.529 278.365 128 272 128V104C272 80.6609 262.729 58.2778 246.225 41.7746C229.722 25.2714 207.339 16 184 16C160.661 16 138.278 25.2714 121.775 41.7746C105.271 58.2778 96 80.6609 96 104V128C89.6348 128 83.5303 130.529 79.0294 135.029C74.5286 139.53 72 145.635 72 152C72 158.365 74.5286 164.47 79.0294 168.971C83.5303 173.471 89.6348 176 96 176V184C96.0176 200.204 100.509 216.088 108.978 229.902C117.448 243.716 129.567 254.923 144 262.288V290.12L77.784 310.832C59.8445 316.355 44.1552 327.498 33.0307 342.617C21.9063 357.736 15.9358 376.03 16 394.8V488C16 490.122 16.8429 492.157 18.3431 493.657C19.8434 495.157 21.8783 496 24 496H344C346.122 496 348.157 495.157 349.657 493.657C351.157 492.157 352 490.122 352 488V464H480C484.243 464 488.313 462.314 491.314 459.314C494.314 456.313 496 452.243 496 448V240C496 235.757 494.314 231.687 491.314 228.686C488.313 225.686 484.243 224 480 224ZM480 240V312H472V240H480ZM392.72 448H359.28C357.604 438.192 352.925 429.146 345.889 422.111C338.854 415.075 329.808 410.396 320 408.72V279.28C329.808 277.605 338.855 272.926 345.891 265.891C352.927 258.855 357.605 249.808 359.28 240H392.728C394.402 249.808 399.078 258.854 406.113 265.89C413.147 272.926 422.193 277.604 432 279.28V408.72C422.192 410.396 413.146 415.075 406.111 422.111C399.075 429.146 394.396 438.192 392.72 448ZM320 448V425.136C325.498 426.574 330.514 429.449 334.532 433.468C338.551 437.486 341.426 442.502 342.864 448H320ZM448 328H456V360H448V328ZM472 328H480V360H472V328ZM456 240V312H448V240H456ZM432 262.864C426.501 261.431 421.484 258.556 417.466 254.537C413.448 250.518 410.576 245.5 409.144 240H432V262.864ZM342.864 240C341.426 245.498 338.551 250.514 334.532 254.532C330.514 258.551 325.498 261.426 320 262.864V240H342.864ZM226.504 307.664L230.928 337.4L198.464 342.808L219.752 305.552L226.504 307.664ZM179.312 376L171.312 368L179.312 360H188.688L196.688 368L188.688 376H179.312ZM280 152C280 154.122 279.157 156.157 277.657 157.657C276.157 159.157 274.122 160 272 160V144C274.122 144 276.157 144.843 277.657 146.343C279.157 147.843 280 149.878 280 152ZM184 32C203.089 32.0212 221.39 39.6137 234.888 53.1117C248.386 66.6097 255.979 84.9109 256 104V117.912C245.488 112.848 236.56 98.392 233.408 79.632C233.212 78.4711 232.762 77.3678 232.091 76.4007C231.419 75.4337 230.542 74.6268 229.523 74.0377C228.504 73.4486 227.367 73.0917 226.194 72.9925C225.02 72.8933 223.84 73.0543 222.736 73.464C197.621 82.0238 170.379 82.0238 145.264 73.464C144.16 73.0543 142.98 72.8933 141.806 72.9925C140.633 73.0917 139.496 73.4486 138.477 74.0377C137.458 74.6268 136.581 75.4337 135.909 76.4007C135.238 77.3678 134.788 78.4711 134.592 79.632C131.44 98.4 122.512 112.848 112 117.912V104C112.021 84.9109 119.614 66.6097 133.112 53.1117C146.61 39.6137 164.911 32.0212 184 32ZM88 152C88 149.878 88.8429 147.843 90.3431 146.343C91.8434 144.843 93.8783 144 96 144V160C93.8783 160 91.8434 159.157 90.3431 157.657C88.8429 156.157 88 154.122 88 152ZM112 184V134.936C128.416 130.832 142.272 114.352 148.424 91.28C171.735 97.4878 196.265 97.4878 219.576 91.28C225.728 114.352 239.576 130.832 256 134.936V184C256 203.096 248.414 221.409 234.912 234.912C221.409 248.414 203.096 256 184 256C164.904 256 146.591 248.414 133.088 234.912C119.586 221.409 112 203.096 112 184ZM184 272C192.119 271.98 200.196 270.833 208 268.592V293.88L184 335.872L160 293.88V268.592C167.804 270.833 175.881 271.98 184 272ZM148.248 305.552L169.536 342.808L137.072 337.4L141.496 307.664L148.248 305.552ZM32 394.8C31.9473 379.444 36.8327 364.477 45.935 352.109C55.0374 339.742 67.8745 330.627 82.552 326.112L124.528 312.976L120.088 342.824C119.78 344.897 120.299 347.008 121.532 348.703C122.764 350.398 124.613 351.542 126.68 351.888L159.352 357.336L154.344 362.344C152.844 363.844 152.002 365.879 152.002 368C152.002 370.121 152.844 372.156 154.344 373.656L167.32 386.632L152.16 462.4C151.881 463.763 151.967 465.176 152.408 466.496L156.896 480H88V384H72V480H32V394.8ZM173.768 480L168.264 463.488L182.56 392H185.44L199.736 463.488L194.232 480H173.768ZM336 480H296V384H280V480H211.104L215.592 466.528C216.033 465.208 216.119 463.795 215.84 462.432L200.68 386.632L213.656 373.656C215.156 372.156 215.998 370.121 215.998 368C215.998 365.879 215.156 363.844 213.656 362.344L208.648 357.336L241.32 351.888C243.387 351.542 245.236 350.398 246.468 348.703C247.701 347.008 248.22 344.897 247.912 342.824L243.472 312.976L285.432 326.104C292.035 328.233 298.29 331.316 304 335.256V448C304 452.243 305.686 456.313 308.686 459.314C311.687 462.314 315.757 464 320 464H336V480ZM409.008 448C410.461 442.488 413.357 437.462 417.398 433.442C421.44 429.422 426.48 426.552 432 425.128V448H409.008ZM448 448V376H456V448H448ZM472 448V376H480V448H472Z" fill="#561643"/>
<path d="M376 304C368.089 304 360.355 306.346 353.777 310.741C347.199 315.136 342.072 321.384 339.045 328.693C336.017 336.002 335.225 344.044 336.769 351.804C338.312 359.563 342.122 366.69 347.716 372.284C353.31 377.878 360.437 381.688 368.196 383.231C375.956 384.775 383.998 383.983 391.307 380.955C398.616 377.928 404.864 372.801 409.259 366.223C413.654 359.645 416 351.911 416 344C415.987 333.395 411.769 323.228 404.27 315.73C396.772 308.231 386.605 304.013 376 304V304ZM376 368C371.253 368 366.613 366.592 362.666 363.955C358.72 361.318 355.643 357.57 353.827 353.184C352.01 348.799 351.535 343.973 352.461 339.318C353.387 334.662 355.673 330.386 359.029 327.029C362.386 323.673 366.662 321.387 371.318 320.461C375.973 319.535 380.799 320.01 385.184 321.827C389.57 323.643 393.318 326.72 395.955 330.666C398.592 334.613 400 339.253 400 344C400 350.365 397.471 356.47 392.971 360.971C388.47 365.471 382.365 368 376 368V368Z" fill="#561643"/>
</svg>
