<svg width="375" height="403" viewBox="0 0 375 403" fill="none" xmlns="http://www.w3.org/2000/svg">
<path d="M23.25 314.438L173.062 398.25C182.812 403.688 192 403.688 201.75 398.25L351.75 314.438C367.312 305.438 374.812 296.438 374.812 274.125V119.438C374.812 104.062 368.438 94.3125 355.875 87L215.812 8.25C197.062 -2.4375 177.938 -2.4375 159.188 8.25L19.125 87C6.375 94.3125 0.1875 104.062 0.1875 119.438V274.125C0.1875 296.438 7.6875 305.438 23.25 314.438ZM277.125 140.25L123 54.5625L169.875 28.3125C181.875 21.5625 193.125 21.375 205.125 28.3125L340.875 104.812L277.125 140.25ZM187.5 190.125L33.9375 104.812L100.125 67.5L253.875 153.188L187.5 190.125ZM37.3125 296.062C25.6875 289.5 22.6875 283.688 22.6875 273.188V124.5L176.062 210.375V373.312L37.3125 296.062ZM337.688 296.062L198.938 373.312V210.375L352.312 124.5V273.188C352.312 283.688 349.312 289.5 337.688 296.062Z" fill="#561643"/>
</svg>
