<svg width="372" height="340" viewBox="0 0 372 340" fill="none" xmlns="http://www.w3.org/2000/svg">
<path d="M55.5 339.688H316.312C352.875 339.688 371.625 320.938 371.625 284.938V55.0625C371.625 18.875 352.875 0.125 316.312 0.125H55.5C18.9375 0.125 0.1875 18.6875 0.1875 55.0625V284.938C0.1875 321.125 18.9375 339.688 55.5 339.688ZM53.8125 316.438C34.125 316.438 23.4375 306.125 23.4375 285.875V114.312C23.4375 94.0625 34.125 83.5625 53.8125 83.5625H317.812C337.125 83.5625 348.375 94.0625 348.375 114.312V285.875C348.375 306.125 337.125 316.438 317.812 316.438H53.8125ZM148.5 150.312H159.562C165.562 150.312 167.062 148.812 167.062 143V131.938C167.062 126.125 165.562 124.625 159.562 124.625H148.5C142.688 124.625 141 126.125 141 131.938V143C141 148.812 142.688 150.312 148.5 150.312ZM212.062 150.312H223.125C229.125 150.312 230.625 148.812 230.625 143V131.938C230.625 126.125 229.125 124.625 223.125 124.625H212.062C206.25 124.625 204.562 126.125 204.562 131.938V143C204.562 148.812 206.25 150.312 212.062 150.312ZM275.812 150.312H286.688C292.688 150.312 294.188 148.812 294.188 143V131.938C294.188 126.125 292.688 124.625 286.688 124.625H275.812C269.812 124.625 268.312 126.125 268.312 131.938V143C268.312 148.812 269.812 150.312 275.812 150.312ZM84.9375 212.75H96C102 212.75 103.5 211.438 103.5 205.625V194.562C103.5 188.75 102 187.25 96 187.25H84.9375C79.125 187.25 77.4375 188.75 77.4375 194.562V205.625C77.4375 211.438 79.125 212.75 84.9375 212.75ZM148.5 212.75H159.562C165.562 212.75 167.062 211.438 167.062 205.625V194.562C167.062 188.75 165.562 187.25 159.562 187.25H148.5C142.688 187.25 141 188.75 141 194.562V205.625C141 211.438 142.688 212.75 148.5 212.75ZM212.062 212.75H223.125C229.125 212.75 230.625 211.438 230.625 205.625V194.562C230.625 188.75 229.125 187.25 223.125 187.25H212.062C206.25 187.25 204.562 188.75 204.562 194.562V205.625C204.562 211.438 206.25 212.75 212.062 212.75ZM275.812 212.75H286.688C292.688 212.75 294.188 211.438 294.188 205.625V194.562C294.188 188.75 292.688 187.25 286.688 187.25H275.812C269.812 187.25 268.312 188.75 268.312 194.562V205.625C268.312 211.438 269.812 212.75 275.812 212.75ZM84.9375 275.375H96C102 275.375 103.5 274.062 103.5 268.25V257.188C103.5 251.375 102 249.875 96 249.875H84.9375C79.125 249.875 77.4375 251.375 77.4375 257.188V268.25C77.4375 274.062 79.125 275.375 84.9375 275.375ZM148.5 275.375H159.562C165.562 275.375 167.062 274.062 167.062 268.25V257.188C167.062 251.375 165.562 249.875 159.562 249.875H148.5C142.688 249.875 141 251.375 141 257.188V268.25C141 274.062 142.688 275.375 148.5 275.375ZM212.062 275.375H223.125C229.125 275.375 230.625 274.062 230.625 268.25V257.188C230.625 251.375 229.125 249.875 223.125 249.875H212.062C206.25 249.875 204.562 251.375 204.562 257.188V268.25C204.562 274.062 206.25 275.375 212.062 275.375Z" fill="#561643"/>
</svg>
