<svg width="350" height="336" viewBox="0 0 350 336" fill="none" xmlns="http://www.w3.org/2000/svg">
<path d="M136.938 335.062C150.062 335.062 160.375 330 167.5 319.5L342.062 53.4375C347.125 45.75 349.188 38.4375 349.188 31.6875C349.188 13.5 335.312 0 316.562 0C303.812 0 295.75 4.6875 287.875 16.875L136.188 256.125L59.3125 161.812C52.1875 153.188 44.3125 149.438 33.4375 149.438C14.5 149.438 0.8125 162.938 0.8125 181.312C0.8125 189.562 3.25 196.688 10.375 204.75L107.125 321C115.188 330.562 124.562 335.062 136.938 335.062Z" fill="white"/>
</svg>
