<svg width="340" height="340" viewBox="0 0 340 340" fill="none" xmlns="http://www.w3.org/2000/svg">
<path d="M55.4375 339.688H284.375C320.938 339.688 339.688 320.938 339.688 284.938V55.0625C339.688 18.875 320.938 0.125 284.375 0.125H55.4375C18.875 0.125 0.125 18.6875 0.125 55.0625V284.938C0.125 321.125 18.875 339.688 55.4375 339.688ZM55.8125 316.438C34.8125 316.438 23.375 305.375 23.375 283.625V56.1875C23.375 34.625 34.8125 23.375 55.8125 23.375H283.812C304.625 23.375 316.438 34.625 316.438 56.1875V283.625C316.438 305.375 304.625 316.438 283.812 316.438H55.8125ZM149.75 258.688C154.438 258.688 158.375 256.25 161.375 251.938L252.5 109.625C254 107 255.688 103.625 255.688 100.625C255.688 94.25 250.062 89.9375 244.062 89.9375C240.312 89.9375 236.562 92.1875 233.938 96.3125L149.188 230.375L105.875 177.125C102.5 172.625 99.3125 171.312 95.1875 171.312C89 171.312 84.125 176.375 84.125 182.75C84.125 185.938 85.4375 189.125 87.5 191.938L137.562 251.938C141.125 256.625 144.875 258.688 149.75 258.688Z" fill="#561643"/>
</svg>
