<svg width="192" height="333" viewBox="0 0 192 333" fill="none" xmlns="http://www.w3.org/2000/svg">
<path d="M0.4375 166.375C0.625 172.937 3.0625 178.562 8.125 183.625L154 326.312C158.312 330.438 163.375 332.688 169.562 332.688C182.125 332.688 191.875 322.938 191.875 310.375C191.875 304.375 189.438 298.75 185.125 294.438L53.875 166.375L185.125 38.3125C189.438 34 191.875 28.5625 191.875 22.375C191.875 9.8125 182.125 0.0625 169.563 0.0625C163.563 0.0625 158.313 2.3125 154 6.4375L8.125 149.312C2.875 154.187 0.4375 159.812 0.4375 166.375Z" fill="#561643"/>
</svg>
