<svg width="313" height="177" viewBox="0 0 313 177" fill="none" xmlns="http://www.w3.org/2000/svg">
<g clip-path="url(#clip0)">
<path d="M308.938 22.812L166.812 172.437C164 175.25 160.625 176.937 156.688 176.937C152.75 176.937 149.188 175.25 146.375 172.25L4.25 22.625C1.812 20.188 0.312012 17.188 0.312012 13.438C0.312012 6.125 5.938 0.5 13.25 0.5C16.625 0.5 20.188 1.812 22.625 4.25L156.5 145.062L290.75 4.25C293 1.812 296.375 0.5 299.938 0.5C307.25 0.5 312.875 6.125 312.875 13.438C312.875 17.188 311.375 20.375 308.938 22.812Z" fill="#561643"/>
</g>
<defs>
<clipPath id="clip0">
<rect width="313" height="177" fill="white" transform="translate(313 177) rotate(-180)"/>
</clipPath>
</defs>
</svg>
