<svg width="313" height="177" viewBox="0 0 313 177" fill="none" xmlns="http://www.w3.org/2000/svg">
<path d="M4.0625 154.188L146.188 4.5625C149 1.75 152.375 0.0625 156.312 0.0625C160.25 0.0625 163.812 1.75 166.625 4.75L308.75 154.375C311.188 156.812 312.688 159.812 312.688 163.562C312.688 170.875 307.062 176.5 299.75 176.5C296.375 176.5 292.812 175.188 290.375 172.75L156.5 31.9375L22.25 172.75C20 175.188 16.625 176.5 13.0625 176.5C5.75 176.5 0.125 170.875 0.125 163.562C0.125 159.812 1.625 156.625 4.0625 154.188Z" fill="#561643"/>
</svg>
