<svg width="10" height="16" viewBox="0 0 10 16" fill="none" xmlns="http://www.w3.org/2000/svg">
<path d="M2.11819 0.207687L9.76678 7.47289C9.91055 7.61663 9.99681 7.78916 9.99681 7.99041C9.99681 8.19171 9.91055 8.3738 9.75719 8.51759L2.10863 15.7828C1.98406 15.9074 1.8307 15.9841 1.63901 15.9841C1.26518 15.9841 0.977642 15.6965 0.977642 15.3227C0.977642 15.1502 1.04471 14.968 1.16934 14.8435L8.36742 8.00002L1.16934 1.1374C1.04471 1.02238 0.977642 0.849859 0.977642 0.667751C0.977642 0.293949 1.26518 0.00640869 1.63901 0.00640869C1.8307 0.00640869 1.99362 0.083086 2.11819 0.207687Z" fill="#561643"/>
</svg>
