<svg width="26" height="25" viewBox="0 0 26 25" fill="none" xmlns="http://www.w3.org/2000/svg">
<path d="M13 24.9609C19.8086 24.9609 25.4102 19.3594 25.4102 12.5508C25.4102 5.73047 19.8086 0.128906 12.9883 0.128906C6.16797 0.128906 0.578125 5.73047 0.578125 12.5508C0.578125 19.3594 6.17969 24.9609 13 24.9609ZM9.56641 18.2109C8.74609 18.2109 8.17188 17.6602 8.17188 16.8867C8.17188 16.5117 8.28906 16.2188 8.58203 15.832L11.0664 12.4805L8.66406 9.23438C8.35938 8.83594 8.23047 8.51953 8.23047 8.13281C8.23047 7.35938 8.82812 6.79688 9.66016 6.79688C10.2812 6.79688 10.6328 7.03125 11.0898 7.74609L13.0117 10.6406H13.1172L14.9688 7.74609C15.3906 7.04297 15.7539 6.79688 16.3867 6.79688C17.207 6.79688 17.7812 7.33594 17.7812 8.10938C17.7812 8.47266 17.6641 8.80078 17.3594 9.1875L14.8867 12.5039L17.3477 15.7969C17.6406 16.1836 17.7695 16.5 17.7695 16.875C17.7695 17.6602 17.1953 18.2109 16.3516 18.2109C15.7188 18.2109 15.3672 17.9648 14.9219 17.2383L13.0352 14.3555H12.9414L10.9961 17.2383C10.5156 17.9766 10.1875 18.2109 9.56641 18.2109Z" fill="#DE3C4B"/>
</svg>
