<svg width="384" height="384" viewBox="0 0 384 384" fill="none" xmlns="http://www.w3.org/2000/svg">
<path d="M320 144H176C158.327 144 144 158.327 144 176V320C144 337.673 158.327 352 176 352H320C337.673 352 352 337.673 352 320V176C352 158.327 337.673 144 320 144Z" stroke="#440044" stroke-width="32" stroke-linecap="round" stroke-linejoin="round"/>
<path d="M80 240H64C55.5131 240 47.3737 236.629 41.3726 230.627C35.3714 224.626 32 216.487 32 208V64C32 55.5131 35.3714 47.3737 41.3726 41.3726C47.3737 35.3714 55.5131 32 64 32H208C216.487 32 224.626 35.3714 230.627 41.3726C236.629 47.3737 240 55.5131 240 64V80" stroke="#440044" stroke-width="32" stroke-linecap="round" stroke-linejoin="round"/>
</svg>
