<svg width="512" height="458" viewBox="0 0 512 458" fill="none" xmlns="http://www.w3.org/2000/svg">
<path d="M30.0625 319.875C30.0625 327 32.875 331.5 38.875 334.312C60.25 344.812 71.875 355.875 83.875 380.625C87.0625 386.438 91.75 389.438 98.125 389.438H413.688C420.062 389.438 424.75 386.438 427.938 380.625C439.938 355.875 451.375 344.812 472.938 334.312C478.938 331.5 481.75 327 481.75 319.875V141.188C481.75 134.062 478.938 129.562 472.938 126.75C451.375 116.438 439.938 105.188 427.938 80.625C424.75 74.8125 420.062 71.8125 413.688 71.8125H98.125C91.75 71.8125 87.0625 74.8125 83.875 80.625C71.875 105.188 60.25 116.438 38.875 126.75C32.875 129.562 30.0625 134.062 30.0625 141.188V319.875ZM53.3125 316.875V144.375C76.5625 134.25 90.4375 120.188 102.062 95.0625H409.75C421.375 120.188 435.062 134.25 458.5 144.375V316.875C435.062 327 421.375 341.062 409.75 366.188H102.062C90.4375 341.062 76.5625 327 53.3125 316.875ZM104.312 311.25C104.312 320.812 110.688 327.375 120.438 327.375H391.375C401.125 327.375 407.5 320.812 407.5 311.25V150.562C407.5 140.812 401.125 134.25 391.375 134.25H120.438C110.688 134.25 104.312 140.812 104.312 150.562V311.25ZM122.5 192.562V157.688C122.5 154.5 124.375 152.625 127.562 152.625H151V192.562H122.5ZM169.188 309.188V152.625H342.625V309.188H169.188ZM360.812 192.562V152.625H384.25C387.438 152.625 389.312 154.5 389.312 157.688V192.562H360.812ZM122.5 250.875V210.938H151V250.875H122.5ZM360.812 250.875V210.938H389.312V250.875H360.812ZM122.5 303.938V269.062H151V309.188H127.562C124.375 309.188 122.5 307.312 122.5 303.938ZM360.812 309.188V269.062H389.312V303.938C389.312 307.312 387.438 309.188 384.25 309.188H360.812Z" fill="#561643"/>
<path d="M221.643 232.209C236.198 232.209 245.13 222.777 245.13 207.597V207.535C245.13 192.418 236.198 182.985 221.643 182.985C207.088 182.985 198.03 192.418 198.03 207.535V207.597C198.03 222.777 207.088 232.209 221.643 232.209ZM236.198 274L292.356 183.859H274.74L218.582 274H236.198ZM221.643 218.966C217.645 218.966 215.521 215.218 215.521 207.66V207.597C215.521 200.039 217.645 196.29 221.643 196.29C225.578 196.29 227.64 200.039 227.64 207.597V207.66C227.64 215.218 225.578 218.966 221.643 218.966ZM289.42 274.875C303.975 274.875 312.908 265.442 312.908 250.262V250.2C312.908 235.083 303.975 225.65 289.42 225.65C274.865 225.65 265.807 235.083 265.807 250.2V250.262C265.807 265.442 274.865 274.875 289.42 274.875ZM289.42 261.631C285.422 261.631 283.298 257.883 283.298 250.325V250.262C283.298 242.704 285.422 238.956 289.42 238.956C293.355 238.956 295.417 242.704 295.417 250.262V250.325C295.417 257.883 293.355 261.631 289.42 261.631Z" fill="#561643"/>
</svg>
