<svg width="408" height="318" viewBox="0 0 408 318" fill="none" xmlns="http://www.w3.org/2000/svg">
<path d="M55.5 317.438H356.062C389.062 317.438 407.625 298.688 407.625 262.5V55.3125C407.625 19.3125 388.875 0.5625 352.5 0.5625H51.75C18.75 0.5625 0.1875 19.125 0.1875 55.3125V262.5C0.1875 298.875 18.9375 317.438 55.5 317.438ZM181.688 171.938L35.0625 27.5625C40.125 24.375 46.875 22.6875 54.9375 22.6875H352.875C361.312 22.6875 368.25 24.5625 373.688 28.3125L227.625 171.938C219.562 180 211.875 183.188 204.562 183.188C197.438 183.188 189.562 179.625 181.688 171.938ZM22.3125 262.312V55.5C22.3125 52.125 22.6875 49.125 23.25 46.3125L139.312 160.125L23.4375 273C22.6875 269.812 22.3125 266.25 22.3125 262.312ZM385.5 55.5V262.5C385.5 265.875 385.125 269.062 384.562 271.875L270 160.125L384.938 47.625C385.312 50.0625 385.5 52.6875 385.5 55.5ZM54.9375 295.125C47.4375 295.125 41.25 293.812 36.1875 291L154.688 175.125L168.562 188.812C180.75 200.812 192.75 205.5 204.562 205.5C216.375 205.5 228.375 200.812 240.75 188.812L254.625 175.125L372.375 290.438C367.312 293.625 360.75 295.125 352.875 295.125H54.9375Z" fill="#561643"/>
</svg>
