<svg width="311" height="400" viewBox="0 0 311 400" fill="none" xmlns="http://www.w3.org/2000/svg">
<path d="M55.6875 399.688H256.125C292.5 399.688 310.875 380.938 310.875 344.375V168.5C310.875 148.25 308.25 139.25 295.875 126.5L185.625 15.125C173.625 2.9375 163.875 0.125 145.688 0.125H55.6875C19.6875 0.125 0.9375 18.6875 0.9375 55.25V344.375C0.9375 380.938 19.5 399.688 55.6875 399.688ZM56.8125 376.438C35.25 376.438 24.1875 365 24.1875 343.812V55.8125C24.1875 35.1875 35.25 23.1875 57 23.1875H144.562V136.062C144.562 157.438 155.438 167.562 176.25 167.562H287.812V343.812C287.812 365 276.562 376.438 255 376.438H56.8125ZM178.688 145.625C170.062 145.625 166.5 142.25 166.5 133.625V27.875L283.125 145.625H178.688Z" fill="#561643"/>
</svg>
