<svg width="367" height="368" viewBox="0 0 367 368" fill="none" xmlns="http://www.w3.org/2000/svg">
<path d="M183.812 367.188C284.688 367.188 367 284.875 367 184C367 86.3125 288.625 5.5 192.438 1C184.375 0.25 178 5.5 178 12.8125C178 19.1875 182.875 24.625 190.938 25.1875C276.438 29.125 342.625 99.8125 342.625 184C342.625 272.312 272.312 342.625 183.812 342.625C99.625 342.625 28.9375 276.625 25.1875 190.938C24.625 182.875 19.1875 178 12.625 178C5.5 178 0.25 184.375 0.8125 192.438C5.5 288.625 86.3125 367.188 183.812 367.188ZM172 187C179.312 187 184.562 181.375 184.562 174.625C184.562 171.25 183.25 168.062 180.625 165.438L73.9375 58.75L41.6875 29.125C64 31 91.9375 30.8125 106.375 30.8125C112.938 30.8125 118 25.5625 118 19C118 12.625 112.938 7.375 106.375 7.375H19.375C10.1875 7.375 5.125 12.25 5.125 21.625V108.438C5.125 115 10.375 120.25 16.75 120.25C23.125 120.25 28.375 115 28.375 108.438C28.375 94.375 28.375 64.9375 27.0625 43.9375L56.3125 76L163.188 183.062C165.812 185.688 168.812 187 172 187Z" fill="#13547A"/>
</svg>
