<svg width="377" height="377" viewBox="0 0 377 377" fill="none" xmlns="http://www.w3.org/2000/svg">
<path d="M188.812 376.688C291.938 376.688 376.875 291.562 376.875 188.625C376.875 85.5 292.688 2.25 192 0.5625C183.75 0.375 177.562 5.0625 177.562 12.375C177.562 18.9375 182.25 24.375 190.5 24.75C280.875 26.625 352.5 97.875 352.688 188.625C352.875 279.188 279.562 352.312 188.812 352.312C95.8125 352.312 25.3125 276.75 25.3125 188.25C25.3125 179.812 19.3125 175.312 12.9375 175.312C5.625 175.312 0.9375 181.125 0.9375 189.75C1.125 291.375 85.875 376.688 188.812 376.688ZM177 192C184.312 192 189.562 186.375 189.562 179.625C189.562 176.25 188.062 173.062 185.625 170.438L78.9375 63.75L46.6875 34.125C69 36 96.9375 35.8125 111.375 35.8125C117.938 35.8125 123 30.5625 123 24C123 17.625 117.938 12.375 111.375 12.375H24.375C15.1875 12.375 10.125 17.25 10.125 26.625V113.438C10.125 120 15.375 125.25 21.75 125.25C28.125 125.25 33.375 120 33.375 113.438C33.375 99.375 33.375 69.9375 32.0625 48.9375L61.3125 81L168.188 188.062C170.812 190.688 173.812 192 177 192Z" fill="#13547A"/>
</svg>
