<svg width="44" height="44" viewBox="0 0 44 44" fill="none" xmlns="http://www.w3.org/2000/svg">
<circle cx="22" cy="22" r="22" fill="white"/>
<path d="M10.832 19.2227C10.832 24.2148 15.0156 29.125 21.625 33.3438C21.8711 33.4961 22.2227 33.6602 22.4688 33.6602C22.7148 33.6602 23.0664 33.4961 23.3242 33.3438C29.9219 29.125 34.1055 24.2148 34.1055 19.2227C34.1055 15.0742 31.2578 12.1445 27.4609 12.1445C25.293 12.1445 23.5352 13.1758 22.4688 14.7578C21.4258 13.1875 19.6445 12.1445 17.4766 12.1445C13.6797 12.1445 10.832 15.0742 10.832 19.2227ZM12.7188 19.2227C12.7188 16.1055 14.7344 14.0312 17.4531 14.0312C19.6562 14.0312 20.9219 15.4023 21.6719 16.5742C21.9883 17.043 22.1875 17.1719 22.4688 17.1719C22.75 17.1719 22.9258 17.0312 23.2656 16.5742C24.0742 15.4258 25.293 14.0312 27.4844 14.0312C30.2031 14.0312 32.2188 16.1055 32.2188 19.2227C32.2188 23.582 27.6133 28.2812 22.7148 31.5391C22.5977 31.6211 22.5156 31.6797 22.4688 31.6797C22.4219 31.6797 22.3398 31.6211 22.2344 31.5391C17.3242 28.2812 12.7188 23.582 12.7188 19.2227Z" fill="#E85D75"/>
</svg>
