<svg width="44" height="44" viewBox="0 0 44 44" fill="none" xmlns="http://www.w3.org/2000/svg">
<circle cx="22" cy="22" r="22" fill="white"/>
<path d="M10.3633 19.2227C10.3633 24.2148 14.5469 29.125 21.1562 33.3438C21.4023 33.4961 21.7539 33.6602 22 33.6602C22.2461 33.6602 22.5977 33.4961 22.8555 33.3438C29.4531 29.125 33.6367 24.2148 33.6367 19.2227C33.6367 15.0742 30.7891 12.1445 26.9922 12.1445C24.8242 12.1445 23.0664 13.1758 22 14.7578C20.957 13.1875 19.1758 12.1445 17.0078 12.1445C13.2109 12.1445 10.3633 15.0742 10.3633 19.2227ZM12.25 19.2227C12.25 16.1055 14.2656 14.0312 16.9844 14.0312C19.1875 14.0312 20.4531 15.4023 21.2031 16.5742C21.5195 17.043 21.7188 17.1719 22 17.1719C22.2812 17.1719 22.457 17.0312 22.7969 16.5742C23.6055 15.4258 24.8242 14.0312 27.0156 14.0312C29.7344 14.0312 31.75 16.1055 31.75 19.2227C31.75 23.582 27.1445 28.2812 22.2461 31.5391C22.1289 31.6211 22.0469 31.6797 22 31.6797C21.9531 31.6797 21.8711 31.6211 21.7656 31.5391C16.8555 28.2812 12.25 23.582 12.25 19.2227Z" fill="#E85D75"/>
</svg>
