<svg width="367" height="337" viewBox="0 0 367 337" fill="none" xmlns="http://www.w3.org/2000/svg">
<path d="M0.875 110.562C0.875 188.75 69.125 265.438 172.062 332.188C175.438 334.25 180.125 336.312 183.5 336.312C186.875 336.312 191.562 334.25 195.125 332.188C298.062 265.438 366.312 188.75 366.312 110.562C366.312 46.4375 322.062 0.6875 263 0.6875C229.062 0.6875 199.625 18.125 183.5 45.125C167.562 18.3125 137.938 0.6875 104 0.6875C44.9375 0.6875 0.875 46.4375 0.875 110.562ZM23.9375 110.562C23.9375 59 57.875 23.9375 103.812 23.9375C138.688 23.9375 160.25 45.5 173.188 67.0625C177.125 73.25 179.75 75.125 183.5 75.125C187.25 75.125 189.688 73.0625 194 67.0625C207.312 45.6875 228.5 23.9375 263.188 23.9375C309.125 23.9375 343.062 59 343.062 110.562C343.062 180.875 269.75 255.125 186.875 310.438C185.375 311.375 184.25 312.125 183.5 312.125C182.75 312.125 181.812 311.375 180.312 310.438C97.4375 255.125 23.9375 180.875 23.9375 110.562Z" fill="#561643"/>
</svg>
