<svg width="433" height="388" viewBox="0 0 433 388" fill="none" xmlns="http://www.w3.org/2000/svg">
<path d="M0.125 178.75C0.125 184.75 4.8125 190.188 12.5 190.188C16.4375 190.188 19.625 188.125 22.4375 185.688L209.188 28.9375C213.875 25 218.938 24.625 224 28.9375L410.375 185.688C413.375 188.125 416.375 190.188 420.312 190.188C427.25 190.188 432.688 185.875 432.688 179.125C432.688 174.812 431.188 171.812 427.812 169L379.25 128.125V52C379.25 45.0625 374.75 40.75 368.188 40.75H350.562C343.812 40.75 339.125 45.0625 339.125 52V94.5625L236.938 8.3125C224.375 -2.375 209.188 -2.375 196.438 8.3125L5 169C1.625 171.812 0.125 175.375 0.125 178.75ZM53.9375 349C53.9375 373 68.1875 387.062 92.375 387.062H340.812C365 387.062 379.25 373 379.25 349V188.5L228.125 61.5625C220.438 55.1875 212.188 55.375 204.875 61.5625L53.9375 188.312V349ZM264.125 363.812H168.875V237.25C168.875 229.562 173.938 224.5 181.812 224.5H251.188C259.062 224.5 264.125 229.562 264.125 237.25V363.812Z" fill="#561643"/>
</svg>
