<svg width="12" height="23" viewBox="0 0 12 23" fill="none" xmlns="http://www.w3.org/2000/svg">
<path d="M5.54297 22.1572C5.81543 22.3945 6.19336 22.4297 6.46582 22.166L9.17285 19.4502C9.43652 19.1865 9.42773 18.7822 9.16406 18.5273L7.66113 17.0244L9.79688 14.8975C10.0518 14.6426 10.043 14.2383 9.7793 13.9746L7.73145 11.9092C10.2539 10.8105 11.6689 8.85059 11.6689 6.5127C11.6689 3.38379 9.1377 0.861328 6 0.861328C2.85352 0.861328 0.331055 3.375 0.331055 6.5127C0.331055 8.82422 1.68457 10.8809 3.82031 11.7598V20.1357C3.82031 20.373 3.89062 20.6543 4.11035 20.8389L5.54297 22.1572ZM6 21.085L4.91016 19.9951V10.9775C2.84473 10.459 1.41211 8.65723 1.41211 6.5127C1.41211 3.99023 3.45996 1.95117 6 1.95117C8.53125 1.95117 10.5703 3.98145 10.5703 6.5127C10.5703 8.63086 9.1377 10.459 6.72949 11.0918V12.4805L8.69824 14.4492L6.66797 16.4531V17.5781L8.08301 18.9756L6 21.085ZM6 6.52148C6.86133 6.52148 7.56445 5.82715 7.56445 4.96582C7.56445 4.10449 6.86133 3.40137 6 3.40137C5.12988 3.40137 4.43555 4.0957 4.43555 4.96582C4.43555 5.82715 5.13867 6.52148 6 6.52148Z" fill="#561643"/>
</svg>
