<?xml version="1.0" encoding="UTF-8"?>
<!--Generator: Apple Native CoreSVG 148-->
<!DOCTYPE svg
PUBLIC "-//W3C//DTD SVG 1.1//EN"
       "http://www.w3.org/Graphics/SVG/1.1/DTD/svg11.dtd">
<svg version="1.1" xmlns="http://www.w3.org/2000/svg" xmlns:xlink="http://www.w3.org/1999/xlink" width="3300" height="2200">
 <!--glyph: "uni100268.medium", point size: 100.000000, font version: "Version 16.0d11e1", template writer version: "8"-->
 <g id="Notes">
  <rect height="2200" id="artboard" style="fill:white;opacity:1" width="3300" x="0" y="0"/>
  <line id="" style="fill:none;stroke:black;opacity:1;stroke-width:0.5;" x1="263" x2="3036" y1="292" y2="292"/>
  <text style="stroke:none;fill:black;font-family:-apple-system,&quot;SF Pro Display&quot;,&quot;SF Pro Text&quot;,Helvetica,sans-serif;font-weight:bold;" transform="matrix(1 0 0 1 263 322)">Weight/Scale Variations</text>
  <text style="stroke:none;fill:black;font-family:-apple-system,&quot;SF Pro Display&quot;,&quot;SF Pro Text&quot;,Helvetica,sans-serif;text-anchor:middle;" transform="matrix(1 0 0 1 559.711 322)">Ultralight</text>
  <text style="stroke:none;fill:black;font-family:-apple-system,&quot;SF Pro Display&quot;,&quot;SF Pro Text&quot;,Helvetica,sans-serif;text-anchor:middle;" transform="matrix(1 0 0 1 856.422 322)">Thin</text>
  <text style="stroke:none;fill:black;font-family:-apple-system,&quot;SF Pro Display&quot;,&quot;SF Pro Text&quot;,Helvetica,sans-serif;text-anchor:middle;" transform="matrix(1 0 0 1 1153.13 322)">Light</text>
  <text style="stroke:none;fill:black;font-family:-apple-system,&quot;SF Pro Display&quot;,&quot;SF Pro Text&quot;,Helvetica,sans-serif;text-anchor:middle;" transform="matrix(1 0 0 1 1449.84 322)">Regular</text>
  <text style="stroke:none;fill:black;font-family:-apple-system,&quot;SF Pro Display&quot;,&quot;SF Pro Text&quot;,Helvetica,sans-serif;text-anchor:middle;" transform="matrix(1 0 0 1 1746.56 322)">Medium</text>
  <text style="stroke:none;fill:black;font-family:-apple-system,&quot;SF Pro Display&quot;,&quot;SF Pro Text&quot;,Helvetica,sans-serif;text-anchor:middle;" transform="matrix(1 0 0 1 2043.27 322)">Semibold</text>
  <text style="stroke:none;fill:black;font-family:-apple-system,&quot;SF Pro Display&quot;,&quot;SF Pro Text&quot;,Helvetica,sans-serif;text-anchor:middle;" transform="matrix(1 0 0 1 2339.98 322)">Bold</text>
  <text style="stroke:none;fill:black;font-family:-apple-system,&quot;SF Pro Display&quot;,&quot;SF Pro Text&quot;,Helvetica,sans-serif;text-anchor:middle;" transform="matrix(1 0 0 1 2636.69 322)">Heavy</text>
  <text style="stroke:none;fill:black;font-family:-apple-system,&quot;SF Pro Display&quot;,&quot;SF Pro Text&quot;,Helvetica,sans-serif;text-anchor:middle;" transform="matrix(1 0 0 1 2933.4 322)">Black</text>
  <line id="" style="fill:none;stroke:black;opacity:1;stroke-width:0.5;" x1="263" x2="3036" y1="1903" y2="1903"/>
  <g id="" transform="matrix(1 0 0 1 263 1933)">
   <path d="M 9.24805 0.830078 C 13.5547 0.830078 17.1387 -2.74414 17.1387 -7.05078 C 17.1387 -11.3574 13.5449 -14.9316 9.23828 -14.9316 C 4.94141 -14.9316 1.36719 -11.3574 1.36719 -7.05078 C 1.36719 -2.74414 4.95117 0.830078 9.24805 0.830078 Z M 9.24805 -0.654297 C 5.70312 -0.654297 2.87109 -3.49609 2.87109 -7.05078 C 2.87109 -10.6055 5.69336 -13.4473 9.23828 -13.4473 C 12.793 -13.4473 15.6348 -10.6055 15.6445 -7.05078 C 15.6543 -3.49609 12.8027 -0.654297 9.24805 -0.654297 Z M 9.22852 -3.62305 C 9.69727 -3.62305 9.9707 -3.93555 9.9707 -4.45312 L 9.9707 -6.31836 L 12.002 -6.31836 C 12.5 -6.31836 12.832 -6.57227 12.832 -7.04102 C 12.832 -7.51953 12.5195 -7.7832 12.002 -7.7832 L 9.9707 -7.7832 L 9.9707 -9.81445 C 9.9707 -10.332 9.69727 -10.6543 9.22852 -10.6543 C 8.75977 -10.6543 8.50586 -10.3125 8.50586 -9.81445 L 8.50586 -7.7832 L 6.49414 -7.7832 C 5.97656 -7.7832 5.64453 -7.51953 5.64453 -7.04102 C 5.64453 -6.57227 5.99609 -6.31836 6.49414 -6.31836 L 8.50586 -6.31836 L 8.50586 -4.45312 C 8.50586 -3.95508 8.75977 -3.62305 9.22852 -3.62305 Z"/>
  </g>
  <g id="" transform="matrix(1 0 0 1 281.506 1933)">
   <path d="M 11.709 2.91016 C 17.1582 2.91016 21.6699 -1.61133 21.6699 -7.05078 C 21.6699 -12.5 17.1484 -17.0117 11.6992 -17.0117 C 6.25977 -17.0117 1.74805 -12.5 1.74805 -7.05078 C 1.74805 -1.61133 6.26953 2.91016 11.709 2.91016 Z M 11.709 1.25 C 7.09961 1.25 3.41797 -2.44141 3.41797 -7.05078 C 3.41797 -11.6602 7.08984 -15.3516 11.6992 -15.3516 C 16.3086 -15.3516 20 -11.6602 20.0098 -7.05078 C 20.0195 -2.44141 16.3184 1.25 11.709 1.25 Z M 11.6797 -2.66602 C 12.207 -2.66602 12.5098 -3.01758 12.5098 -3.59375 L 12.5098 -6.23047 L 15.3223 -6.23047 C 15.8691 -6.23047 16.25 -6.51367 16.25 -7.03125 C 16.25 -7.55859 15.8887 -7.86133 15.3223 -7.86133 L 12.5098 -7.86133 L 12.5098 -10.6836 C 12.5098 -11.25 12.207 -11.6113 11.6797 -11.6113 C 11.1621 -11.6113 10.8789 -11.2305 10.8789 -10.6836 L 10.8789 -7.86133 L 8.07617 -7.86133 C 7.50977 -7.86133 7.13867 -7.55859 7.13867 -7.03125 C 7.13867 -6.51367 7.5293 -6.23047 8.07617 -6.23047 L 10.8789 -6.23047 L 10.8789 -3.59375 C 10.8789 -3.03711 11.1621 -2.66602 11.6797 -2.66602 Z"/>
  </g>
  <g id="" transform="matrix(1 0 0 1 304.924 1933)">
   <path d="M 14.9707 5.66406 C 21.9336 5.66406 27.6953 -0.0976562 27.6953 -7.05078 C 27.6953 -14.0137 21.9238 -19.7754 14.9609 -19.7754 C 8.00781 -19.7754 2.25586 -14.0137 2.25586 -7.05078 C 2.25586 -0.0976562 8.01758 5.66406 14.9707 5.66406 Z M 14.9707 3.84766 C 8.93555 3.84766 4.08203 -1.01562 4.08203 -7.05078 C 4.08203 -13.0957 8.92578 -17.9492 14.9609 -17.9492 C 21.0059 -17.9492 25.8594 -13.0957 25.8691 -7.05078 C 25.8789 -1.01562 21.0156 3.84766 14.9707 3.84766 Z M 14.9414 -1.38672 C 15.5176 -1.38672 15.8594 -1.77734 15.8594 -2.38281 L 15.8594 -6.13281 L 19.7754 -6.13281 C 20.3711 -6.13281 20.7812 -6.46484 20.7812 -7.02148 C 20.7812 -7.59766 20.3906 -7.93945 19.7754 -7.93945 L 15.8594 -7.93945 L 15.8594 -11.8652 C 15.8594 -12.4805 15.5176 -12.8711 14.9414 -12.8711 C 14.375 -12.8711 14.0527 -12.4609 14.0527 -11.8652 L 14.0527 -7.93945 L 10.1465 -7.93945 C 9.53125 -7.93945 9.13086 -7.59766 9.13086 -7.02148 C 9.13086 -6.46484 9.55078 -6.13281 10.1465 -6.13281 L 14.0527 -6.13281 L 14.0527 -2.38281 C 14.0527 -1.79688 14.375 -1.38672 14.9414 -1.38672 Z"/>
  </g>
  <text style="stroke:none;fill:black;font-family:-apple-system,&quot;SF Pro Display&quot;,&quot;SF Pro Text&quot;,Helvetica,sans-serif;font-weight:bold;" transform="matrix(1 0 0 1 263 1953)">Design Variations</text>
  <text style="stroke:none;fill:black;font-family:-apple-system,&quot;SF Pro Display&quot;,&quot;SF Pro Text&quot;,Helvetica,sans-serif;" transform="matrix(1 0 0 1 263 1971)">Symbols are supported in up to nine weights and three scales.</text>
  <text style="stroke:none;fill:black;font-family:-apple-system,&quot;SF Pro Display&quot;,&quot;SF Pro Text&quot;,Helvetica,sans-serif;" transform="matrix(1 0 0 1 263 1989)">For optimal layout with text and other symbols, vertically align</text>
  <text style="stroke:none;fill:black;font-family:-apple-system,&quot;SF Pro Display&quot;,&quot;SF Pro Text&quot;,Helvetica,sans-serif;" transform="matrix(1 0 0 1 263 2007)">symbols with the adjacent text.</text>
  <line id="" style="fill:none;stroke:#00AEEF;stroke-width:0.5;opacity:1.0;" x1="776" x2="776" y1="1919" y2="1933"/>
  <g id="" transform="matrix(1 0 0 1 776 1933)">
   <path d="M 3.31055 0.126953 C 3.82812 0.126953 4.08203 -0.0683594 4.26758 -0.605469 L 5.52734 -4.0625 L 11.2891 -4.0625 L 12.5488 -0.605469 C 12.7344 -0.0683594 12.9883 0.126953 13.4961 0.126953 C 14.0137 0.126953 14.3457 -0.185547 14.3457 -0.673828 C 14.3457 -0.839844 14.3164 -0.986328 14.2383 -1.20117 L 9.6582 -13.3887 C 9.43359 -13.9941 9.0332 -14.2871 8.4082 -14.2871 C 7.80273 -14.2871 7.39258 -13.9941 7.17773 -13.3984 L 2.59766 -1.19141 C 2.51953 -0.976562 2.49023 -0.830078 2.49023 -0.664062 C 2.49023 -0.175781 2.80273 0.126953 3.31055 0.126953 Z M 6.00586 -5.53711 L 8.37891 -12.1094 L 8.42773 -12.1094 L 10.8008 -5.53711 Z"/>
  </g>
  <line id="" style="fill:none;stroke:#00AEEF;stroke-width:0.5;opacity:1.0;" x1="792.836" x2="792.836" y1="1919" y2="1933"/>
  <text style="stroke:none;fill:black;font-family:-apple-system,&quot;SF Pro Display&quot;,&quot;SF Pro Text&quot;,Helvetica,sans-serif;font-weight:bold;" transform="matrix(1 0 0 1 776 1953)">Margins</text>
  <text style="stroke:none;fill:black;font-family:-apple-system,&quot;SF Pro Display&quot;,&quot;SF Pro Text&quot;,Helvetica,sans-serif;" transform="matrix(1 0 0 1 776 1971)">Leading and trailing margins on the left and right side of each symbol</text>
  <text style="stroke:none;fill:black;font-family:-apple-system,&quot;SF Pro Display&quot;,&quot;SF Pro Text&quot;,Helvetica,sans-serif;" transform="matrix(1 0 0 1 776 1989)">can be adjusted by modifying the x-location of the margin guidelines.</text>
  <text style="stroke:none;fill:black;font-family:-apple-system,&quot;SF Pro Display&quot;,&quot;SF Pro Text&quot;,Helvetica,sans-serif;" transform="matrix(1 0 0 1 776 2007)">Modifications are automatically applied proportionally to all</text>
  <text style="stroke:none;fill:black;font-family:-apple-system,&quot;SF Pro Display&quot;,&quot;SF Pro Text&quot;,Helvetica,sans-serif;" transform="matrix(1 0 0 1 776 2025)">scales and weights.</text>
  <g id="" transform="matrix(1 0 0 1 1289 1933)">
   <path d="M 2.8418 1.86523 L 4.54102 3.57422 C 5.40039 4.44336 6.38672 4.38477 7.31445 3.35938 L 17.4902 -7.85156 C 17.7539 -7.76367 18.0273 -7.7832 18.3398 -7.8418 L 19.4043 -8.03711 L 20.0684 -7.36328 L 20.0293 -6.80664 C 19.9902 -6.30859 20.1172 -5.92773 20.6055 -5.44922 L 21.3672 -4.70703 C 21.8457 -4.22852 22.4609 -4.19922 22.9297 -4.66797 L 25.8398 -7.58789 C 26.3086 -8.05664 26.2891 -8.65234 25.8105 -9.13086 L 25.0391 -9.89258 C 24.5605 -10.3711 24.1895 -10.5273 23.7109 -10.4883 L 23.1348 -10.4395 L 22.4902 -11.0742 L 22.7344 -12.1973 C 22.8613 -12.7637 22.7051 -13.2031 22.1191 -13.7891 L 19.9219 -15.9766 C 16.582 -19.2969 12.1484 -19.2188 9.25781 -16.3281 C 8.83789 -15.918 8.80859 -15.3418 9.04297 -14.9512 C 9.27734 -14.5898 9.73633 -14.3555 10.3809 -14.5215 C 11.8457 -14.8633 13.3691 -14.9219 14.7949 -13.9844 L 14.209 -12.5293 C 14.0137 -12.0508 13.9844 -11.6504 14.1113 -11.2891 L 3.04688 -0.898438 C 2.06055 0.0195312 1.98242 0.996094 2.8418 1.86523 Z M 10.752 -15.957 C 13.1836 -17.7344 16.4746 -17.4316 18.7012 -15.2051 L 21.1328 -12.793 C 21.3672 -12.5586 21.4062 -12.373 21.3379 -12.0312 L 21.0156 -10.5469 L 22.5195 -9.0625 L 23.5059 -9.12109 C 23.7598 -9.13086 23.8379 -9.11133 24.0332 -8.91602 L 24.6094 -8.33984 L 22.168 -5.89844 L 21.5918 -6.47461 C 21.3965 -6.66992 21.3672 -6.74805 21.377 -7.01172 L 21.4453 -7.98828 L 19.9512 -9.47266 L 18.4277 -9.21875 C 18.1055 -9.15039 17.959 -9.17969 17.7148 -9.41406 L 15.7129 -11.416 C 15.459 -11.6504 15.4297 -11.8164 15.5859 -12.1875 L 16.4648 -14.2773 C 14.9023 -15.7324 12.8711 -16.3574 10.8398 -15.7617 C 10.6836 -15.7227 10.625 -15.8496 10.752 -15.957 Z M 5.27344 2.30469 L 4.10156 1.14258 C 3.63281 0.683594 3.74023 0.341797 4.14062 -0.0195312 L 14.9512 -10.1953 L 16.416 -8.71094 L 6.42578 2.27539 C 6.07422 2.67578 5.74219 2.77344 5.27344 2.30469 Z"/>
  </g>
  <text style="stroke:none;fill:black;font-family:-apple-system,&quot;SF Pro Display&quot;,&quot;SF Pro Text&quot;,Helvetica,sans-serif;font-weight:bold;" transform="matrix(1 0 0 1 1289 1953)">Exporting</text>
  <text style="stroke:none;fill:black;font-family:-apple-system,&quot;SF Pro Display&quot;,&quot;SF Pro Text&quot;,Helvetica,sans-serif;" transform="matrix(1 0 0 1 1289 1971)">Symbols should be outlined when exporting to ensure the</text>
  <text style="stroke:none;fill:black;font-family:-apple-system,&quot;SF Pro Display&quot;,&quot;SF Pro Text&quot;,Helvetica,sans-serif;" transform="matrix(1 0 0 1 1289 1989)">design is preserved when submitting to Xcode.</text>
  <text id="template-version" style="stroke:none;fill:black;font-family:-apple-system,&quot;SF Pro Display&quot;,&quot;SF Pro Text&quot;,Helvetica,sans-serif;text-anchor:end;" transform="matrix(1 0 0 1 3036 1933)">Template v.2.0</text>
  <text style="stroke:none;fill:black;font-family:-apple-system,&quot;SF Pro Display&quot;,&quot;SF Pro Text&quot;,Helvetica,sans-serif;text-anchor:end;" transform="matrix(1 0 0 1 3036 1951)">Requires Xcode 12 or greater</text>
  <text style="stroke:none;fill:black;font-family:-apple-system,&quot;SF Pro Display&quot;,&quot;SF Pro Text&quot;,Helvetica,sans-serif;text-anchor:end;" transform="matrix(1 0 0 1 3036 1969)">Generated from lineweight</text>
  <text style="stroke:none;fill:black;font-family:-apple-system,&quot;SF Pro Display&quot;,&quot;SF Pro Text&quot;,Helvetica,sans-serif;text-anchor:end;" transform="matrix(1 0 0 1 3036 1987)">Typeset at 100 points</text>
  <text style="stroke:none;fill:black;font-family:-apple-system,&quot;SF Pro Display&quot;,&quot;SF Pro Text&quot;,Helvetica,sans-serif;" transform="matrix(1 0 0 1 263 726)">Small</text>
  <text style="stroke:none;fill:black;font-family:-apple-system,&quot;SF Pro Display&quot;,&quot;SF Pro Text&quot;,Helvetica,sans-serif;" transform="matrix(1 0 0 1 263 1156)">Medium</text>
  <text style="stroke:none;fill:black;font-family:-apple-system,&quot;SF Pro Display&quot;,&quot;SF Pro Text&quot;,Helvetica,sans-serif;" transform="matrix(1 0 0 1 263 1586)">Large</text>
 </g>
 <g id="Guides">
  <g id="H-reference" style="fill:#27AAE1;stroke:none;" transform="matrix(1 0 0 1 339 696)">
   <path d="M 0.976562 0 L 3.66211 0 L 12.9883 -24.4629 L 45.7031 -24.4629 L 55.0781 0 L 57.7148 0 L 30.6152 -70.459 L 28.125 -70.459 Z M 29.2969 -67.1387 L 29.3945 -67.1387 L 44.873 -26.709 L 13.8672 -26.709 Z"/>
  </g>
  <line id="Baseline-S" style="fill:none;stroke:#27AAE1;opacity:1;stroke-width:0.5;" x1="263" x2="3036" y1="696" y2="696"/>
  <line id="Capline-S" style="fill:none;stroke:#27AAE1;opacity:1;stroke-width:0.5;" x1="263" x2="3036" y1="625.541" y2="625.541"/>
  <g id="H-reference" style="fill:#27AAE1;stroke:none;" transform="matrix(1 0 0 1 339 1126)">
   <path d="M 0.976562 0 L 3.66211 0 L 12.9883 -24.4629 L 45.7031 -24.4629 L 55.0781 0 L 57.7148 0 L 30.6152 -70.459 L 28.125 -70.459 Z M 29.2969 -67.1387 L 29.3945 -67.1387 L 44.873 -26.709 L 13.8672 -26.709 Z"/>
  </g>
  <line id="Baseline-M" style="fill:none;stroke:#27AAE1;opacity:1;stroke-width:0.5;" x1="263" x2="3036" y1="1126" y2="1126"/>
  <line id="Capline-M" style="fill:none;stroke:#27AAE1;opacity:1;stroke-width:0.5;" x1="263" x2="3036" y1="1055.54" y2="1055.54"/>
  <g id="H-reference" style="fill:#27AAE1;stroke:none;" transform="matrix(1 0 0 1 339 1556)">
   <path d="M 0.976562 0 L 3.66211 0 L 12.9883 -24.4629 L 45.7031 -24.4629 L 55.0781 0 L 57.7148 0 L 30.6152 -70.459 L 28.125 -70.459 Z M 29.2969 -67.1387 L 29.3945 -67.1387 L 44.873 -26.709 L 13.8672 -26.709 Z"/>
  </g>
  <line id="Baseline-L" style="fill:none;stroke:#27AAE1;opacity:1;stroke-width:0.5;" x1="263" x2="3036" y1="1556" y2="1556"/>
  <line id="Capline-L" style="fill:none;stroke:#27AAE1;opacity:1;stroke-width:0.5;" x1="263" x2="3036" y1="1485.54" y2="1485.54"/>
  <line id="left-margin" style="fill:none;stroke:#00AEEF;stroke-width:0.5;opacity:1.0;" x1="1395.72" x2="1395.72" y1="1030.79" y2="1150.12"/>
  <line id="right-margin" style="fill:none;stroke:#00AEEF;stroke-width:0.5;opacity:1.0;" x1="1503.97" x2="1503.97" y1="1030.79" y2="1150.12"/>
 </g>
 <g id="Symbols">
  <g id="Black-L" transform="matrix(1 0 0 1 2861.89 1556)">
   <path d="M 22.2656 -72.4609 L 120.752 -72.4609 C 124.512 -72.4609 126.953 -74.9512 126.953 -78.6621 L 126.953 -84.5215 C 126.953 -88.2812 124.512 -90.7227 120.752 -90.7227 L 22.2656 -90.7227 C 18.5059 -90.7227 16.0645 -88.2812 16.0645 -84.5215 L 16.0645 -78.6621 C 16.0645 -74.9512 18.5059 -72.4609 22.2656 -72.4609 Z M 23.7305 -34.1797 L 119.287 -34.1797 C 123.926 -34.1797 126.953 -37.2559 126.953 -42.041 L 126.953 -50.3418 C 126.953 -55.127 123.926 -58.2031 119.287 -58.2031 L 23.7305 -58.2031 C 19.0918 -58.2031 16.0645 -55.127 16.0645 -50.3418 L 16.0645 -42.041 C 16.0645 -37.2559 19.0918 -34.1797 23.7305 -34.1797 Z M 23.7305 18.6035 L 119.287 18.6035 C 123.926 18.6035 126.953 15.5273 126.953 10.7422 L 126.953 -12.0117 C 126.953 -16.7969 123.926 -19.9219 119.287 -19.9219 L 23.7305 -19.9219 C 19.0918 -19.9219 16.0645 -16.7969 16.0645 -12.0117 L 16.0645 10.7422 C 16.0645 15.5273 19.0918 18.6035 23.7305 18.6035 Z"/>
  </g>
  <g id="Heavy-L" transform="matrix(1 0 0 1 2565.67 1556)">
   <path d="M 21.4844 -73.4863 L 120.557 -73.4863 C 123.828 -73.4863 125.977 -75.6348 125.977 -78.8574 L 125.977 -83.9844 C 125.977 -87.207 123.828 -89.3555 120.557 -89.3555 L 21.4844 -89.3555 C 18.2129 -89.3555 16.0645 -87.207 16.0645 -83.9844 L 16.0645 -78.8574 C 16.0645 -75.6348 18.2129 -73.4863 21.4844 -73.4863 Z M 23.0469 -34.7168 L 118.994 -34.7168 C 123.242 -34.7168 125.977 -37.5 125.977 -41.8457 L 125.977 -50.4883 C 125.977 -54.8828 123.242 -57.6172 118.994 -57.6172 L 23.0469 -57.6172 C 18.7988 -57.6172 16.0645 -54.8828 16.0645 -50.4883 L 16.0645 -41.8457 C 16.0645 -37.5 18.7988 -34.7168 23.0469 -34.7168 Z M 23.0469 18.3105 L 118.994 18.3105 C 123.242 18.3105 125.977 15.5762 125.977 11.2305 L 125.977 -11.9141 C 125.977 -16.2598 123.242 -19.043 118.994 -19.043 L 23.0469 -19.043 C 18.7988 -19.043 16.0645 -16.2598 16.0645 -11.9141 L 16.0645 11.2305 C 16.0645 15.5762 18.7988 18.3105 23.0469 18.3105 Z"/>
  </g>
  <g id="Bold-L" transform="matrix(1 0 0 1 2269.52 1556)">
   <path d="M 20.5566 -74.6094 L 120.361 -74.6094 C 123.096 -74.6094 124.854 -76.3672 124.854 -79.0527 L 124.854 -83.3008 C 124.854 -86.0352 123.096 -87.793 120.361 -87.793 L 20.5566 -87.793 C 17.8223 -87.793 16.0645 -86.0352 16.0645 -83.3008 L 16.0645 -79.0527 C 16.0645 -76.3672 17.8223 -74.6094 20.5566 -74.6094 Z M 22.2168 -35.3516 L 118.701 -35.3516 C 122.461 -35.3516 124.854 -37.7441 124.854 -41.6016 L 124.854 -50.7324 C 124.854 -54.5898 122.461 -56.9824 118.701 -56.9824 L 22.2168 -56.9824 C 18.457 -56.9824 16.0645 -54.5898 16.0645 -50.7324 L 16.0645 -41.6016 C 16.0645 -37.7441 18.457 -35.3516 22.2168 -35.3516 Z M 22.2168 18.0176 L 118.701 18.0176 C 122.461 18.0176 124.854 15.625 124.854 11.7676 L 124.854 -11.8164 C 124.854 -15.6738 122.461 -18.1152 118.701 -18.1152 L 22.2168 -18.1152 C 18.457 -18.1152 16.0645 -15.6738 16.0645 -11.8164 L 16.0645 11.7676 C 16.0645 15.625 18.457 18.0176 22.2168 18.0176 Z"/>
  </g>
  <g id="Semibold-L" transform="matrix(1 0 0 1 1973.17 1556)">
   <path d="M 19.9707 -75.3418 L 120.215 -75.3418 C 122.559 -75.3418 124.121 -76.9043 124.121 -79.248 L 124.121 -82.8613 C 124.121 -85.2051 122.559 -86.7188 120.215 -86.7188 L 19.9707 -86.7188 C 17.5781 -86.7188 16.0645 -85.2051 16.0645 -82.8613 L 16.0645 -79.248 C 16.0645 -76.9043 17.5781 -75.3418 19.9707 -75.3418 Z M 21.6797 -35.791 L 118.457 -35.791 C 121.924 -35.791 124.121 -37.9395 124.121 -41.4551 L 124.121 -50.8789 C 124.121 -54.3945 121.924 -56.543 118.457 -56.543 L 21.6797 -56.543 C 18.2617 -56.543 16.0645 -54.3945 16.0645 -50.8789 L 16.0645 -41.4551 C 16.0645 -37.9395 18.2617 -35.791 21.6797 -35.791 Z M 21.6797 17.8223 L 118.457 17.8223 C 121.924 17.8223 124.121 15.6738 124.121 12.1094 L 124.121 -11.7676 C 124.121 -15.2832 121.924 -17.4316 118.457 -17.4316 L 21.6797 -17.4316 C 18.2617 -17.4316 16.0645 -15.2832 16.0645 -11.7676 L 16.0645 12.1094 C 16.0645 15.6738 18.2617 17.8223 21.6797 17.8223 Z"/>
  </g>
  <g id="Medium-L" transform="matrix(1 0 0 1 1676.76 1556)">
   <path d="M 19.4824 -75.9277 L 120.068 -75.9277 C 122.168 -75.9277 123.535 -77.2949 123.535 -79.3457 L 123.535 -82.5195 C 123.535 -84.5703 122.168 -85.9375 120.068 -85.9375 L 19.4824 -85.9375 C 17.3828 -85.9375 16.0645 -84.5703 16.0645 -82.5195 L 16.0645 -79.3457 C 16.0645 -77.2949 17.3828 -75.9277 19.4824 -75.9277 Z M 21.2891 -36.1328 L 118.311 -36.1328 C 121.533 -36.1328 123.535 -38.0859 123.535 -41.3574 L 123.535 -50.9766 C 123.535 -54.248 121.533 -56.2012 118.311 -56.2012 L 21.2891 -56.2012 C 18.0664 -56.2012 16.0645 -54.248 16.0645 -50.9766 L 16.0645 -41.3574 C 16.0645 -38.0859 18.0664 -36.1328 21.2891 -36.1328 Z M 21.2891 17.627 L 118.311 17.627 C 121.533 17.627 123.535 15.6738 123.535 12.4023 L 123.535 -11.7188 C 123.535 -14.9902 121.533 -16.9434 118.311 -16.9434 L 21.2891 -16.9434 C 18.0664 -16.9434 16.0645 -14.9902 16.0645 -11.7188 L 16.0645 12.4023 C 16.0645 15.6738 18.0664 17.627 21.2891 17.627 Z"/>
  </g>
  <g id="Regular-L" transform="matrix(1 0 0 1 1380.44 1556)">
   <path d="M 18.8965 -76.709 L 119.922 -76.709 C 121.68 -76.709 122.754 -77.7832 122.754 -79.4922 L 122.754 -82.0801 C 122.754 -83.7891 121.68 -84.8633 119.922 -84.8633 L 18.8965 -84.8633 C 17.1387 -84.8633 16.0645 -83.7891 16.0645 -82.0801 L 16.0645 -79.4922 C 16.0645 -77.7832 17.1387 -76.709 18.8965 -76.709 Z M 20.752 -36.5234 L 118.115 -36.5234 C 120.996 -36.5234 122.754 -38.2324 122.754 -41.1621 L 122.754 -51.123 C 122.754 -54.0527 120.996 -55.7617 118.115 -55.7617 L 20.752 -55.7617 C 17.8223 -55.7617 16.0645 -54.0527 16.0645 -51.123 L 16.0645 -41.1621 C 16.0645 -38.2324 17.8223 -36.5234 20.752 -36.5234 Z M 20.752 17.4316 L 118.115 17.4316 C 120.996 17.4316 122.754 15.7227 122.754 12.793 L 122.754 -11.6211 C 122.754 -14.5508 120.996 -16.2598 118.115 -16.2598 L 20.752 -16.2598 C 17.8223 -16.2598 16.0645 -14.5508 16.0645 -11.6211 L 16.0645 12.793 C 16.0645 15.7227 17.8223 17.4316 20.752 17.4316 Z"/>
  </g>
  <g id="Light-L" transform="matrix(1 0 0 1 1084.26 1556)">
   <path d="M 18.3105 -77.6367 L 119.434 -77.6367 C 120.85 -77.6367 121.68 -78.4668 121.68 -79.7363 L 121.68 -81.8359 C 121.68 -83.1055 120.85 -83.9355 119.434 -83.9355 L 18.3105 -83.9355 C 16.8945 -83.9355 16.0645 -83.1055 16.0645 -81.8359 L 16.0645 -79.7363 C 16.0645 -78.4668 16.8945 -77.6367 18.3105 -77.6367 Z M 20.4102 -37.1582 L 117.334 -37.1582 C 119.971 -37.1582 121.68 -38.7207 121.68 -41.5039 L 121.68 -50.5371 C 121.68 -53.3203 119.971 -54.8828 117.334 -54.8828 L 20.4102 -54.8828 C 17.7246 -54.8828 16.0645 -53.3203 16.0645 -50.5371 L 16.0645 -41.5039 C 16.0645 -38.7207 17.7246 -37.1582 20.4102 -37.1582 Z M 20.4102 16.748 L 117.334 16.748 C 119.971 16.748 121.68 15.1367 121.68 12.3535 L 121.68 -11.1328 C 121.68 -13.916 119.971 -15.4785 117.334 -15.4785 L 20.4102 -15.4785 C 17.7246 -15.4785 16.0645 -13.916 16.0645 -11.1328 L 16.0645 12.3535 C 16.0645 15.1367 17.7246 16.748 20.4102 16.748 Z"/>
  </g>
  <g id="Thin-L" transform="matrix(1 0 0 1 788.283 1556)">
   <path d="M 17.4805 -78.8574 L 118.799 -78.8574 C 119.678 -78.8574 120.215 -79.3457 120.215 -80.127 L 120.215 -81.4453 C 120.215 -82.2266 119.678 -82.7148 118.799 -82.7148 L 17.4805 -82.7148 C 16.5527 -82.7148 16.0645 -82.2266 16.0645 -81.4453 L 16.0645 -80.127 C 16.0645 -79.3457 16.5527 -78.8574 17.4805 -78.8574 Z M 19.9707 -37.9395 L 116.309 -37.9395 C 118.652 -37.9395 120.215 -39.3555 120.215 -41.8945 L 120.215 -49.8047 C 120.215 -52.3438 118.652 -53.7598 116.309 -53.7598 L 19.9707 -53.7598 C 17.627 -53.7598 16.0645 -52.3438 16.0645 -49.8047 L 16.0645 -41.8945 C 16.0645 -39.3555 17.627 -37.9395 19.9707 -37.9395 Z M 19.9707 15.8203 L 116.309 15.8203 C 118.652 15.8203 120.215 14.4043 120.215 11.8164 L 120.215 -10.498 C 120.215 -13.0371 118.652 -14.4531 116.309 -14.4531 L 19.9707 -14.4531 C 17.627 -14.4531 16.0645 -13.0371 16.0645 -10.498 L 16.0645 11.8164 C 16.0645 14.4043 17.627 15.8203 19.9707 15.8203 Z"/>
  </g>
  <g id="Ultralight-L" transform="matrix(1 0 0 1 491.962 1556)">
   <path d="M 17.0898 -79.4922 L 118.457 -79.4922 C 119.141 -79.4922 119.434 -79.7852 119.434 -80.3223 L 119.434 -81.25 C 119.434 -81.7871 119.141 -82.0801 118.457 -82.0801 L 17.0898 -82.0801 C 16.4062 -82.0801 16.0645 -81.7871 16.0645 -81.25 L 16.0645 -80.3223 C 16.0645 -79.7852 16.4062 -79.4922 17.0898 -79.4922 Z M 19.7266 -38.3789 L 115.771 -38.3789 C 117.969 -38.3789 119.434 -39.6973 119.434 -42.1387 L 119.434 -49.4141 C 119.434 -51.8555 117.969 -53.1738 115.771 -53.1738 L 19.7266 -53.1738 C 17.5781 -53.1738 16.0645 -51.8555 16.0645 -49.4141 L 16.0645 -42.1387 C 16.0645 -39.6973 17.5781 -38.3789 19.7266 -38.3789 Z M 19.7266 15.332 L 115.771 15.332 C 117.969 15.332 119.434 14.0137 119.434 11.5723 L 119.434 -10.2051 C 119.434 -12.5977 117.969 -13.9648 115.771 -13.9648 L 19.7266 -13.9648 C 17.5781 -13.9648 16.0645 -12.5977 16.0645 -10.2051 L 16.0645 11.5723 C 16.0645 14.0137 17.5781 15.332 19.7266 15.332 Z"/>
  </g>
  <g id="Black-M" transform="matrix(1 0 0 1 2877.61 1126)">
   <path d="M 18.0176 -63.2324 L 93.6035 -63.2324 C 96.9238 -63.2324 99.1211 -65.4297 99.1211 -68.7988 L 99.1211 -74.0723 C 99.1211 -77.4414 96.9238 -79.6387 93.6035 -79.6387 L 18.0176 -79.6387 C 14.6484 -79.6387 12.4512 -77.4414 12.4512 -74.0723 L 12.4512 -68.7988 C 12.4512 -65.4297 14.6484 -63.2324 18.0176 -63.2324 Z M 19.1895 -33.9844 L 92.4316 -33.9844 C 96.4355 -33.9844 99.1211 -36.7676 99.1211 -40.9668 L 99.1211 -46.3867 C 99.1211 -50.5859 96.4355 -53.3691 92.4316 -53.3691 L 19.1895 -53.3691 C 15.1367 -53.3691 12.4512 -50.5859 12.4512 -46.3867 L 12.4512 -40.9668 C 12.4512 -36.7676 15.1367 -33.9844 19.1895 -33.9844 Z M 19.1895 6.49414 L 92.4316 6.49414 C 96.4355 6.49414 99.1211 3.71094 99.1211 -0.488281 L 99.1211 -17.0898 C 99.1211 -21.3379 96.4355 -24.1211 92.4316 -24.1211 L 19.1895 -24.1211 C 15.1367 -24.1211 12.4512 -21.3379 12.4512 -17.0898 L 12.4512 -0.488281 C 12.4512 3.71094 15.1367 6.49414 19.1895 6.49414 Z"/>
  </g>
  <g id="Heavy-M" transform="matrix(1 0 0 1 2581.29 1126)">
   <path d="M 17.2852 -64.1113 L 93.5059 -64.1113 C 96.4355 -64.1113 98.3398 -66.0156 98.3398 -68.8965 L 98.3398 -73.5352 C 98.3398 -76.416 96.4355 -78.3691 93.5059 -78.3691 L 17.2852 -78.3691 C 14.3555 -78.3691 12.4512 -76.416 12.4512 -73.5352 L 12.4512 -68.8965 C 12.4512 -66.0156 14.3555 -64.1113 17.2852 -64.1113 Z M 18.5059 -34.4238 L 92.2852 -34.4238 C 95.9473 -34.4238 98.3398 -36.8652 98.3398 -40.6738 L 98.3398 -46.7285 C 98.3398 -50.4883 95.9473 -52.9785 92.2852 -52.9785 L 18.5059 -52.9785 C 14.8438 -52.9785 12.4512 -50.4883 12.4512 -46.7285 L 12.4512 -40.6738 C 12.4512 -36.8652 14.8438 -34.4238 18.5059 -34.4238 Z M 18.5059 6.39648 L 92.2852 6.39648 C 95.9473 6.39648 98.3398 3.90625 98.3398 0.146484 L 98.3398 -17.1387 C 98.3398 -20.8984 95.9473 -23.3887 92.2852 -23.3887 L 18.5059 -23.3887 C 14.8438 -23.3887 12.4512 -20.8984 12.4512 -17.1387 L 12.4512 0.146484 C 12.4512 3.90625 14.8438 6.39648 18.5059 6.39648 Z"/>
  </g>
  <g id="Bold-M" transform="matrix(1 0 0 1 2285.02 1126)">
   <path d="M 16.5039 -65.0391 L 93.4082 -65.0391 C 95.8496 -65.0391 97.4609 -66.6504 97.4609 -69.0918 L 97.4609 -72.9004 C 97.4609 -75.3418 95.8496 -76.9043 93.4082 -76.9043 L 16.5039 -76.9043 C 14.0625 -76.9043 12.4512 -75.3418 12.4512 -72.9004 L 12.4512 -69.0918 C 12.4512 -66.6504 14.0625 -65.0391 16.5039 -65.0391 Z M 17.7246 -34.9609 L 92.1875 -34.9609 C 95.4102 -34.9609 97.4609 -37.0117 97.4609 -40.332 L 97.4609 -47.1191 C 97.4609 -50.3906 95.4102 -52.4902 92.1875 -52.4902 L 17.7246 -52.4902 C 14.502 -52.4902 12.4512 -50.3906 12.4512 -47.1191 L 12.4512 -40.332 C 12.4512 -37.0117 14.502 -34.9609 17.7246 -34.9609 Z M 17.7246 6.25 L 92.1875 6.25 C 95.4102 6.25 97.4609 4.15039 97.4609 0.878906 L 97.4609 -17.1387 C 97.4609 -20.459 95.4102 -22.5586 92.1875 -22.5586 L 17.7246 -22.5586 C 14.502 -22.5586 12.4512 -20.459 12.4512 -17.1387 L 12.4512 0.878906 C 12.4512 4.15039 14.502 6.25 17.7246 6.25 Z"/>
  </g>
  <g id="Semibold-M" transform="matrix(1 0 0 1 1988.63 1126)">
   <path d="M 15.9668 -65.7227 L 93.3594 -65.7227 C 95.459 -65.7227 96.8262 -67.0898 96.8262 -69.1895 L 96.8262 -72.4609 C 96.8262 -74.5605 95.459 -75.9277 93.3594 -75.9277 L 15.9668 -75.9277 C 13.8184 -75.9277 12.4512 -74.5605 12.4512 -72.4609 L 12.4512 -69.1895 C 12.4512 -67.0898 13.8184 -65.7227 15.9668 -65.7227 Z M 17.1875 -35.3027 L 92.0898 -35.3027 C 95.0195 -35.3027 96.8262 -37.1094 96.8262 -40.0879 L 96.8262 -47.4121 C 96.8262 -50.3418 95.0195 -52.1973 92.0898 -52.1973 L 17.1875 -52.1973 C 14.3066 -52.1973 12.4512 -50.3418 12.4512 -47.4121 L 12.4512 -40.0879 C 12.4512 -37.1094 14.3066 -35.3027 17.1875 -35.3027 Z M 17.1875 6.15234 L 92.0898 6.15234 C 95.0195 6.15234 96.8262 4.29688 96.8262 1.36719 L 96.8262 -17.1875 C 96.8262 -20.1172 95.0195 -21.9727 92.0898 -21.9727 L 17.1875 -21.9727 C 14.3066 -21.9727 12.4512 -20.1172 12.4512 -17.1875 L 12.4512 1.36719 C 12.4512 4.29688 14.3066 6.15234 17.1875 6.15234 Z"/>
  </g>
  <g id="Medium-M" transform="matrix(1 0 0 1 1692.14 1126)">
   <path d="M 15.5273 -66.2109 L 93.3105 -66.2109 C 95.166 -66.2109 96.3867 -67.4316 96.3867 -69.2383 L 96.3867 -72.1191 C 96.3867 -73.9746 95.166 -75.1953 93.3105 -75.1953 L 15.5273 -75.1953 C 13.6719 -75.1953 12.4512 -73.9746 12.4512 -72.1191 L 12.4512 -69.2383 C 12.4512 -67.4316 13.6719 -66.2109 15.5273 -66.2109 Z M 16.7969 -35.5469 L 92.041 -35.5469 C 94.7266 -35.5469 96.3867 -37.207 96.3867 -39.8926 L 96.3867 -47.6074 C 96.3867 -50.293 94.7266 -51.9531 92.041 -51.9531 L 16.7969 -51.9531 C 14.1113 -51.9531 12.4512 -50.293 12.4512 -47.6074 L 12.4512 -39.8926 C 12.4512 -37.207 14.1113 -35.5469 16.7969 -35.5469 Z M 16.7969 6.05469 L 92.041 6.05469 C 94.7266 6.05469 96.3867 4.44336 96.3867 1.70898 L 96.3867 -17.1875 C 96.3867 -19.873 94.7266 -21.5332 92.041 -21.5332 L 16.7969 -21.5332 C 14.1113 -21.5332 12.4512 -19.873 12.4512 -17.1875 L 12.4512 1.70898 C 12.4512 4.44336 14.1113 6.05469 16.7969 6.05469 Z"/>
  </g>
  <g id="Regular-M" transform="matrix(1 0 0 1 1395.72 1126)">
   <path d="M 14.9902 -66.8457 L 93.2129 -66.8457 C 94.7754 -66.8457 95.8008 -67.8223 95.8008 -69.3848 L 95.8008 -71.7285 C 95.8008 -73.2422 94.7754 -74.2188 93.2129 -74.2188 L 14.9902 -74.2188 C 13.4277 -74.2188 12.4512 -73.2422 12.4512 -71.7285 L 12.4512 -69.3848 C 12.4512 -67.8223 13.4277 -66.8457 14.9902 -66.8457 Z M 16.2598 -35.8887 L 91.9922 -35.8887 C 94.3359 -35.8887 95.8008 -37.3047 95.8008 -39.6484 L 95.8008 -47.8516 C 95.8008 -50.2441 94.3359 -51.6602 91.9922 -51.6602 L 16.2598 -51.6602 C 13.8672 -51.6602 12.4512 -50.2441 12.4512 -47.8516 L 12.4512 -39.6484 C 12.4512 -37.3047 13.8672 -35.8887 16.2598 -35.8887 Z M 16.2598 6.00586 L 91.9922 6.00586 C 94.3359 6.00586 95.8008 4.58984 95.8008 2.19727 L 95.8008 -17.1875 C 95.8008 -19.5801 94.3359 -20.9961 91.9922 -20.9961 L 16.2598 -20.9961 C 13.8672 -20.9961 12.4512 -19.5801 12.4512 -17.1875 L 12.4512 2.19727 C 12.4512 4.58984 13.8672 6.00586 16.2598 6.00586 Z"/>
  </g>
  <g id="Light-M" transform="matrix(1 0 0 1 1099.52 1126)">
   <path d="M 14.4531 -67.6758 L 92.7734 -67.6758 C 94.043 -67.6758 94.7754 -68.457 94.7754 -69.6289 L 94.7754 -71.4355 C 94.7754 -72.6074 94.043 -73.3887 92.7734 -73.3887 L 14.4531 -73.3887 C 13.2324 -73.3887 12.4512 -72.6074 12.4512 -71.4355 L 12.4512 -69.6289 C 12.4512 -68.457 13.2324 -67.6758 14.4531 -67.6758 Z M 15.9668 -36.4258 L 91.2598 -36.4258 C 93.457 -36.4258 94.7754 -37.7441 94.7754 -39.9414 L 94.7754 -47.3633 C 94.7754 -49.5605 93.457 -50.8789 91.2598 -50.8789 L 15.9668 -50.8789 C 13.8184 -50.8789 12.4512 -49.5605 12.4512 -47.3633 L 12.4512 -39.9414 C 12.4512 -37.7441 13.8184 -36.4258 15.9668 -36.4258 Z M 15.9668 5.37109 L 91.2598 5.37109 C 93.457 5.37109 94.7754 4.05273 94.7754 1.85547 L 94.7754 -16.7969 C 94.7754 -18.9941 93.457 -20.2637 91.2598 -20.2637 L 15.9668 -20.2637 C 13.8184 -20.2637 12.4512 -18.9941 12.4512 -16.7969 L 12.4512 1.85547 C 12.4512 4.05273 13.8184 5.37109 15.9668 5.37109 Z"/>
  </g>
  <g id="Thin-M" transform="matrix(1 0 0 1 803.468 1126)">
   <path d="M 13.7207 -68.75 L 92.1875 -68.75 C 93.0176 -68.75 93.457 -69.2383 93.457 -69.9219 L 93.457 -71.1426 C 93.457 -71.8262 93.0176 -72.3145 92.1875 -72.3145 L 13.7207 -72.3145 C 12.8906 -72.3145 12.4512 -71.8262 12.4512 -71.1426 L 12.4512 -69.9219 C 12.4512 -69.2383 12.8906 -68.75 13.7207 -68.75 Z M 15.5762 -37.1582 L 90.332 -37.1582 C 92.2363 -37.1582 93.457 -38.2812 93.457 -40.332 L 93.457 -46.6797 C 93.457 -48.6816 92.2363 -49.8535 90.332 -49.8535 L 15.5762 -49.8535 C 13.6719 -49.8535 12.4512 -48.6816 12.4512 -46.6797 L 12.4512 -40.332 C 12.4512 -38.2812 13.6719 -37.1582 15.5762 -37.1582 Z M 15.5762 4.54102 L 90.332 4.54102 C 92.2363 4.54102 93.457 3.36914 93.457 1.36719 L 93.457 -16.2109 C 93.457 -18.2129 92.2363 -19.3848 90.332 -19.3848 L 15.5762 -19.3848 C 13.6719 -19.3848 12.4512 -18.2129 12.4512 -16.2109 L 12.4512 1.36719 C 12.4512 3.36914 13.6719 4.54102 15.5762 4.54102 Z"/>
  </g>
  <g id="Ultralight-M" transform="matrix(1 0 0 1 507.099 1126)">
   <path d="M 13.3789 -69.3359 L 91.8945 -69.3359 C 92.4805 -69.3359 92.7734 -69.6289 92.7734 -70.1172 L 92.7734 -70.9473 C 92.7734 -71.4355 92.4805 -71.7285 91.8945 -71.7285 L 13.3789 -71.7285 C 12.7441 -71.7285 12.4512 -71.4355 12.4512 -70.9473 L 12.4512 -70.1172 C 12.4512 -69.6289 12.7441 -69.3359 13.3789 -69.3359 Z M 15.3809 -37.5488 L 89.8926 -37.5488 C 91.6016 -37.5488 92.7734 -38.5742 92.7734 -40.5273 L 92.7734 -46.3379 C 92.7734 -48.2422 91.6016 -49.3164 89.8926 -49.3164 L 15.3809 -49.3164 C 13.623 -49.3164 12.4512 -48.2422 12.4512 -46.3379 L 12.4512 -40.5273 C 12.4512 -38.5742 13.623 -37.5488 15.3809 -37.5488 Z M 15.3809 4.10156 L 89.8926 4.10156 C 91.6016 4.10156 92.7734 3.02734 92.7734 1.12305 L 92.7734 -15.918 C 92.7734 -17.8223 91.6016 -18.8965 89.8926 -18.8965 L 15.3809 -18.8965 C 13.623 -18.8965 12.4512 -17.8223 12.4512 -15.918 L 12.4512 1.12305 C 12.4512 3.02734 13.623 4.10156 15.3809 4.10156 Z"/>
  </g>
  <g id="Black-S" transform="matrix(1 0 0 1 2889.7 696)">
   <path d="M 14.0625 -57.2266 L 73.3398 -57.2266 C 75.9277 -57.2266 77.6367 -58.9355 77.6367 -61.5234 L 77.6367 -65.625 C 77.6367 -68.2129 75.9277 -69.9219 73.3398 -69.9219 L 14.0625 -69.9219 C 11.4746 -69.9219 9.76562 -68.2129 9.76562 -65.625 L 9.76562 -61.5234 C 9.76562 -58.9355 11.4746 -57.2266 14.0625 -57.2266 Z M 14.9902 -34.2773 L 72.4121 -34.2773 C 75.5371 -34.2773 77.6367 -36.4258 77.6367 -39.6973 L 77.6367 -43.9941 C 77.6367 -47.2656 75.5371 -49.4141 72.4121 -49.4141 L 14.9902 -49.4141 C 11.8652 -49.4141 9.76562 -47.2656 9.76562 -43.9941 L 9.76562 -39.6973 C 9.76562 -36.4258 11.8652 -34.2773 14.9902 -34.2773 Z M 14.9902 -2.53906 L 72.4121 -2.53906 C 75.5371 -2.53906 77.6367 -4.6875 77.6367 -7.95898 L 77.6367 -21.0449 C 77.6367 -24.3164 75.5371 -26.4648 72.4121 -26.4648 L 14.9902 -26.4648 C 11.8652 -26.4648 9.76562 -24.3164 9.76562 -21.0449 L 9.76562 -7.95898 C 9.76562 -4.6875 11.8652 -2.53906 14.9902 -2.53906 Z"/>
  </g>
  <g id="Heavy-S" transform="matrix(1 0 0 1 2593.23 696)">
   <path d="M 13.5742 -57.7637 L 73.3398 -57.7637 C 75.6348 -57.7637 77.1484 -59.3262 77.1484 -61.6211 L 77.1484 -65.2344 C 77.1484 -67.5293 75.6348 -69.043 73.3398 -69.043 L 13.5742 -69.043 C 11.2793 -69.043 9.76562 -67.5293 9.76562 -65.2344 L 9.76562 -61.6211 C 9.76562 -59.3262 11.2793 -57.7637 13.5742 -57.7637 Z M 14.502 -34.5703 L 72.4121 -34.5703 C 75.2441 -34.5703 77.1484 -36.4746 77.1484 -39.4531 L 77.1484 -44.3359 C 77.1484 -47.2656 75.2441 -49.1699 72.4121 -49.1699 L 14.502 -49.1699 C 11.6211 -49.1699 9.76562 -47.2656 9.76562 -44.3359 L 9.76562 -39.4531 C 9.76562 -36.4746 11.6211 -34.5703 14.502 -34.5703 Z M 14.502 -2.53906 L 72.4121 -2.53906 C 75.2441 -2.53906 77.1484 -4.49219 77.1484 -7.42188 L 77.1484 -21.0938 C 77.1484 -24.0723 75.2441 -25.9766 72.4121 -25.9766 L 14.502 -25.9766 C 11.6211 -25.9766 9.76562 -24.0723 9.76562 -21.0938 L 9.76562 -7.42188 C 9.76562 -4.49219 11.6211 -2.53906 14.502 -2.53906 Z"/>
  </g>
  <g id="Bold-S" transform="matrix(1 0 0 1 2296.81 696)">
   <path d="M 13.0371 -58.3984 L 73.291 -58.3984 C 75.293 -58.3984 76.5625 -59.7168 76.5625 -61.6699 L 76.5625 -64.7949 C 76.5625 -66.748 75.293 -68.0664 73.291 -68.0664 L 13.0371 -68.0664 C 11.084 -68.0664 9.76562 -66.748 9.76562 -64.7949 L 9.76562 -61.6699 C 9.76562 -59.7168 11.084 -58.3984 13.0371 -58.3984 Z M 13.9648 -34.8633 L 72.4121 -34.8633 C 74.9512 -34.8633 76.5625 -36.5234 76.5625 -39.1113 L 76.5625 -44.6777 C 76.5625 -47.2656 74.9512 -48.9258 72.4121 -48.9258 L 13.9648 -48.9258 C 11.377 -48.9258 9.76562 -47.2656 9.76562 -44.6777 L 9.76562 -39.1113 C 9.76562 -36.5234 11.377 -34.8633 13.9648 -34.8633 Z M 13.9648 -2.58789 L 72.4121 -2.58789 C 74.9512 -2.58789 76.5625 -4.24805 76.5625 -6.83594 L 76.5625 -21.1914 C 76.5625 -23.7793 74.9512 -25.4395 72.4121 -25.4395 L 13.9648 -25.4395 C 11.377 -25.4395 9.76562 -23.7793 9.76562 -21.1914 L 9.76562 -6.83594 C 9.76562 -4.24805 11.377 -2.58789 13.9648 -2.58789 Z"/>
  </g>
  <g id="Semibold-S" transform="matrix(1 0 0 1 2000.27 696)">
   <path d="M 12.6953 -58.8379 L 73.291 -58.8379 C 75.0488 -58.8379 76.2207 -60.0098 76.2207 -61.7676 L 76.2207 -64.4531 C 76.2207 -66.2109 75.0488 -67.3828 73.291 -67.3828 L 12.6953 -67.3828 C 10.9375 -67.3828 9.76562 -66.2109 9.76562 -64.4531 L 9.76562 -61.7676 C 9.76562 -60.0098 10.9375 -58.8379 12.6953 -58.8379 Z M 13.5742 -35.1074 L 72.4121 -35.1074 C 74.7559 -35.1074 76.2207 -36.5723 76.2207 -38.916 L 76.2207 -44.9219 C 76.2207 -47.3145 74.7559 -48.7793 72.4121 -48.7793 L 13.5742 -48.7793 C 11.2305 -48.7793 9.76562 -47.3145 9.76562 -44.9219 L 9.76562 -38.916 C 9.76562 -36.5723 11.2305 -35.1074 13.5742 -35.1074 Z M 13.5742 -2.58789 L 72.4121 -2.58789 C 74.7559 -2.58789 76.2207 -4.05273 76.2207 -6.44531 L 76.2207 -21.2402 C 76.2207 -23.584 74.7559 -25.0488 72.4121 -25.0488 L 13.5742 -25.0488 C 11.2305 -25.0488 9.76562 -23.584 9.76562 -21.2402 L 9.76562 -6.44531 C 9.76562 -4.05273 11.2305 -2.58789 13.5742 -2.58789 Z"/>
  </g>
  <g id="Medium-S" transform="matrix(1 0 0 1 1703.71 696)">
   <path d="M 12.4023 -59.1797 L 73.291 -59.1797 C 74.8535 -59.1797 75.9277 -60.2051 75.9277 -61.8164 L 75.9277 -64.209 C 75.9277 -65.8203 74.8535 -66.8457 73.291 -66.8457 L 12.4023 -66.8457 C 10.791 -66.8457 9.76562 -65.8203 9.76562 -64.209 L 9.76562 -61.8164 C 9.76562 -60.2051 10.791 -59.1797 12.4023 -59.1797 Z M 13.2812 -35.2539 L 72.4121 -35.2539 C 74.5605 -35.2539 75.9277 -36.6211 75.9277 -38.7695 L 75.9277 -45.1172 C 75.9277 -47.3145 74.5605 -48.6328 72.4121 -48.6328 L 13.2812 -48.6328 C 11.084 -48.6328 9.76562 -47.3145 9.76562 -45.1172 L 9.76562 -38.7695 C 9.76562 -36.6211 11.084 -35.2539 13.2812 -35.2539 Z M 13.2812 -2.63672 L 72.4121 -2.63672 C 74.5605 -2.63672 75.9277 -3.95508 75.9277 -6.10352 L 75.9277 -21.2891 C 75.9277 -23.4375 74.5605 -24.7559 72.4121 -24.7559 L 13.2812 -24.7559 C 11.084 -24.7559 9.76562 -23.4375 9.76562 -21.2891 L 9.76562 -6.10352 C 9.76562 -3.95508 11.084 -2.63672 13.2812 -2.63672 Z"/>
  </g>
  <g id="Regular-S" transform="matrix(1 0 0 1 1407.19 696)">
   <path d="M 12.0117 -59.6191 L 73.291 -59.6191 C 74.6582 -59.6191 75.5371 -60.498 75.5371 -61.8652 L 75.5371 -63.916 C 75.5371 -65.2832 74.6582 -66.1621 73.291 -66.1621 L 12.0117 -66.1621 C 10.6445 -66.1621 9.76562 -65.2832 9.76562 -63.916 L 9.76562 -61.8652 C 9.76562 -60.498 10.6445 -59.6191 12.0117 -59.6191 Z M 12.8906 -35.498 L 72.4121 -35.498 C 74.3652 -35.498 75.5371 -36.6211 75.5371 -38.5742 L 75.5371 -45.3613 C 75.5371 -47.3145 74.3652 -48.4863 72.4121 -48.4863 L 12.8906 -48.4863 C 10.9375 -48.4863 9.76562 -47.3145 9.76562 -45.3613 L 9.76562 -38.5742 C 9.76562 -36.6211 10.9375 -35.498 12.8906 -35.498 Z M 12.8906 -2.63672 L 72.4121 -2.63672 C 74.3652 -2.63672 75.5371 -3.80859 75.5371 -5.71289 L 75.5371 -21.3379 C 75.5371 -23.2422 74.3652 -24.4141 72.4121 -24.4141 L 12.8906 -24.4141 C 10.9375 -24.4141 9.76562 -23.2422 9.76562 -21.3379 L 9.76562 -5.71289 C 9.76562 -3.80859 10.9375 -2.63672 12.8906 -2.63672 Z"/>
  </g>
  <g id="Light-S" transform="matrix(1 0 0 1 1110.92 696)">
   <path d="M 11.5234 -60.3516 L 72.8516 -60.3516 C 73.9746 -60.3516 74.6582 -61.0352 74.6582 -62.0605 L 74.6582 -63.7207 C 74.6582 -64.7461 73.9746 -65.4297 72.8516 -65.4297 L 11.5234 -65.4297 C 10.4492 -65.4297 9.76562 -64.7461 9.76562 -63.7207 L 9.76562 -62.0605 C 9.76562 -61.0352 10.4492 -60.3516 11.5234 -60.3516 Z M 12.6465 -35.9863 L 71.7773 -35.9863 C 73.584 -35.9863 74.6582 -37.0117 74.6582 -38.8184 L 74.6582 -44.9219 C 74.6582 -46.7285 73.584 -47.7539 71.7773 -47.7539 L 12.6465 -47.7539 C 10.8398 -47.7539 9.76562 -46.7285 9.76562 -44.9219 L 9.76562 -38.8184 C 9.76562 -37.0117 10.8398 -35.9863 12.6465 -35.9863 Z M 12.6465 -3.17383 L 71.7773 -3.17383 C 73.584 -3.17383 74.6582 -4.24805 74.6582 -6.05469 L 74.6582 -20.9473 C 74.6582 -22.7539 73.584 -23.7793 71.7773 -23.7793 L 12.6465 -23.7793 C 10.8398 -23.7793 9.76562 -22.7539 9.76562 -20.9473 L 9.76562 -6.05469 C 9.76562 -4.24805 10.8398 -3.17383 12.6465 -3.17383 Z"/>
  </g>
  <g id="Thin-S" transform="matrix(1 0 0 1 814.796 696)">
   <path d="M 10.8887 -61.2793 L 72.3633 -61.2793 C 73.0957 -61.2793 73.4863 -61.7188 73.4863 -62.3535 L 73.4863 -63.4277 C 73.4863 -64.0625 73.0957 -64.502 72.3633 -64.502 L 10.8887 -64.502 C 10.2051 -64.502 9.76562 -64.0625 9.76562 -63.4277 L 9.76562 -62.3535 C 9.76562 -61.7188 10.2051 -61.2793 10.8887 -61.2793 Z M 12.3047 -36.6211 L 70.9961 -36.6211 C 72.5098 -36.6211 73.4863 -37.5 73.4863 -39.1602 L 73.4863 -44.3359 C 73.4863 -45.9473 72.5098 -46.875 70.9961 -46.875 L 12.3047 -46.875 C 10.7422 -46.875 9.76562 -45.9473 9.76562 -44.3359 L 9.76562 -39.1602 C 9.76562 -37.5 10.7422 -36.6211 12.3047 -36.6211 Z M 12.3047 -3.90625 L 70.9961 -3.90625 C 72.5098 -3.90625 73.4863 -4.83398 73.4863 -6.44531 L 73.4863 -20.459 C 73.4863 -22.0703 72.5098 -22.998 70.9961 -22.998 L 12.3047 -22.998 C 10.7422 -22.998 9.76562 -22.0703 9.76562 -20.459 L 9.76562 -6.44531 C 9.76562 -4.83398 10.7422 -3.90625 12.3047 -3.90625 Z"/>
  </g>
  <g id="Ultralight-S" transform="matrix(1 0 0 1 518.378 696)">
   <path d="M 10.5957 -61.8164 L 72.0703 -61.8164 C 72.6074 -61.8164 72.9004 -62.0605 72.9004 -62.5 L 72.9004 -63.2812 C 72.9004 -63.7207 72.6074 -63.9648 72.0703 -63.9648 L 10.5957 -63.9648 C 10.0586 -63.9648 9.76562 -63.7207 9.76562 -63.2812 L 9.76562 -62.5 C 9.76562 -62.0605 10.0586 -61.8164 10.5957 -61.8164 Z M 12.1094 -36.9141 L 70.5566 -36.9141 C 71.9727 -36.9141 72.9004 -37.793 72.9004 -39.3066 L 72.9004 -43.9941 C 72.9004 -45.5566 71.9727 -46.3867 70.5566 -46.3867 L 12.1094 -46.3867 C 10.6934 -46.3867 9.76562 -45.5566 9.76562 -43.9941 L 9.76562 -39.3066 C 9.76562 -37.793 10.6934 -36.9141 12.1094 -36.9141 Z M 12.1094 -4.29688 L 70.5566 -4.29688 C 71.9727 -4.29688 72.9004 -5.17578 72.9004 -6.68945 L 72.9004 -20.166 C 72.9004 -21.7285 71.9727 -22.5586 70.5566 -22.5586 L 12.1094 -22.5586 C 10.6934 -22.5586 9.76562 -21.7285 9.76562 -20.166 L 9.76562 -6.68945 C 9.76562 -5.17578 10.6934 -4.29688 12.1094 -4.29688 Z"/>
  </g>
 </g>
</svg>
