<svg xmlns="http://www.w3.org/2000/svg" xmlns:xlink="http://www.w3.org/1999/xlink" viewBox="0 0 127.24 136.23"><defs><linearGradient id="linear-gradient" x1="-20.1" y1="356.73" x2="30.37" y2="445.07" gradientTransform="translate(-46.45 -288.84) rotate(-15.26)" gradientUnits="userSpaceOnUse"><stop offset="0" stop-color="#580c1f"/><stop offset="1" stop-color="#f84aa7"/></linearGradient><linearGradient id="linear-gradient-2" x1="54.75" y1="328.49" x2="-53" y2="390.05" xlink:href="#linear-gradient"/><linearGradient id="linear-gradient-3" x1="11.36" y1="332.75" x2="81.15" y2="333.07" xlink:href="#linear-gradient"/><linearGradient id="linear-gradient-4" x1="44.71" y1="97.32" x2="127.24" y2="97.32" gradientTransform="matrix(1, 0, 0, 1, 0, 0)" xlink:href="#linear-gradient"/></defs><title>Asset 33</title><g id="Layer_2" data-name="Layer 2"><g id="Layer_1-2" data-name="Layer 1"><path d="M127.19,102a68.08,68.08,0,0,1-87.52,28h0C2.35,60,53.7,38.64,54.75,38.22a32.75,32.75,0,0,0-10,52.8C73.16,125.73,124.47,103.21,127.19,102Z" style="fill:url(#linear-gradient)"/><path d="M118,38.82h0L79.16,48.74l5.18-9.07a32.69,32.69,0,0,0-24.85-3.15,33.56,33.56,0,0,0-4.73,1.69h0C53.7,38.64,2.35,60,39.67,130A68.09,68.09,0,0,1,9,34.33H9C61-6.09,118,38.82,118,38.82Z" style="fill:url(#linear-gradient-2)"/><path d="M118,38.82S61-6.09,9,34.33A68.1,68.1,0,0,1,101.88,9L106.81.34Z" style="fill:url(#linear-gradient-3)"/><path d="M127.24,101.89l0,.09c-2.72,1.23-54,23.75-82.48-11a32.74,32.74,0,0,0,51.83-6.67Z" style="fill:url(#linear-gradient-4)"/></g></g></svg>