<svg xmlns="http://www.w3.org/2000/svg" xmlns:xlink="http://www.w3.org/1999/xlink" viewBox="0 0 207.34 207.34"><defs><linearGradient id="linear-gradient" x2="207.34" y2="207.34" gradientUnits="userSpaceOnUse"><stop offset="0" stop-color="#eee"/><stop offset="1" stop-color="#eaeaea"/></linearGradient><linearGradient id="linear-gradient-2" x1="19.95" y1="392.29" x2="70.42" y2="480.63" gradientTransform="translate(-54.39 -277.04) rotate(-15.26)" gradientUnits="userSpaceOnUse"><stop offset="0" stop-color="#580c1f"/><stop offset="1" stop-color="#f84aa7"/></linearGradient><linearGradient id="linear-gradient-3" x1="94.8" y1="364.05" x2="-12.94" y2="425.6" xlink:href="#linear-gradient-2"/><linearGradient id="linear-gradient-4" x1="51.41" y1="368.31" x2="121.2" y2="368.63" xlink:href="#linear-gradient-2"/><linearGradient id="linear-gradient-5" x1="84.76" y1="132.88" x2="167.29" y2="132.88" gradientTransform="matrix(1, 0, 0, 1, 0, 0)" xlink:href="#linear-gradient-2"/></defs><title>Icon_5</title><g id="Layer_2" data-name="Layer 2"><g id="Layer_1-2" data-name="Layer 1"><rect width="207.34" height="207.34" style="fill:url(#linear-gradient)"/><path d="M167.24,137.54a68.08,68.08,0,0,1-87.52,28h0c-37.32-70,14-91.34,15.08-91.76a32.76,32.76,0,0,0-10,52.8C113.21,161.29,164.52,138.76,167.24,137.54Z" style="fill:url(#linear-gradient-2)"/><path d="M158.05,74.38h0L119.21,84.3l5.18-9.07a32.62,32.62,0,0,0-24.84-3.15,33.25,33.25,0,0,0-4.74,1.69h0c-1,.42-52.4,21.79-15.08,91.76A68.09,68.09,0,0,1,49,69.89h0C101,29.47,158.05,74.38,158.05,74.38Z" style="fill:url(#linear-gradient-3)"/><path d="M158.05,74.38S101,29.47,49,69.89a68.1,68.1,0,0,1,92.89-25.35l4.93-8.64Z" style="fill:url(#linear-gradient-4)"/><path d="M167.29,137.45l0,.09c-2.72,1.22-54,23.75-82.48-11a32.74,32.74,0,0,0,51.83-6.67Z" style="fill:url(#linear-gradient-5)"/></g></g></svg>