<svg width="342" height="342" viewBox="0 0 342 342" fill="none" xmlns="http://www.w3.org/2000/svg">
<path d="M288.562 0H53.4375C23.9721 0 0 23.9721 0 53.4375V66.7969C0 74.1753 5.98099 80.1562 13.3594 80.1562C20.7378 80.1562 26.7188 74.1753 26.7188 66.7969V53.4375C26.7188 38.7048 38.7048 26.7188 53.4375 26.7188H288.562C303.295 26.7188 315.281 38.7048 315.281 53.4375V288.562C315.281 303.295 303.295 315.281 288.562 315.281H53.4375C38.7048 315.281 26.7188 303.295 26.7188 288.562V275.203C26.7188 267.825 20.7378 261.844 13.3594 261.844C5.98099 261.844 0 267.825 0 275.203V288.562C0 318.028 23.9721 342 53.4375 342H288.562C318.028 342 342 318.028 342 288.562V53.4375C342 23.9721 318.028 0 288.562 0Z" fill="#13547A"/>
<path d="M30.7206 180.537C30.6912 180.506 30.6611 180.476 30.631 180.446C25.4222 175.238 25.4222 166.762 30.6584 161.526L80.2778 111.618C85.48 106.386 85.4552 97.9275 80.223 92.7254C74.9908 87.5239 66.5324 87.548 61.3302 92.7802L11.7382 142.661C-3.87155 158.27 -3.88824 183.66 11.6895 199.29L61.2688 249.824C63.8845 252.491 67.3433 253.828 70.8054 253.828C74.1813 253.828 77.5605 252.556 80.1596 250.005C85.4265 244.838 85.5073 236.379 80.3399 231.113L30.7206 180.537Z" fill="#13547A"/>
<path d="M222.434 157.641H80.1562C72.7779 157.641 66.7969 163.622 66.7969 171C66.7969 178.378 72.7779 184.359 80.1562 184.359H222.434C229.812 184.359 235.793 178.378 235.793 171C235.793 163.622 229.812 157.641 222.434 157.641Z" fill="#13547A"/>
</svg>
