<svg width="24" height="21" viewBox="0 0 24 21" fill="none" xmlns="http://www.w3.org/2000/svg">
<path d="M1.07812 1.98438H22.8984C23.2969 1.98438 23.6016 1.69141 23.6016 1.30469C23.6016 0.917969 23.2969 0.613281 22.8984 0.613281H1.07812C0.679688 0.613281 0.386719 0.917969 0.386719 1.30469C0.386719 1.69141 0.679688 1.98438 1.07812 1.98438ZM1.07812 8.13672H22.8984C23.2969 8.13672 23.6016 7.83203 23.6016 7.44531C23.6016 7.05859 23.2969 6.76562 22.8984 6.76562H1.07812C0.679688 6.76562 0.386719 7.05859 0.386719 7.44531C0.386719 7.83203 0.679688 8.13672 1.07812 8.13672ZM1.07812 14.2773H22.8984C23.2969 14.2773 23.6016 13.9844 23.6016 13.5977C23.6016 13.2109 23.2969 12.9062 22.8984 12.9062H1.07812C0.679688 12.9062 0.386719 13.2109 0.386719 13.5977C0.386719 13.9844 0.679688 14.2773 1.07812 14.2773ZM1.07812 20.4297H22.8984C23.2969 20.4297 23.6016 20.125 23.6016 19.7383C23.6016 19.3516 23.2969 19.0586 22.8984 19.0586H1.07812C0.679688 19.0586 0.386719 19.3516 0.386719 19.7383C0.386719 20.125 0.679688 20.4297 1.07812 20.4297Z" fill="#561643"/>
</svg>
