<svg width="340" height="340" viewBox="0 0 340 340" fill="none" xmlns="http://www.w3.org/2000/svg">
<path d="M55.4375 339.688H284.375C320.938 339.688 339.688 320.938 339.688 284.938V55.0625C339.688 18.875 320.938 0.125 284.375 0.125H55.4375C18.875 0.125 0.125 18.6875 0.125 55.0625V284.938C0.125 321.125 18.875 339.688 55.4375 339.688ZM55.8125 316.438C34.8125 316.438 23.375 305.375 23.375 283.625V56.1875C23.375 34.625 34.8125 23.375 55.8125 23.375H283.812C304.625 23.375 316.438 34.625 316.438 56.1875V283.625C316.438 305.375 304.625 316.438 283.812 316.438H55.8125ZM91.4375 182H248.75C256.625 182 262.25 177.5 262.25 170C262.25 162.312 257 157.812 248.75 157.812H91.4375C83.1875 157.812 77.75 162.312 77.75 170C77.75 177.5 83.5625 182 91.4375 182Z" fill="#FFFFFF"/>
</svg>
