<svg width="384" height="384" viewBox="0 0 384 384" fill="none" xmlns="http://www.w3.org/2000/svg">
<g clip-path="url(#clip0)">
<path d="M192 268.8L89.6 166.4M192 384V179.2V384ZM192 192V268.8V192ZM192 192C192 164.842 181.212 138.796 162.008 119.592C142.804 100.389 116.758 89.6 89.6 89.6H12.8V166.4C12.8 193.558 23.5886 219.604 42.7923 238.808C61.996 258.011 88.0419 268.8 115.2 268.8H192V192ZM192 192H268.8C295.958 192 322.004 181.211 341.208 162.008C360.412 142.804 371.2 116.758 371.2 89.6V12.8H294.4C267.242 12.8 241.196 23.5885 221.992 42.7923C202.789 61.996 192 88.0418 192 115.2V192ZM192 192L294.4 89.6L192 192Z" stroke="#4DA167" stroke-width="25.6"/>
</g>
<defs>
<clipPath id="clip0">
<rect width="384" height="384" fill="white"/>
</clipPath>
</defs>
</svg>
