<svg width="64" height="64" viewBox="0 0 64 64" fill="none" xmlns="http://www.w3.org/2000/svg">
<path d="M48 50.0412L52.3913 50C53.347 49.9957 54.2624 49.6141 54.9383 48.9383C55.6141 48.2624 55.9957 47.347 56 46.3913V17.6087C55.9957 16.653 55.6141 15.7375 54.9383 15.0617C54.2624 14.3859 53.347 14.0043 52.3913 14L48 14.0413" stroke="#561643" stroke-width="4" stroke-linecap="round" stroke-linejoin="round"/>
<path d="M16 14L11.4 14.0413C9.415 14.0413 8 15.6662 8 17.65V46.4338C8 48.4175 9.415 50.0412 11.4 50.0412L16 50" stroke="#561643" stroke-width="4" stroke-linecap="round" stroke-linejoin="round"/>
<path d="M48 24V40" stroke="#561643" stroke-width="4" stroke-linecap="round" stroke-linejoin="round"/>
<path d="M40 20V44" stroke="#561643" stroke-width="4" stroke-linecap="round" stroke-linejoin="round"/>
<path d="M32 22V42" stroke="#561643" stroke-width="4" stroke-linecap="round" stroke-linejoin="round"/>
<path d="M24 20V44" stroke="#561643" stroke-width="4" stroke-linecap="round" stroke-linejoin="round"/>
<path d="M16 24V40" stroke="#561643" stroke-width="4" stroke-linecap="round" stroke-linejoin="round"/>
</svg>
