<svg width="48" height="48" viewBox="0 0 48 48" fill="none" xmlns="http://www.w3.org/2000/svg">
<path d="M37.4336 36.7197C35.5503 36.7197 33.7791 35.9865 32.4476 34.6554L25.248 27.456C24.7427 26.9491 23.8615 26.9507 23.3563 27.456L16.1305 34.6818C14.7987 36.0127 13.0276 36.7459 11.1442 36.7459H9.72554L18.8437 45.8643C21.6915 48.7119 26.3086 48.7119 29.1564 45.8643L38.301 36.7197H37.4336Z" fill="#561643"/>
<path d="M11.1443 11.2538C13.0276 11.2538 14.7987 11.9873 16.1303 13.3184L23.3561 20.5453C23.8765 21.0657 24.7263 21.068 25.248 20.5447L32.4474 13.3446C33.7792 12.0135 35.5503 11.2802 37.4336 11.2802H38.3008L29.1564 2.13586C26.3086 -0.711935 21.6915 -0.711935 18.8437 2.13586L9.7258 11.2538H11.1443Z" fill="#561643"/>
<path d="M45.8643 18.8438L40.3383 13.3177C40.2166 13.3665 40.085 13.397 39.9459 13.397H37.4336C36.1346 13.397 34.8631 13.9237 33.9454 14.8421L26.7457 22.0417C26.0723 22.7154 25.1871 23.0527 24.3025 23.0527C23.4173 23.0527 22.5327 22.7154 21.8591 22.0424L14.6326 14.8159C13.7146 13.8975 12.4433 13.3708 11.1443 13.3708H8.05493C7.92331 13.3708 7.80004 13.3396 7.68377 13.2958L2.13584 18.8438C-0.711948 21.6913 -0.711948 26.3084 2.13584 29.1565L7.68355 34.7042C7.79982 34.6604 7.92331 34.6292 8.05493 34.6292H11.1443C12.4433 34.6292 13.7146 34.1025 14.6326 33.1841L21.8584 25.9583C23.1644 24.6534 25.441 24.6527 26.7457 25.959L33.9454 33.1577C34.8631 34.0763 36.1346 34.603 37.4336 34.603H39.9459C40.0852 34.603 40.2166 34.6333 40.3385 34.682L45.8643 29.1565C48.7121 26.3084 48.7121 21.6913 45.8643 18.8438Z" fill="#561643"/>
</svg>
