<svg height="512" viewBox="0 0 64 64" width="512" xmlns="http://www.w3.org/2000/svg"><g id="Warning"><rect fill="#2488ff" height="32" rx="4" width="54" x="4" y="9"/><path d="m55.64 9.36a3.961 3.961 0 0 1 .36 1.64v24a4 4 0 0 1 -4 4h-46a3.961 3.961 0 0 1 -1.64-.36 3.994 3.994 0 0 0 3.64 2.36h46a4 4 0 0 0 4-4v-24a3.994 3.994 0 0 0 -2.36-3.64z" fill="#006df0"/><path d="m4 15h54v6h-54z" fill="#58595b"/><path d="m36 49h3v-8h-8v3a5 5 0 0 0 5 5z" fill="#e5a99a"/><path d="m50 3a11 11 0 1 0 11 11 11 11 0 0 0 -11-11zm-7 16 7-13 7 13z" fill="#ffcd00"/><circle cx="16" cy="34" fill="#f7941d" r="3"/><path d="m43 19h14l-7-13z" fill="#ed1c24"/><path d="m27 31a4 4 0 0 0 -4 4v6h-9l-3.19 7.177a4 4 0 0 0 .159 3.567l3.779 6.8a2 2 0 0 1 .252.971v1.485h16v-26a4 4 0 0 0 -4-4z" fill="#ffbcab"/><g fill="#f1f2f2"><path d="m36 33h-2a1 1 0 0 0 0 2h2a1 1 0 0 0 0-2z"/><path d="m48 33h-2a1 1 0 0 0 0 2h2a1 1 0 0 0 0-2z"/><path d="m54 33h-2a1 1 0 0 0 0 2h2a1 1 0 0 0 0-2z"/><path d="m42 33h-2a1 1 0 0 0 0 2h2a1 1 0 0 0 0-2z"/><path d="m50 15a1 1 0 0 0 1-1v-3a1 1 0 0 0 -2 0v3a1 1 0 0 0 1 1z"/><circle cx="50" cy="17" r="1"/></g><circle cx="11" cy="34" fill="#f15a29" r="3"/></g></svg>