<svg width="64" height="64" viewBox="0 0 64 64" fill="none" xmlns="http://www.w3.org/2000/svg">
<g clip-path="url(#clip0)">
<path fill-rule="evenodd" clip-rule="evenodd" d="M56 12H8C6.93913 12 5.92172 12.4214 5.17157 13.1716C4.42143 13.9217 4 14.9391 4 16V48C4 49.0609 4.42143 50.0783 5.17157 50.8284C5.92172 51.5786 6.93913 52 8 52H56C57.0609 52 58.0783 51.5786 58.8284 50.8284C59.5786 50.0783 60 49.0609 60 48V16C60 14.9391 59.5786 13.9217 58.8284 13.1716C58.0783 12.4214 57.0609 12 56 12ZM8 8C5.87827 8 3.84344 8.84285 2.34315 10.3431C0.842855 11.8434 0 13.8783 0 16L0 48C0 50.1217 0.842855 52.1566 2.34315 53.6569C3.84344 55.1571 5.87827 56 8 56H56C58.1217 56 60.1566 55.1571 61.6569 53.6569C63.1571 52.1566 64 50.1217 64 48V16C64 13.8783 63.1571 11.8434 61.6569 10.3431C60.1566 8.84285 58.1217 8 56 8H8Z" fill="#561643"/>
<path d="M8 22C8 21.4696 8.21071 20.9609 8.58579 20.5858C8.96086 20.2107 9.46957 20 10 20H18C18.5304 20 19.0391 20.2107 19.4142 20.5858C19.7893 20.9609 20 21.4696 20 22V26C20 26.5304 19.7893 27.0391 19.4142 27.4142C19.0391 27.7893 18.5304 28 18 28H10C9.46957 28 8.96086 27.7893 8.58579 27.4142C8.21071 27.0391 8 26.5304 8 26V22Z" fill="#561643"/>
<path fill-rule="evenodd" clip-rule="evenodd" d="M8 34C8 33.4696 8.21071 32.9609 8.58579 32.5858C8.96086 32.2107 9.46957 32 10 32H30C30.5304 32 31.0391 32.2107 31.4142 32.5858C31.7893 32.9609 32 33.4696 32 34C32 34.5304 31.7893 35.0391 31.4142 35.4142C31.0391 35.7893 30.5304 36 30 36H10C9.46957 36 8.96086 35.7893 8.58579 35.4142C8.21071 35.0391 8 34.5304 8 34ZM8 42C8 41.4696 8.21071 40.9609 8.58579 40.5858C8.96086 40.2107 9.46957 40 10 40H14C14.5304 40 15.0391 40.2107 15.4142 40.5858C15.7893 40.9609 16 41.4696 16 42C16 42.5304 15.7893 43.0391 15.4142 43.4142C15.0391 43.7893 14.5304 44 14 44H10C9.46957 44 8.96086 43.7893 8.58579 43.4142C8.21071 43.0391 8 42.5304 8 42ZM20 42C20 41.4696 20.2107 40.9609 20.5858 40.5858C20.9609 40.2107 21.4696 40 22 40H26C26.5304 40 27.0391 40.2107 27.4142 40.5858C27.7893 40.9609 28 41.4696 28 42C28 42.5304 27.7893 43.0391 27.4142 43.4142C27.0391 43.7893 26.5304 44 26 44H22C21.4696 44 20.9609 43.7893 20.5858 43.4142C20.2107 43.0391 20 42.5304 20 42ZM32 42C32 41.4696 32.2107 40.9609 32.5858 40.5858C32.9609 40.2107 33.4696 40 34 40H38C38.5304 40 39.0391 40.2107 39.4142 40.5858C39.7893 40.9609 40 41.4696 40 42C40 42.5304 39.7893 43.0391 39.4142 43.4142C39.0391 43.7893 38.5304 44 38 44H34C33.4696 44 32.9609 43.7893 32.5858 43.4142C32.2107 43.0391 32 42.5304 32 42ZM44 42C44 41.4696 44.2107 40.9609 44.5858 40.5858C44.9609 40.2107 45.4696 40 46 40H50C50.5304 40 51.0391 40.2107 51.4142 40.5858C51.7893 40.9609 52 41.4696 52 42C52 42.5304 51.7893 43.0391 51.4142 43.4142C51.0391 43.7893 50.5304 44 50 44H46C45.4696 44 44.9609 43.7893 44.5858 43.4142C44.2107 43.0391 44 42.5304 44 42Z" fill="#561643"/>
</g>
<defs>
<clipPath id="clip0">
<rect width="64" height="64" fill="white"/>
</clipPath>
</defs>
</svg>
