<svg width="16" height="17" viewBox="0 0 16 17" fill="none" xmlns="http://www.w3.org/2000/svg">
<path d="M8.00879 8.77734C10.0566 8.77734 11.7002 6.97559 11.7002 4.73438C11.7002 2.5459 10.0479 0.788086 8.00879 0.788086C5.97852 0.788086 4.30859 2.56348 4.31738 4.74316C4.32617 6.98438 5.96094 8.77734 8.00879 8.77734ZM8.00879 7.74902C6.57617 7.74902 5.40723 6.43945 5.40723 4.74316C5.38965 3.11719 6.57617 1.8252 8.00879 1.8252C9.44141 1.8252 10.6104 3.09961 10.6104 4.73438C10.6104 6.42188 9.4502 7.74902 8.00879 7.74902ZM2.32227 16.8369H13.6689C14.9609 16.8369 15.5674 16.4238 15.5674 15.5361C15.5674 13.2422 12.6846 9.98145 8 9.98145C3.30664 9.98145 0.423828 13.2422 0.423828 15.5361C0.423828 16.4238 1.03906 16.8369 2.32227 16.8369ZM2.0498 15.7998C1.64551 15.7998 1.51367 15.7031 1.51367 15.4219C1.51367 13.7607 3.86035 11.0098 8 11.0098C12.1309 11.0098 14.4863 13.7607 14.4863 15.4219C14.4863 15.7031 14.3457 15.7998 13.9502 15.7998H2.0498Z" fill="#561643"/>
</svg>
