<svg width="214" height="365" viewBox="0 0 214 365" fill="none" xmlns="http://www.w3.org/2000/svg">
<path d="M48.875 364.875H165.125C195.312 364.875 213.875 346.875 213.875 317.625V47.8125C213.875 18.5625 195.312 0.5625 165.125 0.5625H48.875C18.6875 0.5625 0.125 18.5625 0.125 47.8125V317.625C0.125 346.875 18.6875 364.875 48.875 364.875ZM51.5 341.812C32.75 341.812 23.375 332.625 23.375 314.25V51.1875C23.375 32.8125 32.75 23.625 51.5 23.625H162.5C181.25 23.625 190.625 32.8125 190.625 51.1875V314.25C190.625 332.625 181.25 341.812 162.5 341.812H51.5ZM60.5 167.625H153.5C164.188 167.625 170.562 162 170.562 152.25V61.6875C170.562 51.9375 164.188 46.3125 153.5 46.3125H60.5C49.8125 46.3125 43.4375 51.9375 43.4375 61.6875V152.25C43.4375 162 49.8125 167.625 60.5 167.625ZM55.4375 222.188H72.125C76.0625 222.188 78.875 219.562 78.875 215.812V198.75C78.875 195 76.0625 192.375 72.125 192.375H55.4375C51.6875 192.375 49.0625 195 49.0625 198.75V215.812C49.0625 219.562 51.6875 222.188 55.4375 222.188ZM98.1875 222.188H114.875C118.812 222.188 121.625 219.562 121.625 215.812V198.75C121.625 195 118.812 192.375 114.875 192.375H98.1875C94.4375 192.375 91.8125 195 91.8125 198.75V215.812C91.8125 219.562 94.4375 222.188 98.1875 222.188ZM141.125 222.188H157.625C161.562 222.188 164.562 219.562 164.562 215.812V198.75C164.562 195 161.562 192.375 157.625 192.375H141.125C137.188 192.375 134.562 195 134.562 198.75V215.812C134.562 219.562 137.188 222.188 141.125 222.188ZM55.4375 267.375H72.125C76.0625 267.375 78.875 264.75 78.875 261V243.938C78.875 240.375 76.0625 237.75 72.125 237.75H55.4375C51.6875 237.75 49.0625 240.375 49.0625 243.938V261C49.0625 264.75 51.6875 267.375 55.4375 267.375ZM98.1875 267.375H114.875C118.812 267.375 121.625 264.75 121.625 261V243.938C121.625 240.375 118.812 237.75 114.875 237.75H98.1875C94.4375 237.75 91.8125 240.375 91.8125 243.938V261C91.8125 264.75 94.4375 267.375 98.1875 267.375ZM141.125 267.375H157.625C161.562 267.375 164.562 264.75 164.562 261V243.938C164.562 240.375 161.562 237.75 157.625 237.75H141.125C137.188 237.75 134.562 240.375 134.562 243.938V261C134.562 264.75 137.188 267.375 141.125 267.375ZM55.4375 312.75H72.125C76.0625 312.75 78.875 310.125 78.875 306.375V289.312C78.875 285.562 76.0625 282.75 72.125 282.75H55.4375C51.6875 282.75 49.0625 285.562 49.0625 289.312V306.375C49.0625 310.125 51.6875 312.75 55.4375 312.75ZM98.1875 312.75H114.875C118.812 312.75 121.625 310.125 121.625 306.375V289.312C121.625 285.562 118.812 282.75 114.875 282.75H98.1875C94.4375 282.75 91.8125 285.562 91.8125 289.312V306.375C91.8125 310.125 94.4375 312.75 98.1875 312.75ZM141.125 312.75H157.625C161.562 312.75 164.562 310.125 164.562 306.375V289.312C164.562 285.562 161.562 282.75 157.625 282.75H141.125C137.188 282.75 134.562 285.562 134.562 289.312V306.375C134.562 310.125 137.188 312.75 141.125 312.75Z" fill="#561643"/>
</svg>
