<svg width="340" height="340" viewBox="0 0 340 340" fill="none" xmlns="http://www.w3.org/2000/svg">
<path d="M55.4375 339.688H284.375C320.938 339.688 339.688 320.938 339.688 284.938V55.0625C339.688 18.875 320.938 0.125 284.375 0.125H55.4375C18.875 0.125 0.125 18.6875 0.125 55.0625V284.938C0.125 321.125 18.875 339.688 55.4375 339.688ZM55.8125 316.438C34.8125 316.438 23.375 305.375 23.375 283.625V56.1875C23.375 34.625 34.8125 23.375 55.8125 23.375H283.812C304.625 23.375 316.438 34.625 316.438 56.1875V283.625C316.438 305.375 304.625 316.438 283.812 316.438H55.8125ZM169.625 253.812C177.312 253.812 182 248.562 182 240.5V181.812H242.75C250.625 181.812 256.25 177.312 256.25 170C256.25 162.312 251 157.625 242.75 157.625H182V96.6875C182 88.4375 177.312 83.1875 169.625 83.1875C162.125 83.1875 157.812 88.8125 157.812 96.6875V157.625H97.0625C89 157.625 83.5625 162.312 83.5625 170C83.5625 177.312 89.375 181.812 97.0625 181.812H157.812V240.5C157.812 248.375 162.125 253.812 169.625 253.812Z" fill="#561643"/>
</svg>
