<svg width="378" height="413" viewBox="0 0 378 413" fill="none" xmlns="http://www.w3.org/2000/svg">
<path d="M189 412.875C291.938 412.875 377.062 327.75 377.062 224.812C377.062 160.312 343.5 102.938 293.062 69.1875C286.688 64.3125 279 66 275.438 71.8125C271.875 77.8125 273.75 84.5625 279.562 88.875C323.625 117.938 352.688 167.812 352.875 224.812C352.875 315.562 279.75 388.688 189 388.688C98.25 388.688 25.3125 315.562 25.3125 224.812C25.3125 145.875 80.4375 80.4375 154.5 64.6875V95.625C154.5 106.5 162 109.688 170.812 103.5L229.125 62.625C236.438 57.375 236.625 50.0625 229.125 44.8125L171 3.9375C162 -2.25 154.5 0.75 154.5 11.8125V39.9375C67.6875 56.25 0.9375 133.5 0.9375 224.812C0.9375 327.75 86.0625 412.875 189 412.875ZM90 153.562C88.875 163.125 88.125 172.312 88.125 181.312C88.125 247.5 131.438 297.188 187.312 297.188C211.875 297.188 234.562 286.688 244.5 269.062C253.312 280.875 257.812 294.562 264.938 316.125C265.5 318 267.375 318.562 268.688 317.812L276 314.438C280.875 312.375 282.75 309.375 282.75 304.312C282.75 290.062 264.375 268.875 255.188 260.062C216 223.5 156.75 244.125 140.438 204.75C140.25 204 139.875 203.438 139.875 203.062C139.875 201.562 141.188 200.25 142.5 200.25C143.812 200.25 144.562 201 145.5 201.938C175.875 232.312 218.062 206.25 256.312 243.188C258.75 245.25 262.125 244.5 262.5 241.688C262.688 238.312 263.062 234.188 263.062 229.875C263.062 186 232.125 167.25 187.688 167.25C173.812 167.25 159.562 168.938 146.25 168.938C126.938 168.938 109.5 165.375 98.0625 151.875C95.4375 148.875 90.5625 149.438 90 153.562Z" fill="#13547A"/>
</svg>
