<svg width="378" height="377" viewBox="0 0 378 377" fill="none" xmlns="http://www.w3.org/2000/svg">
<path d="M189 376.875C291.938 376.875 377.062 291.75 377.062 188.812C377.062 85.875 291.938 0.75 188.812 0.75C85.875 0.75 0.9375 85.875 0.9375 188.812C0.9375 291.75 86.0625 376.875 189 376.875ZM189 352.688C98.25 352.688 25.3125 279.562 25.3125 188.812C25.3125 98.0625 98.25 25.125 188.812 25.125C279.562 25.125 352.688 98.0625 352.875 188.812C352.875 279.562 279.75 352.688 189 352.688ZM189 179.438C216.562 179.625 238.688 156.188 238.688 125.062C238.688 96 216.562 71.8125 189 71.8125C161.438 71.8125 139.312 96 139.312 125.062C139.312 156.188 161.438 179.25 189 179.438ZM98.4375 286.125H279.562C285.938 286.125 288.938 282 288.938 276C288.938 254.438 257.062 197.625 189 197.625C120.938 197.625 89.0625 254.438 89.0625 276C89.0625 282 92.0625 286.125 98.4375 286.125Z" fill="#13547A"/>
</svg>
