<svg width="378" height="377" viewBox="0 0 378 377" fill="none" xmlns="http://www.w3.org/2000/svg">
<path d="M189 376.875C291.938 376.875 377.062 291.75 377.062 188.812C377.062 85.875 291.938 0.75 188.812 0.75C85.875 0.75 0.9375 85.875 0.9375 188.812C0.9375 291.75 86.0625 376.875 189 376.875ZM189 251.625C129.938 251.625 85.125 275.25 67.6875 299.062C41.4375 270 25.3125 231.375 25.3125 188.812C25.3125 98.0625 98.25 25.125 188.812 25.125C279.562 25.125 352.688 98.0625 352.875 188.812C352.875 231.375 336.75 270.188 310.312 299.25C292.875 275.25 248.062 251.625 189 251.625ZM189 219.562C225 219.75 252.938 189 252.938 148.875C252.938 111.188 224.625 79.6875 189 79.6875C153.375 79.6875 124.875 111.188 125.062 148.875C125.25 189 153 219.375 189 219.562Z" fill="#13547A"/>
</svg>
