<svg width="378" height="377" viewBox="0 0 378 377" fill="none" xmlns="http://www.w3.org/2000/svg">
<path d="M189 376.688C291.938 376.688 377.062 291.562 377.062 188.625C377.062 85.5 291.938 0.5625 188.812 0.5625C85.875 0.5625 0.9375 85.5 0.9375 188.625C0.9375 291.562 86.0625 376.688 189 376.688ZM189 352.312C98.25 352.312 25.3125 279.188 25.3125 188.625C25.3125 97.875 98.25 24.75 188.812 24.75C279.562 24.75 352.688 97.875 352.875 188.625C352.875 279.188 279.75 352.312 189 352.312ZM123.562 266.25C126.938 266.25 129.75 265.125 132.188 262.5L188.812 205.688L245.812 262.5C248.25 264.938 251.062 266.25 254.438 266.25C261 266.25 266.25 261 266.25 254.625C266.25 251.062 264.938 248.438 262.5 246L205.5 189L262.688 131.812C265.312 129.375 266.25 126.75 266.25 123.562C266.25 117 261 111.938 254.438 111.938C251.438 111.938 248.812 113.062 246.188 115.688L188.812 172.688L132 115.688C129.562 113.25 126.938 112.125 123.562 112.125C117 112.125 111.75 117.188 111.75 123.562C111.75 126.938 112.875 129.75 115.312 132L172.312 189L115.312 246.188C112.875 248.438 111.75 251.25 111.75 254.625C111.75 261 117 266.25 123.562 266.25Z" fill="#561643"/>
</svg>
