<svg width="378" height="377" viewBox="0 0 378 377" fill="none" xmlns="http://www.w3.org/2000/svg">
<path d="M189 376.688C291.938 376.688 377.062 291.562 377.062 188.625C377.062 85.5 291.938 0.5625 188.812 0.5625C85.875 0.5625 0.9375 85.5 0.9375 188.625C0.9375 291.562 86.0625 376.688 189 376.688ZM122.25 267.562C115.5 267.562 110.062 262.312 110.062 255.562C110.062 252.188 111.375 249.375 113.812 246.938L171.75 188.812L113.812 130.688C111.375 128.25 110.062 125.438 110.062 122.062C110.062 115.5 115.5 110.25 122.25 110.25C125.625 110.25 128.438 111.375 130.875 114L188.812 171.938L247.312 113.812C249.938 111.188 252.562 110.062 255.938 110.062C262.5 110.062 267.938 115.312 267.938 121.875C267.938 125.25 266.812 127.875 264.375 130.688L206.062 188.812L264.188 246.75C266.625 249.375 267.75 252.188 267.75 255.562C267.75 262.312 262.5 267.562 255.562 267.562C252.188 267.562 249.375 266.25 246.75 263.812L188.812 205.875L131.25 263.812C128.625 266.438 125.625 267.562 122.25 267.562Z" fill="#561643"/>
</svg>
