<svg width="309" height="355" viewBox="0 0 309 355" fill="none" xmlns="http://www.w3.org/2000/svg">
<path d="M164.781 346.219C171.812 346.219 176.5 341.344 176.5 334.688C176.5 331.031 175 328.406 172.75 326.25L151.469 305.344L136.094 292.594L157.562 293.625H272.406C297.25 293.625 308.031 282.562 308.031 257.812V201.938C308.031 177.094 297.25 166.312 272.406 166.312H220.656C213.531 166.312 208.469 171.75 208.469 178.312C208.469 184.969 213.531 190.406 220.656 190.406H271.469C280.562 190.406 284.406 194.156 284.406 203.25V256.5C284.406 265.781 280.562 269.531 271.469 269.531H157.562L136.094 270.469L151.469 257.719L172.75 237C175 234.844 176.5 232.125 176.5 228.469C176.5 221.906 171.812 216.938 164.781 216.938C161.688 216.938 158.5 218.344 156.062 220.688L103.375 272.719C101.031 274.969 99.7188 278.344 99.7188 281.531C99.7188 284.812 101.031 288.188 103.375 290.438L156.062 342.469C158.5 344.906 161.688 346.219 164.781 346.219Z" fill="#13547A"/>
<path d="M14.5 163.875L89.125 204.938C94.1875 207.75 99.7188 207.75 104.781 204.938L179.406 163.875C188.781 158.625 193.188 153.094 193.188 140.062V62.7188C193.188 52.5938 189.438 46.125 180.625 41.1562L115.094 4.875C103.281 -1.59375 90.625 -1.59375 78.9062 4.875L13.375 41.1562C4.5625 46.125 0.71875 52.5938 0.71875 62.7188V140.062C0.71875 153.094 5.125 158.625 14.5 163.875ZM140.875 67.125L74.2188 30.2812L87.4375 22.7812C93.9062 19.2188 100 19.125 106.469 22.7812L163.469 54.5625L140.875 67.125ZM97 91.4062L30.4375 54.5625L54.0625 41.25L120.719 78.1875L97 91.4062ZM26.2188 147.562C21.4375 144.844 19.6562 142.031 19.6562 137.25V71.25L87.0625 108.75V181.594L26.2188 147.562ZM167.688 147.562L106.844 181.594V108.75L174.25 71.25V137.25C174.25 142.031 172.562 144.844 167.688 147.562Z" fill="#13547A"/>
</svg>
