<svg width="353" height="356" viewBox="0 0 353 356" fill="none" xmlns="http://www.w3.org/2000/svg">
<path d="M142.188 283.938C174.25 283.938 203.688 273.25 227.5 255.25L322.938 350.875C326.125 354.062 330.625 355.938 335.312 355.938C345.812 355.938 352.75 347.875 352.75 338.125C352.75 333.625 351.25 329.125 347.875 325.75L252.812 230.688C272.5 206.312 284.125 175.562 284.125 142C284.125 64 220.375 0.0625 142.188 0.0625C64.1875 0.0625 0.25 63.8125 0.25 142C0.25 220.188 64 283.938 142.188 283.938ZM142.188 260.125C77.3125 260.125 24.0625 206.875 24.0625 142C24.0625 77.3125 77.3125 23.875 142.188 23.875C207.062 23.875 260.312 77.3125 260.312 142C260.312 206.875 207.062 260.125 142.188 260.125Z" fill="#561643"/>
</svg>
