<svg width="23" height="23" viewBox="0 0 23 23" fill="none" xmlns="http://www.w3.org/2000/svg">
<path d="M9.32422 18.5234C11.1875 18.5234 12.9336 17.9609 14.3867 17L19.5195 22.1445C19.8594 22.4727 20.293 22.6367 20.7617 22.6367C21.7344 22.6367 22.4492 21.875 22.4492 20.9141C22.4492 20.4688 22.2969 20.0352 21.9688 19.707L16.8711 14.5859C17.9258 13.0977 18.5469 11.2695 18.5469 9.30078C18.5469 4.22656 14.3984 0.078125 9.32422 0.078125C4.25 0.078125 0.101562 4.22656 0.101562 9.30078C0.101562 14.375 4.25 18.5234 9.32422 18.5234ZM9.32422 16.0625C5.60938 16.0625 2.5625 13.0156 2.5625 9.30078C2.5625 5.59766 5.60938 2.53906 9.32422 2.53906C13.0391 2.53906 16.0859 5.59766 16.0859 9.30078C16.0859 13.0156 13.0391 16.0625 9.32422 16.0625Z" fill="#561643"/>
</svg>
