<svg width="82" height="82" viewBox="0 0 82 82" fill="none" xmlns="http://www.w3.org/2000/svg">
<g clip-path="url(#clip0)">
<path d="M81.9894 17.7465C81.9885 15.0626 79.8039 12.8782 77.1196 12.8771L12.4012 12.8707H12.399C11.0991 12.8707 9.87716 13.3768 8.95818 14.2957C8.03872 15.2152 7.53263 16.4378 7.53311 17.7385L7.53391 20.5253L4.86811 20.525H4.86587C3.56604 20.525 2.34389 21.0311 1.42507 21.9501C0.505614 22.8699 -0.000480127 24.0925 3.41791e-07 25.3931L0.0105707 64.2538C0.0115316 66.9377 2.1959 69.122 4.88044 69.1231L69.5988 69.1294H69.601C70.9008 69.1294 72.1228 68.6233 73.0418 67.7043C73.9613 66.7849 74.4674 65.5622 74.4669 64.2616L74.4661 61.4747L77.1319 61.4749H77.1341C78.434 61.4749 79.6561 60.9688 80.5749 60.0498C81.4944 59.1304 82.0005 57.9077 82 56.6071L81.9894 17.7465ZM70.7767 65.4394C70.4627 65.7535 70.0451 65.9263 69.6009 65.9263C69.6004 65.9261 69.5999 65.9261 69.5996 65.9263L4.88124 65.92C3.96211 65.9195 3.21402 65.1716 3.2137 64.2526L3.20313 25.392C3.20297 24.9474 3.37593 24.5294 3.69 24.2152C4.00407 23.9011 4.42159 23.7283 4.86651 23.7283H4.86731L69.5855 23.7345C70.5046 23.735 71.2527 24.4831 71.253 25.4019L71.2636 64.2626C71.2638 64.7072 71.091 65.1252 70.7767 65.4394ZM78.31 57.7849C77.9959 58.099 77.5784 58.2718 77.1335 58.2718H77.1327L74.4651 58.2716L74.4562 25.401C74.4552 22.7171 72.2707 20.5325 69.5863 20.5316L10.737 20.5258L10.7362 17.7375C10.7361 17.2929 10.909 16.8749 11.2231 16.5607C11.5372 16.2466 11.9547 16.0738 12.3996 16.0738H12.4003L77.1186 16.08C78.0377 16.0805 78.7858 16.8284 78.7861 17.7474L78.7969 56.6081C78.797 57.0526 78.6241 57.4707 78.31 57.7849Z" fill="#561643"/>
<path d="M61.6984 60.3539C61.6976 58.1478 63.4853 56.3601 65.6913 56.3611L65.687 33.2968C63.4808 33.296 61.6917 31.5069 61.6909 29.3008H12.7683C12.7691 31.5069 10.9814 33.2946 8.77545 33.2936L8.77978 56.3579C10.9859 56.3587 12.775 58.1478 12.7758 60.3539H61.6984Z" fill="#4DA167"/>
<path d="M39.2815 43.5199C39.0483 43.4374 38.8259 43.3581 38.6142 43.2819V38.5897C39.1326 38.7678 39.4934 39.0407 39.6765 39.3016C40.1846 40.0256 41.1834 40.2008 41.9074 39.6925C42.6315 39.1845 42.8066 38.1856 42.2984 37.4615C41.5825 36.4413 40.2937 35.5869 38.6142 35.2951V35.0475C38.6142 34.1629 37.8971 33.4459 37.0126 33.4459C36.128 33.4459 35.411 34.1629 35.411 35.0475V35.4141C35.2006 35.4624 34.9873 35.5188 34.7709 35.584C32.836 36.167 31.3756 38.0453 31.2194 40.1518C31.065 42.2347 32.1727 44.0439 34.1825 44.9917C34.4547 45.12 34.8761 45.2957 35.411 45.5052V51.1613C34.6905 50.93 34.0356 50.5588 33.6035 50.0224C33.0486 49.3337 32.0402 49.225 31.3516 49.7798C30.6627 50.3347 30.5541 51.3429 31.1089 52.0319C32.2109 53.3999 33.8285 54.1407 35.4109 54.4637V54.6072C35.4109 55.4916 36.1279 56.2088 37.0124 56.2088C37.897 56.2088 38.614 55.4916 38.614 54.6072V54.5848C41.9581 54.1319 43.4214 51.9356 43.6706 49.9734C44.0213 47.211 42.2164 44.5574 39.2815 43.5199ZM34.4137 40.3889C34.4637 39.7149 34.8734 39.0712 35.4109 38.7722V42.0255C34.6967 41.6453 34.3614 41.0953 34.4137 40.3889ZM40.4931 49.5696C40.3812 50.4516 39.708 51.0724 38.6142 51.3304V46.703C40.0658 47.3787 40.6127 48.6265 40.4931 49.5696Z" fill="white"/>
<path d="M56.9724 43.3254H51.7383C50.8538 43.3254 50.1367 44.0426 50.1367 44.927C50.1367 45.8114 50.8538 46.5286 51.7383 46.5286H56.9724C57.8569 46.5286 58.5739 45.8114 58.5739 44.927C58.5739 44.0425 57.8569 43.3254 56.9724 43.3254Z" fill="white"/>
<path d="M22.9512 43.3254H17.7171C16.8326 43.3254 16.1156 44.0426 16.1156 44.927C16.1156 45.8114 16.8326 46.5286 17.7171 46.5286H22.9512C23.8357 46.5286 24.5528 45.8114 24.5528 44.927C24.5528 44.0425 23.8357 43.3254 22.9512 43.3254Z" fill="white"/>
</g>
<defs>
<clipPath id="clip0">
<rect width="82" height="82" fill="white"/>
</clipPath>
</defs>
</svg>
