<svg width="82" height="82" viewBox="0 0 82 82" fill="none" xmlns="http://www.w3.org/2000/svg">
<path d="M80.3984 54.5098H80.3499V45.1862C80.3493 44.8956 80.2913 44.7291 80.2341 44.5872L74.4286 29.2295C74.1932 28.6065 73.5968 28.1942 72.9305 28.1942H63.4569V18.1563C63.4569 15.7501 61.5006 13.7927 59.0961 13.7927H30.8778C31.3922 14.8066 31.8096 15.8784 32.1177 16.9958H59.0961C59.7344 16.9958 60.2538 17.5165 60.2538 18.1563V54.5097H14.4621V37.0278C13.3556 36.8518 12.2845 36.5698 11.259 36.1923V54.5098H11.2104C10.3259 54.5098 9.60889 55.2268 9.60889 56.1114V65.9626C9.60889 66.8471 10.3259 67.5642 11.2104 67.5642H18.6428C18.5259 68.1209 18.4644 68.6979 18.4644 69.289C18.4644 73.8895 22.1887 77.6324 26.7666 77.6324C31.3443 77.6324 35.0688 73.8895 35.0688 69.289C35.0688 68.6979 35.0073 68.1209 34.8904 67.5642H58.4718C58.3548 68.1209 58.2933 68.6979 58.2933 69.289C58.2933 73.8895 62.0178 77.6324 66.5957 77.6324C71.1736 77.6324 74.8979 73.8895 74.8979 69.289C74.8979 68.6979 74.8364 68.1209 74.7195 67.5642H80.3984C81.2828 67.5642 82 66.8471 82 65.9626V56.1114C82 55.227 81.2828 54.5098 80.3984 54.5098ZM63.4573 31.3975H71.8238L76.4309 43.5846H63.4573V31.3975ZM63.4573 46.7877H77.1469V54.509H63.4573V46.7877ZM26.7667 74.4293C23.955 74.4293 21.6677 72.1235 21.6677 69.289C21.6677 66.4548 23.9552 64.1488 26.7667 64.1488C29.5783 64.1488 31.8658 66.4546 31.8658 69.289C31.8658 72.1235 29.5785 74.4293 26.7667 74.4293ZM66.5957 74.4293C63.784 74.4293 61.4965 72.1235 61.4965 69.289C61.4965 66.4548 63.784 64.1488 66.5957 64.1488C69.4074 64.1488 71.6947 66.4546 71.6947 69.289C71.6947 72.1235 69.4074 74.4293 66.5957 74.4293ZM78.7969 64.361H73.3131C73.3059 64.361 73.2987 64.3612 73.2915 64.3614C71.7793 62.2917 69.3411 60.9459 66.5958 60.9459C63.8508 60.9459 61.4125 62.2917 59.9004 64.3612H33.4853C33.4776 64.3612 33.4701 64.3614 33.4624 64.3615C31.95 62.2918 29.5118 60.946 26.7667 60.946C24.0217 60.946 21.5836 62.2918 20.0713 64.3614H12.8122V57.7133H78.7969V64.361Z" fill="#561643"/>
<path d="M17.1699 38.8425C26.6525 38.8425 34.3397 31.1251 34.3397 21.6051C34.3397 12.0851 26.6525 4.36761 17.1699 4.36761C7.68721 4.36761 0 12.0851 0 21.6051C0 31.1251 7.68721 38.8425 17.1699 38.8425Z" fill="#1E96FC"/>
<path d="M20.1571 23.9563H17.17C16.2855 23.9563 15.5685 23.2393 15.5685 22.3547V17.3566C15.5685 16.472 16.2855 15.755 17.17 15.755C18.0546 15.755 18.7716 16.472 18.7716 17.3566V20.7532H20.1571C21.0416 20.7532 21.7587 21.4702 21.7587 22.3547C21.7587 23.2394 21.0416 23.9563 20.1571 23.9563Z" fill="white"/>
</svg>
