<svg width="83" height="82" viewBox="0 0 83 82" fill="none" xmlns="http://www.w3.org/2000/svg">
<g clip-path="url(#clip0)">
<path d="M69.2429 7.76843H63.2038C61.6864 7.76843 60.4563 8.99843 60.4563 10.5159C60.4563 12.9838 58.4558 14.9843 55.9879 14.9843C53.5201 14.9843 51.5196 12.9838 51.5196 10.5159C51.5196 8.99859 50.2896 7.76843 48.7721 7.76843H42.7329C39.181 7.76843 36.3015 10.6479 36.3015 14.1998V24.5925H42.1764V39.0473C42.1764 40.3328 43.2185 41.375 44.5041 41.375H67.4719C68.7575 41.375 69.7996 40.3328 69.7996 39.0473V24.5925H75.6745V14.1997C75.6743 10.6477 72.7949 7.76843 69.2429 7.76843Z" fill="#C94277"/>
<path d="M80.1957 48.9692C78.9683 47.6957 77.3198 46.9782 75.5538 46.949C73.7864 46.9188 72.117 47.5823 70.8372 48.8253L61.4988 58.0732C60.0838 53.5708 55.8826 50.2972 50.9336 50.2972H42.7558C41.0636 47.4351 37.9676 45.6357 34.6021 45.6357C30.0727 45.6357 26.2615 48.823 25.3398 53.1282H23.1418V52.2875C23.1418 51.403 22.4248 50.6859 21.5403 50.6859H1.65045C0.765909 50.6859 0.0488892 51.4031 0.0488892 52.2875V68.154C0.0488892 69.0386 0.765909 69.7556 1.65045 69.7556H21.5401C22.4246 69.7556 23.1417 69.0384 23.1417 68.154V67.3135H26.2127C27.946 70.792 31.5353 73.0596 35.4705 73.0596H62.4086C64.1335 73.0596 65.766 72.3967 67.0142 71.1845L80.0416 58.335C82.6565 55.7954 82.7257 51.5939 80.1957 48.9692ZM19.9385 66.5525H3.25217V53.8892H19.9385V66.5525ZM77.8011 56.0456L64.7736 68.8951C64.1354 69.5149 63.2956 69.8562 62.4086 69.8562H35.4705C32.4905 69.8562 29.7968 67.9692 28.7679 65.1607C28.5368 64.5297 27.9361 64.1101 27.2641 64.1101H23.1418V56.3313H26.7399C27.5927 56.3313 28.296 55.663 28.3395 54.8111C28.5101 51.4621 31.2611 48.8387 34.6023 48.8387C37.0652 48.8387 39.3107 50.2971 40.3232 52.554C40.5814 53.1298 41.1536 53.5002 41.7845 53.5002H50.9337C54.7285 53.5002 57.9045 56.2117 58.6432 59.8073H42.4751C41.5905 59.8073 40.8735 60.5245 40.8735 61.4089C40.8735 62.2934 41.5905 63.0106 42.4751 63.0106H60.4062C60.8029 63.0106 61.166 62.8663 61.4457 62.6274C61.4465 62.6267 61.4472 62.6261 61.448 62.6254C61.4554 62.6192 61.4626 62.6128 61.4698 62.6064C61.4731 62.6035 61.4763 62.6006 61.4797 62.5976C61.4842 62.5936 61.4885 62.5894 61.493 62.5854C61.4988 62.5801 61.5045 62.5748 61.5101 62.5694C61.5117 62.5678 61.5133 62.5662 61.5149 62.5647C61.5215 62.5585 61.5279 62.5524 61.5343 62.546L73.0801 51.1123C73.7333 50.4779 74.5931 50.1365 75.5009 50.1518C76.409 50.1669 77.2572 50.5364 77.8893 51.192C79.1981 52.55 79.1626 54.7233 77.8011 56.0456Z" fill="#561643"/>
</g>
<defs>
<clipPath id="clip0">
<rect width="82" height="82" fill="white" transform="translate(0.0488892)"/>
</clipPath>
</defs>
</svg>
