<svg width="96" height="96" viewBox="0 0 96 96" fill="none" xmlns="http://www.w3.org/2000/svg">
<path d="M89.574 47.9856L82.5612 36.3095C82.2824 35.8372 81.8594 35.6037 81.5536 35.4982L55.814 26.8068C55.7452 26.7836 55.6759 26.7646 55.6065 26.7496L53.919 28.6201L55.6065 30.6948L75.0929 37.2747L48 46.4234L20.9069 37.2747L40.3935 30.6948L42.2685 28.5819L40.3935 26.7566C40.3075 26.7727 40.2214 26.7948 40.1359 26.8237L14.4465 35.4982C14.024 35.6409 13.7261 35.8546 13.4435 36.3016C13.442 36.3042 6.426 47.9854 6.426 47.9854C6.04463 48.6205 6.06506 49.4376 6.52537 50.0667C6.74794 50.3708 7.06744 50.5902 7.41993 50.7233L13.1711 52.8966V82.9968C13.1711 83.8012 13.6841 84.5159 14.4463 84.7733L47.4 95.901L47.4242 95.9089C47.4263 95.9095 47.4281 95.9102 47.4302 95.9108C47.803 96.0304 48.2038 96.0295 48.5762 95.9085L48.5998 95.9009L81.5536 84.7732C82.3158 84.5157 82.8288 83.801 82.8288 82.9966V52.8968L88.5799 50.7235C88.9324 50.5904 89.2519 50.3708 89.4745 50.0669C89.9352 49.4378 89.9556 48.6205 89.574 47.9856ZM10.7972 47.9909L15.8763 39.5339L44.6978 49.2662L36.9451 57.8715L10.7972 47.9909ZM46.125 91.5124L16.9213 81.6513V54.3139L36.8181 61.8324C37.0339 61.9142 37.2584 61.9536 37.4806 61.9536C38.0018 61.9536 38.5114 61.7361 38.8741 61.3335L46.1252 53.2849V91.5124H46.125ZM79.079 81.6513L49.8752 91.5126V53.2847L57.1264 61.3333C57.489 61.7357 57.9984 61.9534 58.5198 61.9534C58.742 61.9534 58.9663 61.9138 59.1823 61.8322L79.0791 54.3137V81.6513H79.079ZM59.0548 57.8715L51.3021 49.2662L80.1235 39.5339L85.2027 47.9909L59.0548 57.8715Z" fill="#561643"/>
<path d="M65.1639 22.8054L48.0002 0L30.8364 22.8054H40.3937V37.2409H55.6067V22.8054H65.1639Z" fill="#FF1654"/>
</svg>
