<svg width="96" height="96" viewBox="0 0 96 96" fill="none" xmlns="http://www.w3.org/2000/svg">
<g clip-path="url(#clip0)">
<path d="M89.5487 47.9418L82.5634 36.3116C82.5604 36.3067 82.3725 36.0482 82.3716 36.0472C82.1603 35.8035 81.8835 35.6111 81.5558 35.5005L56.9708 27.1987L54.1718 27.7322L54.5955 30.3547L54.6146 30.3615L75.0947 37.277L48 46.4261L20.9053 37.277L41.3353 30.3784C41.3584 30.3705 41.3813 30.3622 41.4038 30.3536L41.7724 27.8355L39.0295 27.1987C34.1074 28.8607 14.4396 35.5022 14.4375 35.5027C14.4304 35.5052 14.2885 35.5609 14.2881 35.561C13.9633 35.7037 13.6965 35.93 13.5051 36.2057C13.5045 36.2066 13.4395 36.3067 13.4365 36.3116L6.45133 47.9418C6.25726 48.2649 6.14233 48.6354 6.15583 49.0121C6.18395 49.7917 6.67464 50.4459 7.36801 50.708L13.1689 52.9001V83.0025C13.1689 83.8068 13.6821 84.5216 14.4441 84.779L47.4 95.9073C47.4002 95.9073 47.401 95.9077 47.4021 95.9079C47.791 96.03 48.2113 96.032 48.5995 95.9073C48.5996 95.9073 48.5998 95.9073 48.5998 95.9071L81.5558 84.7788C82.318 84.5214 82.831 83.8066 82.831 83.0023V52.8999L88.6318 50.7078C89.3252 50.4459 89.8159 49.7915 89.844 49.0119C89.8577 48.6354 89.7428 48.2649 89.5487 47.9418ZM10.7948 47.9938L15.8743 39.5366L44.6976 49.2693L36.9445 57.8752L10.7948 47.9938ZM46.1248 91.5181L16.9193 81.6562V54.317L36.8173 61.8362C37.0331 61.9177 37.2576 61.9573 37.4798 61.9573C38.001 61.9573 38.5106 61.7396 38.8733 61.3372L46.1248 53.2882V91.5181ZM79.0808 81.6562L49.875 91.5181V53.288L57.1266 61.337C57.4892 61.7396 57.9988 61.9571 58.5201 61.9571C58.7423 61.9571 58.9667 61.9175 59.1825 61.836L79.0808 54.3168V81.6562ZM59.0554 57.8752L51.3023 49.2693L80.1255 39.5366L85.2051 47.9938L59.0554 57.8752Z" fill="#561643"/>
<path d="M30.8353 16.3116L48 39.1181L65.1647 16.3116H55.6069V0H40.3931V16.3116H30.8353Z" fill="#4DA167"/>
</g>
<defs>
<clipPath id="clip0">
<rect width="96" height="96" fill="white"/>
</clipPath>
</defs>
</svg>
