<svg id="Capa_1" enable-background="new 0 0 512 512" height="512" viewBox="0 0 512 512" width="512" xmlns="http://www.w3.org/2000/svg"><g><g><path d="m429.8 55.824h-37.708c-9.474 0-17.155 7.68-17.155 17.155 0 15.409-12.491 27.9-27.9 27.9-15.409 0-27.9-12.491-27.9-27.9 0-9.474-7.68-17.155-17.155-17.155h-37.708c-22.178 0-40.157 17.979-40.157 40.157v64.891h36.682v90.254c0 8.027 6.507 14.534 14.534 14.534h143.409c8.027 0 14.534-6.507 14.534-14.534v-90.254h36.682v-64.892c-.001-22.178-17.98-40.156-40.158-40.156z" fill="#ffbdbc"/></g><g><path d="m500.429 305.759c-7.664-7.952-17.957-12.432-28.984-12.614-11.035-.189-21.459 3.954-29.45 11.715l-58.308 57.743c-8.835-28.112-35.067-48.552-65.968-48.552h-51.061c-10.566-17.871-29.897-29.106-50.911-29.106-28.281 0-52.078 19.901-57.833 46.782h-13.724v-5.249c0-5.523-4.477-10-10-10h-124.19c-5.523 0-10 4.478-10 10v99.069c0 5.523 4.477 10 10 10h124.189c5.523 0 10-4.478 10-10v-5.248h19.175c10.823 21.719 33.234 35.878 57.805 35.878h168.199c10.77 0 20.963-4.139 28.757-11.708l81.342-80.231c16.327-15.857 16.759-42.091.962-58.479zm-376.24 109.788h-104.188v-79.068h104.188zm361.288-65.604-81.342 80.231c-3.985 3.87-9.229 6.001-14.767 6.001h-168.199c-18.607 0-35.426-11.782-41.85-29.318-1.443-3.94-5.194-6.56-9.39-6.56h-25.739v-48.57h22.466c5.325 0 9.716-4.173 9.988-9.492 1.065-20.911 18.242-37.291 39.104-37.291 15.378 0 29.399 9.106 35.721 23.198 1.612 3.595 5.185 5.908 9.124 5.908h57.127c23.694 0 43.525 16.93 48.137 39.381h-100.952c-5.523 0-10 4.478-10 10 0 5.523 4.477 10.001 10 10.001h111.96c2.477 0 4.744-.901 6.491-2.393.005-.004.009-.008.014-.012.046-.039.091-.079.136-.119.021-.018.041-.036.062-.055.028-.025.055-.051.083-.076.036-.033.072-.066.107-.1.01-.01.02-.02.03-.029.041-.039.081-.077.121-.117l72.091-71.391c4.078-3.961 9.447-6.093 15.115-5.997 5.67.094 10.966 2.401 14.913 6.495 8.172 8.479 7.95 22.049-.551 30.305z" fill="#020288"/></g></g></svg>