<svg width="32" height="32" viewBox="0 0 32 32" fill="none" xmlns="http://www.w3.org/2000/svg">
<g clip-path="url(#clip0)">
<path d="M29.5188 16.5877V2.01582C29.5188 1.49596 29.0974 1.07449 28.5775 1.07449H3.35733C2.83747 1.07449 2.416 1.49596 2.416 2.01582V17.7494C1.96191 17.8155 1.51798 17.9918 1.12525 18.2833C-0.11278 19.1612 -0.405596 21.1258 0.631434 22.3375L4.87136 27.4775C7.49591 30.5492 10.2839 30.9256 14.4287 30.9256C17.9854 30.9256 19.5756 30.9413 22.6754 30.2349L25.6938 29.513C26.1832 30.1965 26.9602 30.6392 27.8337 30.6392H29.3206C30.798 30.6392 31.9999 29.373 31.9999 27.8166V19.4018C32 17.9157 30.9039 16.695 29.5188 16.5877ZM25.2878 18.5241L24.0335 17.887C21.9713 16.8461 19.5871 16.8076 17.4923 17.7815C16.9208 18.0063 15.6743 18.7605 15.0277 18.7353H10.6755C9.23191 18.7353 8.05738 19.9097 8.05738 21.3534V22.0399C8.04928 22.0313 8.04081 22.0232 8.03284 22.0146L4.92489 18.6411C4.73681 18.4369 4.52552 18.2661 4.29872 18.129V8.78987H12.0021V12.2405C12.0021 12.7604 12.4236 13.1819 12.9434 13.1819H18.8833C19.4031 13.1819 19.8246 12.7604 19.8246 12.2405V8.78987H27.6362V16.5876C26.5364 16.6726 25.6193 17.4594 25.2878 18.5241ZM13.8847 8.78987H17.9419V11.2992H13.8847V8.78987ZM27.6362 6.90721H19.8246V2.95715H27.6362V6.90721H27.6362ZM17.9419 2.95715V6.90728H13.8848V2.95715H17.9419ZM12.002 2.95715V6.90728H4.29866V2.95715H12.002ZM22.2385 28.4036C19.375 29.0595 17.6504 29.0329 14.4624 29.0329C10.5716 29.0329 8.69165 28.9701 6.32377 26.2795L2.08384 21.1394C1.34634 20.1791 2.68215 19.0454 3.54026 19.9166L6.64821 23.2901C7.46961 24.1569 8.50325 24.6339 9.77725 24.6619H18.394C18.9139 24.6619 19.3354 24.2404 19.3354 23.7206C19.3354 23.2007 18.9139 22.7793 18.394 22.7793H9.93997V21.3533C9.93997 20.9477 10.2699 20.6178 10.6755 20.6178H15.0277C16.0081 20.688 17.4233 19.8693 18.286 19.4886C19.8549 18.7591 21.6406 18.788 23.1831 19.5665L25.1545 20.5678V27.7061L22.2385 28.4036ZM30.1173 27.8166C30.1173 28.3348 29.7599 28.7565 29.3207 28.7565H27.8337C27.3944 28.7565 27.0371 28.3348 27.0371 27.8166V19.4018C27.0371 18.8835 27.3945 18.4618 27.8337 18.4618H29.3207C29.7599 18.4618 30.1173 18.8835 30.1173 19.4018V27.8166Z" fill="#561643"/>
</g>
<defs>
<clipPath id="clip0">
<rect width="32" height="32" fill="white"/>
</clipPath>
</defs>
</svg>
