<svg width="366" height="365" viewBox="0 0 366 365" fill="none" xmlns="http://www.w3.org/2000/svg">
<path d="M348.938 38.6875L361.125 26.3125C367.125 20.125 367.125 12.625 361.5 6.8125L358.312 3.8125C353.062 -1.625 345.188 -0.875 339.562 4.75L327.188 16.9375L348.938 38.6875ZM129.375 240.438L161.625 226L336.188 51.25L314.625 29.6875L140.062 204.438L124.688 235.562C123.375 238.188 126.562 241.562 129.375 240.438ZM56.0625 364.562H274.5C307.312 364.562 326.062 345.812 326.062 309.812V109.75L302.812 132.812V308.5C302.812 330.25 290.812 341.312 273.938 341.312H56.4375C35.4375 341.312 24 330.25 24 308.5V95.3125C24 73.75 35.4375 62.5 56.4375 62.5H233.625L256.875 39.25H56.0625C19.5 39.25 0.75 57.8125 0.75 94.1875V309.812C0.75 346 19.5 364.562 56.0625 364.562Z" fill="#561643"/>
</svg>
