<svg width="384" height="384" viewBox="0 0 384 384" fill="none" xmlns="http://www.w3.org/2000/svg">
<path d="M178.426 138.778C180.969 141.507 182.354 145.118 182.288 148.848C182.222 152.579 180.711 156.138 178.073 158.777C175.434 161.415 171.875 162.926 168.144 162.992C164.414 163.058 160.803 161.673 158.074 159.13L124.8 125.894V292.819C124.8 296.638 123.283 300.301 120.582 303.002C117.882 305.702 114.219 307.219 110.4 307.219C106.581 307.219 102.918 305.702 100.218 303.002C97.5172 300.301 96 296.638 96 292.819V126.067L63.0144 159.053C61.6961 160.468 60.1063 161.602 58.34 162.389C56.5736 163.176 54.6667 163.6 52.7333 163.634C50.7998 163.668 48.8792 163.312 47.0861 162.588C45.2931 161.864 43.6643 160.786 42.2969 159.418C40.9295 158.051 39.8515 156.422 39.1273 154.629C38.403 152.836 38.0474 150.915 38.0815 148.982C38.1156 147.048 38.5388 145.142 39.3258 143.375C40.1129 141.609 41.2476 140.019 42.6624 138.701L99.2064 82.1376C100.556 80.4691 102.261 79.1238 104.198 78.2002C106.135 77.2766 108.254 76.7982 110.4 76.8C112.307 76.789 114.196 77.1567 115.96 77.8818C117.723 78.6069 119.325 79.675 120.672 81.024L178.426 138.778Z" fill="#FFFFFF"/>
<path d="M205.613 245.222C204.198 243.904 203.063 242.314 202.276 240.548C201.489 238.782 201.066 236.875 201.032 234.941C200.998 233.008 201.353 231.087 202.078 229.294C202.802 227.501 203.88 225.872 205.247 224.505C206.615 223.137 208.244 222.059 210.037 221.335C211.83 220.611 213.75 220.255 215.684 220.289C217.617 220.324 219.524 220.747 221.29 221.534C223.057 222.321 224.647 223.456 225.965 224.87L259.238 258.125V91.2C259.238 87.3809 260.756 83.7182 263.456 81.0176C266.157 78.3171 269.819 76.8 273.638 76.8C277.458 76.8 281.12 78.3171 283.821 81.0176C286.521 83.7182 288.038 87.3809 288.038 91.2V257.933L321.024 224.947C322.342 223.532 323.932 222.398 325.699 221.611C327.465 220.824 329.372 220.4 331.305 220.366C333.239 220.332 335.159 220.688 336.952 221.412C338.745 222.136 340.374 223.214 341.742 224.582C343.109 225.949 344.187 227.578 344.911 229.371C345.635 231.164 345.991 233.085 345.957 235.018C345.923 236.952 345.5 238.858 344.713 240.625C343.926 242.391 342.791 243.981 341.376 245.299L284.832 301.862C283.483 303.531 281.777 304.876 279.84 305.8C277.903 306.723 275.784 307.202 273.638 307.2C271.732 307.211 269.842 306.843 268.079 306.118C266.316 305.393 264.714 304.325 263.366 302.976L205.613 245.222V245.222Z" fill="#FFFFFF"/>
</svg>
