<svg width="378" height="377" viewBox="0 0 378 377" fill="none" xmlns="http://www.w3.org/2000/svg">
<path d="M189 376.688C291.938 376.688 377.062 291.562 377.062 188.625C377.062 85.5 291.938 0.5625 188.812 0.5625C85.875 0.5625 0.9375 85.5 0.9375 188.625C0.9375 291.562 86.0625 376.688 189 376.688ZM132.188 287.25C123.188 294 113.438 287.062 117 276.188L138.938 209.438L81.9375 168.75C73.5 162.562 76.5 150.188 87.9375 150.188L158.062 150.562L179.438 83.625C182.812 73.3125 195 73.3125 198.188 83.625L219.562 150.562L289.688 150.188C301.5 150.188 303.75 162.75 295.875 168.562L238.688 209.438L260.812 276.188C264.375 287.062 254.625 294 245.438 287.25L188.812 245.812L132.188 287.25Z" fill="#561643"/>
</svg>
