<svg width="410" height="391" viewBox="0 0 410 391" fill="none" xmlns="http://www.w3.org/2000/svg">
<path d="M79 388.062C85.375 392.75 93.0625 391.438 102.812 384.312L205 309.5L307.188 384.312C316.75 391.438 324.625 392.75 330.812 388.062C337.188 383.375 338.688 375.688 334.75 364.25L294.812 244.25L397.75 170.188C407.5 163.25 410.875 156.125 408.438 148.625C406 141.312 399.062 137.562 387.062 137.562L260.688 138.312L222.062 17.75C218.312 6.125 212.688 0.6875 205 0.6875C197.125 0.6875 191.688 6.125 187.938 17.75L149.312 138.312L22.9375 137.562C10.75 137.562 3.8125 141.312 1.375 148.625C-1.0625 156.125 2.5 163.25 12.25 170.188L115 244.25L75.25 364.25C71.3125 375.688 72.8125 383.375 79 388.062Z" fill="white"/>
</svg>
