<svg width="15" height="25" viewBox="0 0 15 25" fill="none" xmlns="http://www.w3.org/2000/svg">
<path d="M6.36816 24.0918C9.45117 24.0918 11.9648 21.5781 11.9648 18.4844C11.9648 16.8516 11.2988 15.4229 10.0098 14.2627C9.77344 14.0479 9.73047 13.9297 9.73047 13.6074L9.74121 3.96094C9.74121 1.71582 8.37695 0.222656 6.36816 0.222656C4.33789 0.222656 2.96289 1.71582 2.96289 3.96094L2.97363 13.6074C2.97363 13.9297 2.93066 14.0479 2.69434 14.2627C1.40527 15.4229 0.739258 16.8516 0.739258 18.4844C0.739258 21.5781 3.25293 24.0918 6.36816 24.0918ZM6.36816 22.5342C4.12305 22.5342 2.30762 20.708 2.30762 18.4844C2.30762 17.1416 2.95215 15.9277 4.09082 15.165C4.42383 14.9395 4.55273 14.7354 4.55273 14.2949V4.02539C4.55273 2.67188 5.2832 1.80176 6.36816 1.80176C7.4209 1.80176 8.15137 2.67188 8.15137 4.02539V14.2949C8.15137 14.7354 8.28027 14.9395 8.61328 15.165C9.75195 15.9277 10.3965 17.1416 10.3965 18.4844C10.3965 20.708 8.58105 22.5342 6.36816 22.5342ZM11.75 4.16504H14.0811C14.4678 4.16504 14.7148 3.875 14.7148 3.54199C14.7148 3.20898 14.4678 2.91895 14.0811 2.91895H11.75C11.374 2.91895 11.1162 3.20898 11.1162 3.54199C11.1162 3.875 11.374 4.16504 11.75 4.16504ZM11.75 7.18359H14.0811C14.4678 7.18359 14.7148 6.89355 14.7148 6.56055C14.7148 6.22754 14.4678 5.9375 14.0811 5.9375H11.75C11.374 5.9375 11.1162 6.22754 11.1162 6.56055C11.1162 6.89355 11.374 7.18359 11.75 7.18359ZM6.35742 21.084C7.78613 21.084 8.94629 19.9238 8.94629 18.4736C8.94629 17.4639 8.3877 16.6367 7.56055 16.1855C7.20605 16.0029 7.08789 15.874 7.08789 15.3477V9.64355C7.08789 9.08496 6.76562 8.75195 6.35742 8.75195C5.93848 8.75195 5.61621 9.08496 5.61621 9.64355V15.3477C5.61621 15.874 5.49805 16.0029 5.14355 16.1855C4.31641 16.6367 3.75781 17.4639 3.75781 18.4736C3.75781 19.9238 4.91797 21.084 6.35742 21.084ZM11.75 10.2021H14.0811C14.4678 10.2021 14.7148 9.91211 14.7148 9.5791C14.7148 9.24609 14.4678 8.94531 14.0811 8.94531H11.75C11.374 8.94531 11.1162 9.24609 11.1162 9.5791C11.1162 9.91211 11.374 10.2021 11.75 10.2021ZM11.75 13.2207H14.0811C14.4678 13.2207 14.7148 12.9199 14.7148 12.5869C14.7148 12.2539 14.4678 11.9639 14.0811 11.9639H11.75C11.374 11.9639 11.1162 12.2539 11.1162 12.5869C11.1162 12.9199 11.374 13.2207 11.75 13.2207Z" fill="#FF1D6F"/>
</svg>
