<svg width="359" height="415" viewBox="0 0 359 415" fill="none" xmlns="http://www.w3.org/2000/svg">
<path d="M94.5625 414.062H264.625C288.625 414.062 306.062 397.375 307.188 373.375L321.062 93.4375H347.875C354.062 93.4375 358.75 88.5625 358.75 82.5625C358.75 76.375 353.875 71.5 347.875 71.5H259.375V41.125C259.375 15.8125 243.062 0.625 215.875 0.625H142.562C115.75 0.625 99.25 15.8125 99.25 41.125V71.5H10.9375C5.125 71.5 0.0625 76.5625 0.0625 82.5625C0.0625 88.5625 5.125 93.4375 10.9375 93.4375H37.9375L51.8125 373.375C52.9375 397.375 70.1875 414.062 94.5625 414.062ZM122.312 42.25C122.312 29.875 130.562 22.1875 143.688 22.1875H214.75C228.062 22.1875 236.312 29.875 236.312 42.25V71.5H122.312V42.25ZM96.25 392.125C84.4375 392.125 75.0625 382.938 74.5 370.938L60.625 93.4375H297.625L284.312 370.938C283.75 382.938 274.375 392.125 262.375 392.125H96.25ZM123.438 355.938C129.062 355.938 132.812 352.188 132.625 347.125L126.438 139.562C126.438 134.312 122.5 130.938 117.25 130.938C111.625 130.938 107.875 134.5 108.062 139.75L114.25 347.125C114.25 352.375 118 355.938 123.438 355.938ZM179.5 355.938C185.125 355.938 189.062 352.375 189.062 347.125V139.75C189.062 134.5 185.125 130.938 179.5 130.938C173.875 130.938 169.938 134.5 169.938 139.75V347.125C169.938 352.375 173.875 355.938 179.5 355.938ZM235.562 356.125C241 356.125 244.562 352.562 244.75 347.312L250.938 139.938C251.125 134.5 247.375 130.938 241.75 130.938C236.5 130.938 232.562 134.312 232.375 139.562L226.188 347.125C226.188 352.375 229.75 356.125 235.562 356.125Z" fill="#561643"/>
</svg>
