<svg width="449" height="340" viewBox="0 0 449 340" fill="none" xmlns="http://www.w3.org/2000/svg">
<path d="M127.375 339.688H321.438C356.5 339.688 372.25 322.25 377.5 287.562L406.188 95.9375H416.5C437.125 95.9375 448.562 82.8125 448.562 62.375V33.6875C448.562 13.25 437.125 0.125 416.5 0.125H32.3125C12.625 0.125 0.25 13.25 0.25 33.6875V62.375C0.25 82.8125 11.875 95.9375 32.3125 95.9375H42.625L71.3125 287.562C76.5625 322.625 92.3125 339.688 127.375 339.688ZM37.375 74C27.8125 74 23.5 69.125 23.5 59.5625V36.5C23.5 26.9375 27.8125 22.25 37.375 22.25H411.625C421.188 22.25 425.5 26.9375 425.5 36.5V59.5625C425.5 69.125 421.188 74 411.625 74H37.375ZM127.938 317.75C108.062 317.75 97.5625 308.188 94.375 287.188L65.6875 95.9375H383.312L354.438 287.188C351.438 308.188 340.375 317.75 320.875 317.75H127.938ZM168.438 272C171.438 272 174.062 270.688 176.125 268.625L224.312 220.438L272.688 268.625C274.75 270.5 277.188 272 280.375 272C286.562 272 291.625 266.75 291.625 260.75C291.625 257.375 290.125 255.125 288.062 252.875L240.062 204.688L288.25 156.312C290.5 153.875 291.625 151.625 291.625 148.625C291.625 142.438 286.75 137.562 280.375 137.562C277.562 137.562 275.125 138.688 272.875 140.938L224.312 189.312L175.938 141.125C173.688 138.875 171.438 137.75 168.438 137.75C162.25 137.75 157.188 142.625 157.188 148.625C157.188 151.812 158.5 154.25 160.562 156.312L208.75 204.688L160.562 253.062C158.5 255.125 157.188 257.562 157.188 260.75C157.188 266.938 162.25 272 168.438 272Z" fill="#561643"/>
</svg>
