<svg width="404" height="367" viewBox="0 0 404 367" fill="none" xmlns="http://www.w3.org/2000/svg">
<path d="M345.625 0.125L58.1875 0.125C23.875 0.125 0.625 26.75 0.625 57.875C0.625 67.4375 3.0625 77.1875 8.3125 86.375L152.125 337.812C163.375 357.125 182.312 366.875 202 366.875C221.5 366.875 241 356.938 251.875 337.812L395.875 86.1875C400.938 77.1875 403.375 67.4375 403.375 57.875C403.375 26.75 380.125 0.125 345.625 0.125ZM336.063 47.375C345.25 47.375 351.25 54.875 351.25 63.125C351.25 65.375 350.875 68.5625 349.563 71L215.125 307.625C212.312 312.5 207.062 314.562 202 314.562C196.938 314.562 191.875 312.312 189.062 307.438L54.625 70.8125C53.3125 68.1875 52.75 65.375 52.75 63.125C52.75 54.875 58.9375 47.375 67.9375 47.375L336.063 47.375Z" fill="#FFFFFF"/>
</svg>
