<svg width="32" height="32" viewBox="0 0 32 32" fill="none" xmlns="http://www.w3.org/2000/svg">
<path fill-rule="evenodd" clip-rule="evenodd" d="M0 7C0 6.20435 0.31607 5.44129 0.87868 4.87868C1.44129 4.31607 2.20435 4 3 4H21C21.7956 4 22.5587 4.31607 23.1213 4.87868C23.6839 5.44129 24 6.20435 24 7V21H22V7C22 6.73478 21.8946 6.48043 21.7071 6.29289C21.5196 6.10536 21.2652 6 21 6H3C2.73478 6 2.48043 6.10536 2.29289 6.29289C2.10536 6.48043 2 6.73478 2 7V21C2 21.2652 2.10536 21.5196 2.29289 21.7071C2.48043 21.8946 2.73478 22 3 22V24C2.20435 24 1.44129 23.6839 0.87868 23.1213C0.31607 22.5587 0 21.7956 0 21L0 7ZM9 22H21V24H9V22Z" fill="#FFFFFF"/>
<path fill-rule="evenodd" clip-rule="evenodd" d="M22 10H26.04C26.4895 10.0004 26.9331 10.1018 27.3381 10.2967C27.7432 10.4916 28.0992 10.775 28.38 11.126L31.342 14.826C31.7682 15.3584 32.0003 16.0201 32 16.702V21C32 21.7956 31.6839 22.5587 31.1213 23.1213C30.5587 23.6839 29.7956 24 29 24H27V22H29C29.2652 22 29.5196 21.8946 29.7071 21.7071C29.8946 21.5196 30 21.2652 30 21V16.7C29.9996 16.4731 29.922 16.253 29.78 16.076L26.82 12.376C26.7265 12.2589 26.6078 12.1643 26.4728 12.0992C26.3378 12.0341 26.1899 12.0002 26.04 12H24V21H22V10ZM6 26C6.53043 26 7.03914 25.7893 7.41421 25.4142C7.78929 25.0391 8 24.5304 8 24C8 23.4696 7.78929 22.9609 7.41421 22.5858C7.03914 22.2107 6.53043 22 6 22C5.46957 22 4.96086 22.2107 4.58579 22.5858C4.21071 22.9609 4 23.4696 4 24C4 24.5304 4.21071 25.0391 4.58579 25.4142C4.96086 25.7893 5.46957 26 6 26ZM6 28C7.06087 28 8.07828 27.5786 8.82843 26.8284C9.57857 26.0783 10 25.0609 10 24C10 22.9391 9.57857 21.9217 8.82843 21.1716C8.07828 20.4214 7.06087 20 6 20C4.93913 20 3.92172 20.4214 3.17157 21.1716C2.42143 21.9217 2 22.9391 2 24C2 25.0609 2.42143 26.0783 3.17157 26.8284C3.92172 27.5786 4.93913 28 6 28Z" fill="#FFFFFF"/>
<path fill-rule="evenodd" clip-rule="evenodd" d="M24 26C24.5304 26 25.0391 25.7893 25.4142 25.4142C25.7893 25.0391 26 24.5304 26 24C26 23.4696 25.7893 22.9609 25.4142 22.5858C25.0391 22.2107 24.5304 22 24 22C23.4696 22 22.9609 22.2107 22.5858 22.5858C22.2107 22.9609 22 23.4696 22 24C22 24.5304 22.2107 25.0391 22.5858 25.4142C22.9609 25.7893 23.4696 26 24 26ZM24 28C25.0609 28 26.0783 27.5786 26.8284 26.8284C27.5786 26.0783 28 25.0609 28 24C28 22.9391 27.5786 21.9217 26.8284 21.1716C26.0783 20.4214 25.0609 20 24 20C22.9391 20 21.9217 20.4214 21.1716 21.1716C20.4214 21.9217 20 22.9391 20 24C20 25.0609 20.4214 26.0783 21.1716 26.8284C21.9217 27.5786 22.9391 28 24 28Z" fill="#FFFFFF"/>
</svg>
