<svg width="353" height="356" viewBox="0 0 353 356" fill="none" xmlns="http://www.w3.org/2000/svg">
<path d="M142.188 283.938C174.25 283.938 203.688 273.25 227.5 255.25L322.938 350.875C326.125 354.062 330.625 355.938 335.312 355.938C345.812 355.938 352.75 347.875 352.75 338.125C352.75 333.625 351.25 329.125 347.875 325.75L252.812 230.688C272.5 206.312 284.125 175.562 284.125 142C284.125 64 220.375 0.0625 142.188 0.0625C64.1875 0.0625 0.25 63.8125 0.25 142C0.25 220.188 64 283.938 142.188 283.938ZM142.188 260.125C77.3125 260.125 24.0625 206.875 24.0625 142C24.0625 77.3125 77.3125 23.875 142.188 23.875C207.062 23.875 260.312 77.3125 260.312 142C260.312 206.875 207.062 260.125 142.188 260.125ZM142.375 204.25C148.562 204.25 153.438 199.562 153.438 193.375V152.688H191.312C197.312 152.688 202 147.812 202 142C202 136 197.312 131.125 191.312 131.125H153.438V90.625C153.438 84.4375 148.75 79.9375 142.375 79.9375C135.812 79.9375 131.125 84.4375 131.125 90.625V131.125H93.25C87.25 131.125 82.375 136 82.375 142C82.375 147.812 87.25 152.688 93.25 152.688H131.125V193.375C131.125 199.562 136 204.25 142.375 204.25Z" fill="#561643"/>
</svg>
